<svg width="2103" height="523" viewBox="0 0 2103 523" fill="none" xmlns="http://www.w3.org/2000/svg">
<path d="M523.963 416.537C557.369 416.537 582.741 401.314 597.541 376.788H597.964V414H630.947V208.067H596.695V244.433L595.85 244.856C581.049 219.907 554.409 205.53 523.963 205.53C465.609 205.53 423.745 251.622 423.745 312.514C423.745 375.097 467.3 416.537 523.963 416.537ZM529.038 385.246C486.752 385.246 458.42 353.954 458.42 312.514C458.42 266.845 490.135 236.822 529.038 236.822C569.632 236.822 597.964 270.228 597.964 312.514C597.964 356.068 567.095 385.246 529.038 385.246ZM692.48 208.067V414H726.731V314.628C726.731 273.188 749.989 243.165 789.315 243.165C792.697 243.165 797.772 243.587 802.846 244.01V205.953C799.886 205.53 797.349 205.53 794.389 205.53C766.057 205.53 742.377 220.753 727.577 245.702H726.731V208.067H692.48ZM899.486 416.537C924.012 416.537 937.966 410.617 949.384 403.851L940.504 373.828C930.355 379.325 917.669 384.4 905.406 384.4C885.955 384.4 880.457 372.56 880.457 347.611V237.667H948.538V208.067H880.457V134.067L846.206 137.872V208.067H819.566V237.667H846.206V352.685C846.206 394.126 863.12 416.537 899.486 416.537ZM1167.53 307.439C1167.53 248.662 1129.05 205.53 1072.81 205.53C1014.03 205.53 971.326 249.085 971.326 311.245C971.326 374.251 1014.46 416.537 1075.35 416.537C1116.79 416.537 1142.58 400.891 1160.34 378.057L1136.24 357.76C1123.56 373.405 1104.1 385.246 1076.62 385.246C1037.72 385.246 1010.65 359.874 1006 321.394H1166.69C1166.69 318.856 1167.53 312.936 1167.53 307.439ZM1072.39 236.822C1106.22 236.822 1128.21 259.656 1133.28 293.485H1006.85C1013.19 258.388 1039.41 236.822 1072.39 236.822ZM1217.75 208.067V414H1252V314.628C1252 273.188 1275.26 243.165 1314.59 243.165C1317.97 243.165 1323.04 243.587 1328.12 244.01V205.953C1325.16 205.53 1322.62 205.53 1319.66 205.53C1291.33 205.53 1267.65 220.753 1252.85 245.702H1252V208.067H1217.75ZM1386.7 170.433C1400.65 170.433 1411.65 159.438 1411.65 145.907C1411.65 132.375 1400.65 121.381 1386.7 121.381C1372.75 121.381 1361.75 132.375 1361.75 145.907C1361.75 159.438 1372.75 170.433 1386.7 170.433ZM1369.36 208.067V414H1403.61V208.067H1369.36ZM1653.57 307.439C1653.57 248.662 1615.09 205.53 1558.85 205.53C1500.08 205.53 1457.37 249.085 1457.37 311.245C1457.37 374.251 1500.5 416.537 1561.39 416.537C1602.83 416.537 1628.63 400.891 1646.39 378.057L1622.28 357.76C1609.6 373.405 1590.15 385.246 1562.66 385.246C1523.76 385.246 1496.69 359.874 1492.04 321.394H1652.73C1652.73 318.856 1653.57 312.936 1653.57 307.439ZM1558.43 236.822C1592.26 236.822 1614.25 259.656 1619.32 293.485H1492.89C1499.23 258.388 1525.45 236.822 1558.43 236.822ZM1765.95 416.537C1815.43 416.537 1839.95 389.897 1839.95 357.76C1840.38 317.588 1811.62 309.976 1768.07 293.062C1745.66 285.028 1729.16 276.993 1729.16 260.925C1729.16 245.279 1744.81 235.976 1760.88 235.976C1778.64 235.976 1797.67 241.473 1815.43 257.965L1833.19 230.902C1810.35 212.296 1787.1 205.53 1762.15 205.53C1723.24 205.53 1694.49 229.21 1694.49 260.925C1694.49 298.559 1722.82 312.091 1756.23 323.931C1786.25 334.925 1805.28 339.999 1805.28 358.182C1805.28 373.828 1790.9 386.091 1765.95 386.091C1737.2 386.091 1719.02 376.788 1702.95 361.143L1685.61 387.36C1705.48 404.697 1731.7 416.537 1765.95 416.537ZM1962.8 312.936V395.817H1994.52V312.936H2077.82V281.222H1994.52V197.919H1962.8V281.222H1879.5V312.936H1962.8Z" fill="#34A3A4"/>
<path d="M271.08 268.54C264.55 228.7 243.19 194.87 229.39 158.02C222.46 139.5 211.66 136.14 193.39 141.42C201.27 158.79 209.06 175.84 216.76 192.92C229.25 220.63 243.04 247.75 246.76 278.69C252.27 324.69 224.63 357.69 178.53 358.76C166.32 359.03 154.1 358.94 141.88 358.76C122.46 358.51 106.03 365.51 92.9503 379.61C73.6503 400.41 61.8703 425.61 50.5303 452.32C68.2803 455.95 76.3403 452.26 86.8203 435.21C90.1603 429.79 96.1203 420.9 100.42 411.53C109.92 390.82 128.55 382.21 151.91 383.76C164.105 384.534 176.347 384.115 188.46 382.51C250 374.4 281.22 330.32 271.08 268.54Z" fill="#34A3A4"/>
<path d="M102.23 344.67C126.82 335.18 152.56 337.05 178.13 336.77C210.71 336.41 227.8 318.33 226.27 286.13C225.504 270.89 221.839 255.936 215.47 242.07C201.94 212.16 187.4 182.64 175.47 152.12C169.38 136.7 156.5 134.84 148 140.55C141.93 144.63 149.35 155.39 151.75 160.08C168.963 194.278 184.247 229.413 197.53 265.32C210.39 299.64 199.98 312.72 164.81 312.59C141.47 312.51 141.49 312.52 151.42 290.59C154.42 283.95 157.34 277.16 160.42 270.71C168.59 253.57 164.64 239.14 154.17 224.01C144.79 244.28 134.77 263.09 127.17 282.88C119.65 302.49 111.36 319.3 89.33 324.88C88.9498 319.488 89.9839 314.09 92.33 309.22C106 278.03 118.86 246.35 134.9 216.39C144.63 198.22 140.9 185.03 128.9 169.28C104.56 222.47 80.9 274.14 57.27 325.81L0 451.94C25.35 455.03 25.37 455.03 34.61 435.3C50.93 400.46 68.13 366.32 102.23 344.67Z" fill="#34A3A4"/>
<path d="M350.6 437.9C331.13 394.3 311.05 350.97 288.85 302.57C285.14 320.26 277.37 334.27 281.02 344C294.41 379.61 311.12 414 327.63 448.37C332.63 458.83 345.05 454.91 352.26 452.58C360.92 449.79 352.55 442.32 350.6 437.9Z" fill="#34A3A4"/>
<path d="M256.08 402.32C261.08 413.38 267.32 424.05 270.85 435.55C276.28 453.29 287.16 457.39 305.51 451.5L266.35 365.41C246.73 381.57 246.73 381.57 256.08 402.32Z" fill="#34A3A4"/>
<path d="M272.82 162.87V145.68H286.82V162.87H304V175.68H286.8V192.99H272.8V175.68H255.8V162.87H272.82Z" fill="#34A3A4"/>
</svg>
