<svg width="1440" height="557" viewBox="0 0 1440 557" fill="none" xmlns="http://www.w3.org/2000/svg">
<g clip-path="url(#clip0_171_15193)">
<path d="M1440 32.7889V27.5C1440 27.5 1440.1 29.3843 1440 32.7889V665H0V367.037C0 367.037 249.5 38 853 188.5C1409.56 327.295 1438.81 73.1595 1440 32.7889Z" fill="url(#paint0_linear_171_15193)"/>
<path d="M36.79 342.016L35.3996 343.406L34.2407 342.239L36.79 339.69L43.58 346.48L41.0079 349.052L39.8486 347.885L41.2539 346.48L36.79 342.016Z" fill="#E3B4C2" fill-opacity="0.13"/>
<path d="M32.6043 343.875L33.7636 345.042L32.326 346.48L36.79 350.944L38.2126 349.521L39.3716 350.688L36.79 353.27L30 346.48L32.6043 343.875Z" fill="#E3B4C2" fill-opacity="0.13"/>
<path d="M39.0131 347.044L37.3771 348.68L36.79 349.267L34.0028 346.48L34.5992 345.883L36.79 343.692L39.5775 346.48L39.0131 347.044Z" fill="#E3B4C2" fill-opacity="0.13"/>
<path d="M36.79 383.596L35.3996 384.986L34.2407 383.819L36.79 381.27L43.58 388.06L41.0079 390.632L39.8486 389.465L41.2539 388.06L36.79 383.596Z" fill="#E3B4C2" fill-opacity="0.13"/>
<path d="M32.6043 385.455L33.7636 386.622L32.326 388.06L36.79 392.524L38.2126 391.101L39.3716 392.268L36.79 394.85L30 388.06L32.6043 385.455Z" fill="#E3B4C2" fill-opacity="0.13"/>
<path d="M39.0131 388.624L37.3771 390.26L36.79 390.847L34.0028 388.06L34.5992 387.463L36.79 385.272L39.5775 388.06L39.0131 388.624Z" fill="#E3B4C2" fill-opacity="0.13"/>
<path d="M36.79 425.176L35.3996 426.566L34.2407 425.399L36.79 422.85L43.58 429.64L41.0079 432.212L39.8486 431.045L41.2539 429.64L36.79 425.176Z" fill="#E3B4C2" fill-opacity="0.13"/>
<path d="M32.6043 427.035L33.7636 428.202L32.326 429.64L36.79 434.104L38.2126 432.681L39.3716 433.848L36.79 436.43L30 429.64L32.6043 427.035Z" fill="#E3B4C2" fill-opacity="0.13"/>
<path d="M39.0131 430.204L37.3771 431.84L36.79 432.427L34.0028 429.64L34.5992 429.043L36.79 426.852L39.5775 429.64L39.0131 430.204Z" fill="#E3B4C2" fill-opacity="0.13"/>
<path d="M36.79 466.756L35.3996 468.146L34.2407 466.979L36.79 464.43L43.58 471.22L41.0079 473.792L39.8486 472.625L41.2539 471.22L36.79 466.756Z" fill="#E3B4C2" fill-opacity="0.13"/>
<path d="M32.6043 468.615L33.7636 469.782L32.326 471.22L36.79 475.684L38.2126 474.261L39.3716 475.428L36.79 478.01L30 471.22L32.6043 468.615Z" fill="#E3B4C2" fill-opacity="0.13"/>
<path d="M39.0131 471.784L37.3771 473.42L36.79 474.007L34.0028 471.22L34.5992 470.623L36.79 468.432L39.5775 471.22L39.0131 471.784Z" fill="#E3B4C2" fill-opacity="0.13"/>
<path d="M36.79 508.336L35.3996 509.726L34.2407 508.559L36.79 506.01L43.58 512.8L41.0079 515.372L39.8486 514.205L41.2539 512.8L36.79 508.336Z" fill="#E3B4C2" fill-opacity="0.13"/>
<path d="M32.6043 510.195L33.7636 511.362L32.326 512.8L36.79 517.264L38.2126 515.841L39.3716 517.008L36.79 519.59L30 512.8L32.6043 510.195Z" fill="#E3B4C2" fill-opacity="0.13"/>
<path d="M39.0131 513.364L37.3771 515L36.79 515.587L34.0028 512.8L34.5992 512.203L36.79 510.012L39.5775 512.8L39.0131 513.364Z" fill="#E3B4C2" fill-opacity="0.13"/>
<path d="M36.79 549.916L35.3996 551.306L34.2407 550.139L36.79 547.59L43.58 554.38L41.0079 556.952L39.8486 555.785L41.2539 554.38L36.79 549.916Z" fill="#E3B4C2" fill-opacity="0.13"/>
<path d="M32.6043 551.775L33.7636 552.942L32.326 554.38L36.79 558.843L38.2126 557.421L39.3716 558.588L36.79 561.17L30 554.38L32.6043 551.775Z" fill="#E3B4C2" fill-opacity="0.13"/>
<path d="M39.0131 554.944L37.3771 556.58L36.79 557.167L34.0028 554.38L34.5992 553.783L36.79 551.592L39.5775 554.38L39.0131 554.944Z" fill="#E3B4C2" fill-opacity="0.13"/>
<path d="M114.37 300.436L112.98 301.826L111.821 300.659L114.37 298.11L121.16 304.9L118.588 307.472L117.429 306.305L118.834 304.9L114.37 300.436Z" fill="#E3B4C2" fill-opacity="0.13"/>
<path d="M110.184 302.295L111.344 303.462L109.906 304.9L114.37 309.364L115.793 307.941L116.952 309.108L114.37 311.69L107.58 304.9L110.184 302.295Z" fill="#E3B4C2" fill-opacity="0.13"/>
<path d="M116.593 305.464L114.957 307.1L114.37 307.687L111.583 304.9L112.179 304.303L114.37 302.112L117.157 304.9L116.593 305.464Z" fill="#E3B4C2" fill-opacity="0.13"/>
<path d="M114.37 342.016L112.98 343.406L111.821 342.239L114.37 339.69L121.16 346.48L118.588 349.052L117.429 347.885L118.834 346.48L114.37 342.016Z" fill="#E3B4C2" fill-opacity="0.13"/>
<path d="M110.184 343.875L111.344 345.042L109.906 346.48L114.37 350.944L115.793 349.521L116.952 350.688L114.37 353.27L107.58 346.48L110.184 343.875Z" fill="#E3B4C2" fill-opacity="0.13"/>
<path d="M116.593 347.044L114.957 348.68L114.37 349.267L111.583 346.48L112.179 345.883L114.37 343.692L117.157 346.48L116.593 347.044Z" fill="#E3B4C2" fill-opacity="0.13"/>
<path d="M114.37 383.596L112.98 384.986L111.821 383.819L114.37 381.27L121.16 388.06L118.588 390.632L117.429 389.465L118.834 388.06L114.37 383.596Z" fill="#E3B4C2" fill-opacity="0.13"/>
<path d="M110.184 385.455L111.344 386.622L109.906 388.06L114.37 392.524L115.793 391.101L116.952 392.268L114.37 394.85L107.58 388.06L110.184 385.455Z" fill="#E3B4C2" fill-opacity="0.13"/>
<path d="M116.593 388.624L114.957 390.26L114.37 390.847L111.583 388.06L112.179 387.463L114.37 385.272L117.157 388.06L116.593 388.624Z" fill="#E3B4C2" fill-opacity="0.13"/>
<path d="M114.37 425.176L112.98 426.566L111.821 425.399L114.37 422.85L121.16 429.64L118.588 432.212L117.429 431.045L118.834 429.64L114.37 425.176Z" fill="#E3B4C2" fill-opacity="0.13"/>
<path d="M110.184 427.035L111.344 428.202L109.906 429.64L114.37 434.104L115.793 432.681L116.952 433.848L114.37 436.43L107.58 429.64L110.184 427.035Z" fill="#E3B4C2" fill-opacity="0.13"/>
<path d="M116.593 430.204L114.957 431.84L114.37 432.427L111.583 429.64L112.179 429.043L114.37 426.852L117.157 429.64L116.593 430.204Z" fill="#E3B4C2" fill-opacity="0.13"/>
<path d="M114.37 466.756L112.98 468.146L111.821 466.979L114.37 464.43L121.16 471.22L118.588 473.792L117.429 472.625L118.834 471.22L114.37 466.756Z" fill="#E3B4C2" fill-opacity="0.13"/>
<path d="M110.184 468.615L111.344 469.782L109.906 471.22L114.37 475.684L115.793 474.261L116.952 475.428L114.37 478.01L107.58 471.22L110.184 468.615Z" fill="#E3B4C2" fill-opacity="0.13"/>
<path d="M116.593 471.784L114.957 473.42L114.37 474.007L111.583 471.22L112.179 470.623L114.37 468.432L117.157 471.22L116.593 471.784Z" fill="#E3B4C2" fill-opacity="0.13"/>
<path d="M114.37 508.336L112.98 509.726L111.821 508.559L114.37 506.01L121.16 512.8L118.588 515.372L117.429 514.205L118.834 512.8L114.37 508.336Z" fill="#E3B4C2" fill-opacity="0.13"/>
<path d="M110.184 510.195L111.344 511.362L109.906 512.8L114.37 517.264L115.793 515.841L116.952 517.008L114.37 519.59L107.58 512.8L110.184 510.195Z" fill="#E3B4C2" fill-opacity="0.13"/>
<path d="M116.593 513.364L114.957 515L114.37 515.587L111.583 512.8L112.179 512.203L114.37 510.012L117.157 512.8L116.593 513.364Z" fill="#E3B4C2" fill-opacity="0.13"/>
<path d="M114.37 549.916L112.98 551.306L111.821 550.139L114.37 547.59L121.16 554.38L118.588 556.952L117.429 555.785L118.834 554.38L114.37 549.916Z" fill="#E3B4C2" fill-opacity="0.13"/>
<path d="M110.184 551.775L111.344 552.942L109.906 554.38L114.37 558.843L115.793 557.421L116.952 558.588L114.37 561.17L107.58 554.38L110.184 551.775Z" fill="#E3B4C2" fill-opacity="0.13"/>
<path d="M116.593 554.944L114.957 556.58L114.37 557.167L111.583 554.38L112.179 553.783L114.37 551.592L117.157 554.38L116.593 554.944Z" fill="#E3B4C2" fill-opacity="0.13"/>
<path d="M191.95 238.066L190.56 239.456L189.401 238.289L191.95 235.74L198.74 242.53L196.168 245.102L195.009 243.935L196.414 242.53L191.95 238.066Z" fill="#E3B4C2" fill-opacity="0.13"/>
<path d="M187.764 239.926L188.924 241.092L187.486 242.53L191.95 246.994L193.373 245.571L194.531 246.738L191.95 249.32L185.16 242.53L187.764 239.926Z" fill="#E3B4C2" fill-opacity="0.13"/>
<path d="M194.173 243.094L192.537 244.73L191.95 245.317L189.163 242.53L189.759 241.934L191.95 239.742L194.737 242.53L194.173 243.094Z" fill="#E3B4C2" fill-opacity="0.13"/>
<path d="M191.95 279.646L190.56 281.036L189.401 279.869L191.95 277.32L198.74 284.11L196.168 286.682L195.009 285.515L196.414 284.11L191.95 279.646Z" fill="#E3B4C2" fill-opacity="0.13"/>
<path d="M187.764 281.505L188.924 282.672L187.486 284.11L191.95 288.574L193.373 287.151L194.531 288.318L191.95 290.9L185.16 284.11L187.764 281.505Z" fill="#E3B4C2" fill-opacity="0.13"/>
<path d="M194.173 284.674L192.537 286.31L191.95 286.897L189.163 284.11L189.759 283.513L191.95 281.322L194.737 284.11L194.173 284.674Z" fill="#E3B4C2" fill-opacity="0.13"/>
<path d="M191.95 321.226L190.56 322.616L189.401 321.449L191.95 318.9L198.74 325.69L196.168 328.262L195.009 327.095L196.414 325.69L191.95 321.226Z" fill="#E3B4C2" fill-opacity="0.13"/>
<path d="M187.764 323.085L188.924 324.252L187.486 325.69L191.95 330.154L193.373 328.731L194.531 329.898L191.95 332.48L185.16 325.69L187.764 323.085Z" fill="#E3B4C2" fill-opacity="0.13"/>
<path d="M194.173 326.254L192.537 327.89L191.95 328.477L189.163 325.69L189.759 325.093L191.95 322.902L194.737 325.69L194.173 326.254Z" fill="#E3B4C2" fill-opacity="0.13"/>
<path d="M191.95 362.806L190.56 364.196L189.401 363.029L191.95 360.48L198.74 367.27L196.168 369.842L195.009 368.675L196.414 367.27L191.95 362.806Z" fill="#E3B4C2" fill-opacity="0.13"/>
<path d="M187.764 364.665L188.924 365.832L187.486 367.27L191.95 371.734L193.373 370.311L194.531 371.478L191.95 374.06L185.16 367.27L187.764 364.665Z" fill="#E3B4C2" fill-opacity="0.13"/>
<path d="M194.173 367.834L192.537 369.47L191.95 370.057L189.163 367.27L189.759 366.673L191.95 364.482L194.737 367.27L194.173 367.834Z" fill="#E3B4C2" fill-opacity="0.13"/>
<path d="M191.95 404.386L190.56 405.776L189.401 404.609L191.95 402.06L198.74 408.85L196.168 411.422L195.009 410.255L196.414 408.85L191.95 404.386Z" fill="#E3B4C2" fill-opacity="0.13"/>
<path d="M187.764 406.245L188.924 407.412L187.486 408.85L191.95 413.314L193.373 411.891L194.531 413.058L191.95 415.64L185.16 408.85L187.764 406.245Z" fill="#E3B4C2" fill-opacity="0.13"/>
<path d="M194.173 409.414L192.537 411.05L191.95 411.637L189.163 408.85L189.759 408.253L191.95 406.062L194.737 408.85L194.173 409.414Z" fill="#E3B4C2" fill-opacity="0.13"/>
<path d="M191.95 445.966L190.56 447.356L189.401 446.189L191.95 443.64L198.74 450.43L196.168 453.002L195.009 451.835L196.414 450.43L191.95 445.966Z" fill="#E3B4C2" fill-opacity="0.13"/>
<path d="M187.764 447.825L188.924 448.992L187.486 450.43L191.95 454.894L193.373 453.471L194.531 454.638L191.95 457.22L185.16 450.43L187.764 447.825Z" fill="#E3B4C2" fill-opacity="0.13"/>
<path d="M194.173 450.994L192.537 452.63L191.95 453.217L189.163 450.43L189.759 449.833L191.95 447.642L194.737 450.43L194.173 450.994Z" fill="#E3B4C2" fill-opacity="0.13"/>
<path d="M191.95 487.546L190.56 488.936L189.401 487.769L191.95 485.22L198.74 492.01L196.168 494.582L195.009 493.415L196.414 492.01L191.95 487.546Z" fill="#E3B4C2" fill-opacity="0.13"/>
<path d="M187.764 489.405L188.924 490.572L187.486 492.01L191.95 496.474L193.373 495.051L194.531 496.218L191.95 498.8L185.16 492.01L187.764 489.405Z" fill="#E3B4C2" fill-opacity="0.13"/>
<path d="M194.173 492.574L192.537 494.21L191.95 494.797L189.163 492.01L189.759 491.413L191.95 489.222L194.737 492.01L194.173 492.574Z" fill="#E3B4C2" fill-opacity="0.13"/>
<path d="M191.95 529.126L190.56 530.516L189.401 529.349L191.95 526.8L198.74 533.59L196.168 536.162L195.009 534.995L196.414 533.59L191.95 529.126Z" fill="#E3B4C2" fill-opacity="0.13"/>
<path d="M187.764 530.985L188.924 532.152L187.486 533.59L191.95 538.053L193.373 536.631L194.531 537.798L191.95 540.38L185.16 533.59L187.764 530.985Z" fill="#E3B4C2" fill-opacity="0.13"/>
<path d="M194.173 534.154L192.537 535.79L191.95 536.377L189.163 533.59L189.759 532.993L191.95 530.802L194.737 533.59L194.173 534.154Z" fill="#E3B4C2" fill-opacity="0.13"/>
<path d="M269.53 217.276L268.139 218.666L266.981 217.499L269.53 214.95L276.32 221.74L273.748 224.312L272.589 223.145L273.994 221.74L269.53 217.276Z" fill="#E3B4C2" fill-opacity="0.13"/>
<path d="M265.344 219.136L266.503 220.302L265.066 221.74L269.53 226.204L270.953 224.781L272.111 225.948L269.53 228.53L262.74 221.74L265.344 219.136Z" fill="#E3B4C2" fill-opacity="0.13"/>
<path d="M271.753 222.304L270.117 223.94L269.53 224.527L266.743 221.74L267.339 221.144L269.53 218.952L272.317 221.74L271.753 222.304Z" fill="#E3B4C2" fill-opacity="0.13"/>
<path d="M269.53 258.856L268.139 260.246L266.981 259.079L269.53 256.53L276.32 263.32L273.748 265.892L272.589 264.725L273.994 263.32L269.53 258.856Z" fill="#E3B4C2" fill-opacity="0.13"/>
<path d="M265.344 260.715L266.503 261.882L265.066 263.32L269.53 267.784L270.953 266.361L272.111 267.528L269.53 270.11L262.74 263.32L265.344 260.715Z" fill="#E3B4C2" fill-opacity="0.13"/>
<path d="M271.753 263.884L270.117 265.52L269.53 266.107L266.743 263.32L267.339 262.724L269.53 260.532L272.317 263.32L271.753 263.884Z" fill="#E3B4C2" fill-opacity="0.13"/>
<path d="M269.53 300.436L268.139 301.826L266.981 300.659L269.53 298.11L276.32 304.9L273.748 307.472L272.589 306.305L273.994 304.9L269.53 300.436Z" fill="#E3B4C2" fill-opacity="0.13"/>
<path d="M265.344 302.295L266.503 303.462L265.066 304.9L269.53 309.364L270.953 307.941L272.111 309.108L269.53 311.69L262.74 304.9L265.344 302.295Z" fill="#E3B4C2" fill-opacity="0.13"/>
<path d="M271.753 305.464L270.117 307.1L269.53 307.687L266.743 304.9L267.339 304.303L269.53 302.112L272.317 304.9L271.753 305.464Z" fill="#E3B4C2" fill-opacity="0.13"/>
<path d="M269.53 342.016L268.139 343.406L266.981 342.239L269.53 339.69L276.32 346.48L273.748 349.052L272.589 347.885L273.994 346.48L269.53 342.016Z" fill="#E3B4C2" fill-opacity="0.13"/>
<path d="M265.344 343.875L266.503 345.042L265.066 346.48L269.53 350.944L270.953 349.521L272.111 350.688L269.53 353.27L262.74 346.48L265.344 343.875Z" fill="#E3B4C2" fill-opacity="0.13"/>
<path d="M271.753 347.044L270.117 348.68L269.53 349.267L266.743 346.48L267.339 345.883L269.53 343.692L272.317 346.48L271.753 347.044Z" fill="#E3B4C2" fill-opacity="0.13"/>
<path d="M269.53 383.596L268.139 384.986L266.981 383.819L269.53 381.27L276.32 388.06L273.748 390.632L272.589 389.465L273.994 388.06L269.53 383.596Z" fill="#E3B4C2" fill-opacity="0.13"/>
<path d="M265.344 385.455L266.503 386.622L265.066 388.06L269.53 392.524L270.953 391.101L272.111 392.268L269.53 394.85L262.74 388.06L265.344 385.455Z" fill="#E3B4C2" fill-opacity="0.13"/>
<path d="M271.753 388.624L270.117 390.26L269.53 390.847L266.743 388.06L267.339 387.463L269.53 385.272L272.317 388.06L271.753 388.624Z" fill="#E3B4C2" fill-opacity="0.13"/>
<path d="M269.53 425.176L268.139 426.566L266.981 425.399L269.53 422.85L276.32 429.64L273.748 432.212L272.589 431.045L273.994 429.64L269.53 425.176Z" fill="#E3B4C2" fill-opacity="0.13"/>
<path d="M265.344 427.035L266.503 428.202L265.066 429.64L269.53 434.104L270.953 432.681L272.111 433.848L269.53 436.43L262.74 429.64L265.344 427.035Z" fill="#E3B4C2" fill-opacity="0.13"/>
<path d="M271.753 430.204L270.117 431.84L269.53 432.427L266.743 429.64L267.339 429.043L269.53 426.852L272.317 429.64L271.753 430.204Z" fill="#E3B4C2" fill-opacity="0.13"/>
<path d="M269.53 466.756L268.139 468.146L266.981 466.979L269.53 464.43L276.32 471.22L273.748 473.792L272.589 472.625L273.994 471.22L269.53 466.756Z" fill="#E3B4C2" fill-opacity="0.13"/>
<path d="M265.344 468.615L266.503 469.782L265.066 471.22L269.53 475.684L270.953 474.261L272.111 475.428L269.53 478.01L262.74 471.22L265.344 468.615Z" fill="#E3B4C2" fill-opacity="0.13"/>
<path d="M271.753 471.784L270.117 473.42L269.53 474.007L266.743 471.22L267.339 470.623L269.53 468.432L272.317 471.22L271.753 471.784Z" fill="#E3B4C2" fill-opacity="0.13"/>
<path d="M269.53 508.336L268.139 509.726L266.981 508.559L269.53 506.01L276.32 512.8L273.748 515.372L272.589 514.205L273.994 512.8L269.53 508.336Z" fill="#E3B4C2" fill-opacity="0.13"/>
<path d="M265.344 510.195L266.503 511.362L265.066 512.8L269.53 517.264L270.953 515.841L272.111 517.008L269.53 519.59L262.74 512.8L265.344 510.195Z" fill="#E3B4C2" fill-opacity="0.13"/>
<path d="M271.753 513.364L270.117 515L269.53 515.587L266.743 512.8L267.339 512.203L269.53 510.012L272.317 512.8L271.753 513.364Z" fill="#E3B4C2" fill-opacity="0.13"/>
<path d="M269.53 549.916L268.139 551.306L266.981 550.139L269.53 547.59L276.32 554.38L273.748 556.952L272.589 555.785L273.994 554.38L269.53 549.916Z" fill="#E3B4C2" fill-opacity="0.13"/>
<path d="M265.344 551.775L266.503 552.942L265.066 554.38L269.53 558.843L270.953 557.421L272.111 558.588L269.53 561.17L262.74 554.38L265.344 551.775Z" fill="#E3B4C2" fill-opacity="0.13"/>
<path d="M271.753 554.944L270.117 556.58L269.53 557.167L266.743 554.38L267.339 553.783L269.53 551.592L272.317 554.38L271.753 554.944Z" fill="#E3B4C2" fill-opacity="0.13"/>
<path d="M347.11 196.486L345.719 197.876L344.56 196.709L347.11 194.16L353.9 200.95L351.328 203.522L350.168 202.355L351.574 200.95L347.11 196.486Z" fill="#E3B4C2" fill-opacity="0.13"/>
<path d="M342.924 198.346L344.083 199.512L342.646 200.95L347.11 205.414L348.532 203.992L349.691 205.158L347.11 207.74L340.32 200.95L342.924 198.346Z" fill="#E3B4C2" fill-opacity="0.13"/>
<path d="M349.333 201.514L347.697 203.15L347.11 203.737L344.323 200.95L344.919 200.354L347.11 198.162L349.897 200.95L349.333 201.514Z" fill="#E3B4C2" fill-opacity="0.13"/>
<path d="M347.11 238.066L345.719 239.456L344.56 238.289L347.11 235.74L353.9 242.53L351.328 245.102L350.168 243.935L351.574 242.53L347.11 238.066Z" fill="#E3B4C2" fill-opacity="0.13"/>
<path d="M342.924 239.926L344.083 241.092L342.646 242.53L347.11 246.994L348.532 245.571L349.691 246.738L347.11 249.32L340.32 242.53L342.924 239.926Z" fill="#E3B4C2" fill-opacity="0.13"/>
<path d="M349.333 243.094L347.697 244.73L347.11 245.317L344.323 242.53L344.919 241.934L347.11 239.742L349.897 242.53L349.333 243.094Z" fill="#E3B4C2" fill-opacity="0.13"/>
<path d="M347.11 279.646L345.719 281.036L344.56 279.869L347.11 277.32L353.9 284.11L351.328 286.682L350.168 285.515L351.574 284.11L347.11 279.646Z" fill="#E3B4C2" fill-opacity="0.13"/>
<path d="M342.924 281.505L344.083 282.672L342.646 284.11L347.11 288.574L348.532 287.151L349.691 288.318L347.11 290.9L340.32 284.11L342.924 281.505Z" fill="#E3B4C2" fill-opacity="0.13"/>
<path d="M349.333 284.674L347.697 286.31L347.11 286.897L344.323 284.11L344.919 283.513L347.11 281.322L349.897 284.11L349.333 284.674Z" fill="#E3B4C2" fill-opacity="0.13"/>
<path d="M347.11 321.226L345.719 322.616L344.56 321.449L347.11 318.9L353.9 325.69L351.328 328.262L350.168 327.095L351.574 325.69L347.11 321.226Z" fill="#E3B4C2" fill-opacity="0.13"/>
<path d="M342.924 323.085L344.083 324.252L342.646 325.69L347.11 330.154L348.532 328.731L349.691 329.898L347.11 332.48L340.32 325.69L342.924 323.085Z" fill="#E3B4C2" fill-opacity="0.13"/>
<path d="M349.333 326.254L347.697 327.89L347.11 328.477L344.323 325.69L344.919 325.093L347.11 322.902L349.897 325.69L349.333 326.254Z" fill="#E3B4C2" fill-opacity="0.13"/>
<path d="M347.11 362.806L345.719 364.196L344.56 363.029L347.11 360.48L353.9 367.27L351.328 369.842L350.168 368.675L351.574 367.27L347.11 362.806Z" fill="#E3B4C2" fill-opacity="0.13"/>
<path d="M342.924 364.665L344.083 365.832L342.646 367.27L347.11 371.734L348.532 370.311L349.691 371.478L347.11 374.06L340.32 367.27L342.924 364.665Z" fill="#E3B4C2" fill-opacity="0.13"/>
<path d="M349.333 367.834L347.697 369.47L347.11 370.057L344.323 367.27L344.919 366.673L347.11 364.482L349.897 367.27L349.333 367.834Z" fill="#E3B4C2" fill-opacity="0.13"/>
<path d="M347.11 404.386L345.719 405.776L344.56 404.609L347.11 402.06L353.9 408.85L351.328 411.422L350.168 410.255L351.574 408.85L347.11 404.386Z" fill="#E3B4C2" fill-opacity="0.13"/>
<path d="M342.924 406.245L344.083 407.412L342.646 408.85L347.11 413.314L348.532 411.891L349.691 413.058L347.11 415.64L340.32 408.85L342.924 406.245Z" fill="#E3B4C2" fill-opacity="0.13"/>
<path d="M349.333 409.414L347.697 411.05L347.11 411.637L344.323 408.85L344.919 408.253L347.11 406.062L349.897 408.85L349.333 409.414Z" fill="#E3B4C2" fill-opacity="0.13"/>
<path d="M347.11 445.966L345.719 447.356L344.56 446.189L347.11 443.64L353.9 450.43L351.328 453.002L350.168 451.835L351.574 450.43L347.11 445.966Z" fill="#E3B4C2" fill-opacity="0.13"/>
<path d="M342.924 447.825L344.083 448.992L342.646 450.43L347.11 454.894L348.532 453.471L349.691 454.638L347.11 457.22L340.32 450.43L342.924 447.825Z" fill="#E3B4C2" fill-opacity="0.13"/>
<path d="M349.333 450.994L347.697 452.63L347.11 453.217L344.323 450.43L344.919 449.833L347.11 447.642L349.897 450.43L349.333 450.994Z" fill="#E3B4C2" fill-opacity="0.13"/>
<path d="M347.11 487.546L345.719 488.936L344.56 487.769L347.11 485.22L353.9 492.01L351.328 494.582L350.168 493.415L351.574 492.01L347.11 487.546Z" fill="#E3B4C2" fill-opacity="0.13"/>
<path d="M342.924 489.405L344.083 490.572L342.646 492.01L347.11 496.474L348.532 495.051L349.691 496.218L347.11 498.8L340.32 492.01L342.924 489.405Z" fill="#E3B4C2" fill-opacity="0.13"/>
<path d="M349.333 492.574L347.697 494.21L347.11 494.797L344.323 492.01L344.919 491.413L347.11 489.222L349.897 492.01L349.333 492.574Z" fill="#E3B4C2" fill-opacity="0.13"/>
<path d="M347.11 529.126L345.719 530.516L344.56 529.349L347.11 526.8L353.9 533.59L351.328 536.162L350.168 534.995L351.574 533.59L347.11 529.126Z" fill="#E3B4C2" fill-opacity="0.13"/>
<path d="M342.924 530.985L344.083 532.152L342.646 533.59L347.11 538.053L348.532 536.631L349.691 537.798L347.11 540.38L340.32 533.59L342.924 530.985Z" fill="#E3B4C2" fill-opacity="0.13"/>
<path d="M349.333 534.154L347.697 535.79L347.11 536.377L344.323 533.59L344.919 532.993L347.11 530.802L349.897 533.59L349.333 534.154Z" fill="#E3B4C2" fill-opacity="0.13"/>
<path d="M424.69 175.696L423.299 177.086L422.14 175.919L424.69 173.37L431.48 180.16L428.908 182.732L427.748 181.565L429.154 180.16L424.69 175.696Z" fill="#E3B4C2" fill-opacity="0.13"/>
<path d="M420.504 177.556L421.663 178.722L420.226 180.16L424.69 184.624L426.112 183.202L427.271 184.368L424.69 186.95L417.9 180.16L420.504 177.556Z" fill="#E3B4C2" fill-opacity="0.13"/>
<path d="M426.913 180.724L425.277 182.36L424.69 182.947L421.903 180.16L422.499 179.564L424.69 177.372L427.477 180.16L426.913 180.724Z" fill="#E3B4C2" fill-opacity="0.13"/>
<path d="M424.69 217.276L423.299 218.666L422.14 217.499L424.69 214.95L431.48 221.74L428.908 224.312L427.748 223.145L429.154 221.74L424.69 217.276Z" fill="#E3B4C2" fill-opacity="0.13"/>
<path d="M420.504 219.136L421.663 220.302L420.226 221.74L424.69 226.204L426.112 224.781L427.271 225.948L424.69 228.53L417.9 221.74L420.504 219.136Z" fill="#E3B4C2" fill-opacity="0.13"/>
<path d="M426.913 222.304L425.277 223.94L424.69 224.527L421.903 221.74L422.499 221.144L424.69 218.952L427.477 221.74L426.913 222.304Z" fill="#E3B4C2" fill-opacity="0.13"/>
<path d="M424.69 258.856L423.299 260.246L422.14 259.079L424.69 256.53L431.48 263.32L428.908 265.892L427.748 264.725L429.154 263.32L424.69 258.856Z" fill="#E3B4C2" fill-opacity="0.13"/>
<path d="M420.504 260.715L421.663 261.882L420.226 263.32L424.69 267.784L426.112 266.361L427.271 267.528L424.69 270.11L417.9 263.32L420.504 260.715Z" fill="#E3B4C2" fill-opacity="0.13"/>
<path d="M426.913 263.884L425.277 265.52L424.69 266.107L421.903 263.32L422.499 262.724L424.69 260.532L427.477 263.32L426.913 263.884Z" fill="#E3B4C2" fill-opacity="0.13"/>
<path d="M424.69 300.436L423.299 301.826L422.14 300.659L424.69 298.11L431.48 304.9L428.908 307.472L427.748 306.305L429.154 304.9L424.69 300.436Z" fill="#E3B4C2" fill-opacity="0.13"/>
<path d="M420.504 302.295L421.663 303.462L420.226 304.9L424.69 309.364L426.112 307.941L427.271 309.108L424.69 311.69L417.9 304.9L420.504 302.295Z" fill="#E3B4C2" fill-opacity="0.13"/>
<path d="M426.913 305.464L425.277 307.1L424.69 307.687L421.903 304.9L422.499 304.303L424.69 302.112L427.477 304.9L426.913 305.464Z" fill="#E3B4C2" fill-opacity="0.13"/>
<path d="M424.69 342.016L423.299 343.406L422.14 342.239L424.69 339.69L431.48 346.48L428.908 349.052L427.748 347.885L429.154 346.48L424.69 342.016Z" fill="#E3B4C2" fill-opacity="0.13"/>
<path d="M420.504 343.875L421.663 345.042L420.226 346.48L424.69 350.944L426.112 349.521L427.271 350.688L424.69 353.27L417.9 346.48L420.504 343.875Z" fill="#E3B4C2" fill-opacity="0.13"/>
<path d="M426.913 347.044L425.277 348.68L424.69 349.267L421.903 346.48L422.499 345.883L424.69 343.692L427.477 346.48L426.913 347.044Z" fill="#E3B4C2" fill-opacity="0.13"/>
<path d="M424.69 383.596L423.299 384.986L422.14 383.819L424.69 381.27L431.48 388.06L428.908 390.632L427.748 389.465L429.154 388.06L424.69 383.596Z" fill="#E3B4C2" fill-opacity="0.13"/>
<path d="M420.504 385.455L421.663 386.622L420.226 388.06L424.69 392.524L426.112 391.101L427.271 392.268L424.69 394.85L417.9 388.06L420.504 385.455Z" fill="#E3B4C2" fill-opacity="0.13"/>
<path d="M426.913 388.624L425.277 390.26L424.69 390.847L421.903 388.06L422.499 387.463L424.69 385.272L427.477 388.06L426.913 388.624Z" fill="#E3B4C2" fill-opacity="0.13"/>
<path d="M424.69 425.176L423.299 426.566L422.14 425.399L424.69 422.85L431.48 429.64L428.908 432.212L427.748 431.045L429.154 429.64L424.69 425.176Z" fill="#E3B4C2" fill-opacity="0.13"/>
<path d="M420.504 427.035L421.663 428.202L420.226 429.64L424.69 434.104L426.112 432.681L427.271 433.848L424.69 436.43L417.9 429.64L420.504 427.035Z" fill="#E3B4C2" fill-opacity="0.13"/>
<path d="M426.913 430.204L425.277 431.84L424.69 432.427L421.903 429.64L422.499 429.043L424.69 426.852L427.477 429.64L426.913 430.204Z" fill="#E3B4C2" fill-opacity="0.13"/>
<path d="M424.69 466.756L423.299 468.146L422.14 466.979L424.69 464.43L431.48 471.22L428.908 473.792L427.748 472.625L429.154 471.22L424.69 466.756Z" fill="#E3B4C2" fill-opacity="0.13"/>
<path d="M420.504 468.615L421.663 469.782L420.226 471.22L424.69 475.684L426.112 474.261L427.271 475.428L424.69 478.01L417.9 471.22L420.504 468.615Z" fill="#E3B4C2" fill-opacity="0.13"/>
<path d="M426.913 471.784L425.277 473.42L424.69 474.007L421.903 471.22L422.499 470.623L424.69 468.432L427.477 471.22L426.913 471.784Z" fill="#E3B4C2" fill-opacity="0.13"/>
<path d="M424.69 508.336L423.299 509.726L422.14 508.559L424.69 506.01L431.48 512.8L428.908 515.372L427.748 514.205L429.154 512.8L424.69 508.336Z" fill="#E3B4C2" fill-opacity="0.13"/>
<path d="M420.504 510.195L421.663 511.362L420.226 512.8L424.69 517.264L426.112 515.841L427.271 517.008L424.69 519.59L417.9 512.8L420.504 510.195Z" fill="#E3B4C2" fill-opacity="0.13"/>
<path d="M426.913 513.364L425.277 515L424.69 515.587L421.903 512.8L422.499 512.203L424.69 510.012L427.477 512.8L426.913 513.364Z" fill="#E3B4C2" fill-opacity="0.13"/>
<path d="M424.69 549.916L423.299 551.306L422.14 550.139L424.69 547.59L431.48 554.38L428.908 556.952L427.748 555.785L429.154 554.38L424.69 549.916Z" fill="#E3B4C2" fill-opacity="0.13"/>
<path d="M420.504 551.775L421.663 552.942L420.226 554.38L424.69 558.843L426.112 557.421L427.271 558.588L424.69 561.17L417.9 554.38L420.504 551.775Z" fill="#E3B4C2" fill-opacity="0.13"/>
<path d="M426.913 554.944L425.277 556.58L424.69 557.167L421.903 554.38L422.499 553.783L424.69 551.592L427.477 554.38L426.913 554.944Z" fill="#E3B4C2" fill-opacity="0.13"/>
<path d="M502.27 134.116L500.879 135.506L499.72 134.339L502.27 131.79L509.06 138.58L506.488 141.152L505.328 139.985L506.734 138.58L502.27 134.116Z" fill="#E3B4C2" fill-opacity="0.13"/>
<path d="M498.084 135.976L499.243 137.142L497.806 138.58L502.27 143.044L503.692 141.622L504.851 142.788L502.27 145.37L495.48 138.58L498.084 135.976Z" fill="#E3B4C2" fill-opacity="0.13"/>
<path d="M504.493 139.144L502.857 140.78L502.27 141.367L499.483 138.58L500.079 137.984L502.27 135.792L505.057 138.58L504.493 139.144Z" fill="#E3B4C2" fill-opacity="0.13"/>
<path d="M502.27 175.696L500.879 177.086L499.72 175.919L502.27 173.37L509.06 180.16L506.488 182.732L505.328 181.565L506.734 180.16L502.27 175.696Z" fill="#E3B4C2" fill-opacity="0.13"/>
<path d="M498.084 177.556L499.243 178.722L497.806 180.16L502.27 184.624L503.692 183.202L504.851 184.368L502.27 186.95L495.48 180.16L498.084 177.556Z" fill="#E3B4C2" fill-opacity="0.13"/>
<path d="M504.493 180.724L502.857 182.36L502.27 182.947L499.483 180.16L500.079 179.564L502.27 177.372L505.057 180.16L504.493 180.724Z" fill="#E3B4C2" fill-opacity="0.13"/>
<path d="M502.27 217.276L500.879 218.666L499.72 217.499L502.27 214.95L509.06 221.74L506.488 224.312L505.328 223.145L506.734 221.74L502.27 217.276Z" fill="#E3B4C2" fill-opacity="0.13"/>
<path d="M498.084 219.136L499.243 220.302L497.806 221.74L502.27 226.204L503.692 224.781L504.851 225.948L502.27 228.53L495.48 221.74L498.084 219.136Z" fill="#E3B4C2" fill-opacity="0.13"/>
<path d="M504.493 222.304L502.857 223.94L502.27 224.527L499.483 221.74L500.079 221.144L502.27 218.952L505.057 221.74L504.493 222.304Z" fill="#E3B4C2" fill-opacity="0.13"/>
<path d="M502.27 258.856L500.879 260.246L499.72 259.079L502.27 256.53L509.06 263.32L506.488 265.892L505.328 264.725L506.734 263.32L502.27 258.856Z" fill="#E3B4C2" fill-opacity="0.13"/>
<path d="M498.084 260.715L499.243 261.882L497.806 263.32L502.27 267.784L503.692 266.361L504.851 267.528L502.27 270.11L495.48 263.32L498.084 260.715Z" fill="#E3B4C2" fill-opacity="0.13"/>
<path d="M504.493 263.884L502.857 265.52L502.27 266.107L499.483 263.32L500.079 262.724L502.27 260.532L505.057 263.32L504.493 263.884Z" fill="#E3B4C2" fill-opacity="0.13"/>
<path d="M502.27 300.436L500.879 301.826L499.72 300.659L502.27 298.11L509.06 304.9L506.488 307.472L505.328 306.305L506.734 304.9L502.27 300.436Z" fill="#E3B4C2" fill-opacity="0.13"/>
<path d="M498.084 302.295L499.243 303.462L497.806 304.9L502.27 309.364L503.692 307.941L504.851 309.108L502.27 311.69L495.48 304.9L498.084 302.295Z" fill="#E3B4C2" fill-opacity="0.13"/>
<path d="M504.493 305.464L502.857 307.1L502.27 307.687L499.483 304.9L500.079 304.303L502.27 302.112L505.057 304.9L504.493 305.464Z" fill="#E3B4C2" fill-opacity="0.13"/>
<path d="M502.27 342.016L500.879 343.406L499.72 342.239L502.27 339.69L509.06 346.48L506.488 349.052L505.328 347.885L506.734 346.48L502.27 342.016Z" fill="#E3B4C2" fill-opacity="0.13"/>
<path d="M498.084 343.875L499.243 345.042L497.806 346.48L502.27 350.944L503.692 349.521L504.851 350.688L502.27 353.27L495.48 346.48L498.084 343.875Z" fill="#E3B4C2" fill-opacity="0.13"/>
<path d="M504.493 347.044L502.857 348.68L502.27 349.267L499.483 346.48L500.079 345.883L502.27 343.692L505.057 346.48L504.493 347.044Z" fill="#E3B4C2" fill-opacity="0.13"/>
<path d="M502.27 383.596L500.879 384.986L499.72 383.819L502.27 381.27L509.06 388.06L506.488 390.632L505.328 389.465L506.734 388.06L502.27 383.596Z" fill="#E3B4C2" fill-opacity="0.13"/>
<path d="M498.084 385.455L499.243 386.622L497.806 388.06L502.27 392.524L503.692 391.101L504.851 392.268L502.27 394.85L495.48 388.06L498.084 385.455Z" fill="#E3B4C2" fill-opacity="0.13"/>
<path d="M504.493 388.624L502.857 390.26L502.27 390.847L499.483 388.06L500.079 387.463L502.27 385.272L505.057 388.06L504.493 388.624Z" fill="#E3B4C2" fill-opacity="0.13"/>
<path d="M502.27 425.176L500.879 426.566L499.72 425.399L502.27 422.85L509.06 429.64L506.488 432.212L505.328 431.045L506.734 429.64L502.27 425.176Z" fill="#E3B4C2" fill-opacity="0.13"/>
<path d="M498.084 427.035L499.243 428.202L497.806 429.64L502.27 434.104L503.692 432.681L504.851 433.848L502.27 436.43L495.48 429.64L498.084 427.035Z" fill="#E3B4C2" fill-opacity="0.13"/>
<path d="M504.493 430.204L502.857 431.84L502.27 432.427L499.483 429.64L500.079 429.043L502.27 426.852L505.057 429.64L504.493 430.204Z" fill="#E3B4C2" fill-opacity="0.13"/>
<path d="M502.27 466.756L500.879 468.146L499.72 466.979L502.27 464.43L509.06 471.22L506.488 473.792L505.328 472.625L506.734 471.22L502.27 466.756Z" fill="#E3B4C2" fill-opacity="0.13"/>
<path d="M498.084 468.615L499.243 469.782L497.806 471.22L502.27 475.684L503.692 474.261L504.851 475.428L502.27 478.01L495.48 471.22L498.084 468.615Z" fill="#E3B4C2" fill-opacity="0.13"/>
<path d="M504.493 471.784L502.857 473.42L502.27 474.007L499.483 471.22L500.079 470.623L502.27 468.432L505.057 471.22L504.493 471.784Z" fill="#E3B4C2" fill-opacity="0.13"/>
<path d="M502.27 508.336L500.879 509.726L499.72 508.559L502.27 506.01L509.06 512.8L506.488 515.372L505.328 514.205L506.734 512.8L502.27 508.336Z" fill="#E3B4C2" fill-opacity="0.13"/>
<path d="M498.084 510.195L499.243 511.362L497.806 512.8L502.27 517.264L503.692 515.841L504.851 517.008L502.27 519.59L495.48 512.8L498.084 510.195Z" fill="#E3B4C2" fill-opacity="0.13"/>
<path d="M504.493 513.364L502.857 515L502.27 515.587L499.483 512.8L500.079 512.203L502.27 510.012L505.057 512.8L504.493 513.364Z" fill="#E3B4C2" fill-opacity="0.13"/>
<path d="M502.27 549.916L500.879 551.306L499.72 550.139L502.27 547.59L509.06 554.38L506.488 556.952L505.328 555.785L506.734 554.38L502.27 549.916Z" fill="#E3B4C2" fill-opacity="0.13"/>
<path d="M498.084 551.775L499.243 552.942L497.806 554.38L502.27 558.843L503.692 557.421L504.851 558.588L502.27 561.17L495.48 554.38L498.084 551.775Z" fill="#E3B4C2" fill-opacity="0.13"/>
<path d="M504.493 554.944L502.857 556.58L502.27 557.167L499.483 554.38L500.079 553.783L502.27 551.592L505.057 554.38L504.493 554.944Z" fill="#E3B4C2" fill-opacity="0.13"/>
<path d="M579.85 113.326L578.459 114.716L577.3 113.549L579.85 111L586.64 117.79L584.068 120.362L582.908 119.195L584.314 117.79L579.85 113.326Z" fill="#E3B4C2" fill-opacity="0.13"/>
<path d="M575.664 115.186L576.823 116.352L575.386 117.79L579.85 122.254L581.272 120.832L582.431 121.998L579.85 124.58L573.06 117.79L575.664 115.186Z" fill="#E3B4C2" fill-opacity="0.13"/>
<path d="M582.073 118.354L580.437 119.99L579.85 120.577L577.063 117.79L577.659 117.194L579.85 115.002L582.637 117.79L582.073 118.354Z" fill="#E3B4C2" fill-opacity="0.13"/>
<path d="M579.85 154.906L578.459 156.296L577.3 155.129L579.85 152.58L586.64 159.37L584.068 161.942L582.908 160.775L584.314 159.37L579.85 154.906Z" fill="#E3B4C2" fill-opacity="0.13"/>
<path d="M575.664 156.766L576.823 157.932L575.386 159.37L579.85 163.834L581.272 162.412L582.431 163.578L579.85 166.16L573.06 159.37L575.664 156.766Z" fill="#E3B4C2" fill-opacity="0.13"/>
<path d="M582.073 159.934L580.437 161.57L579.85 162.157L577.063 159.37L577.659 158.774L579.85 156.582L582.637 159.37L582.073 159.934Z" fill="#E3B4C2" fill-opacity="0.13"/>
<path d="M579.85 196.486L578.459 197.876L577.3 196.709L579.85 194.16L586.64 200.95L584.068 203.522L582.908 202.355L584.314 200.95L579.85 196.486Z" fill="#E3B4C2" fill-opacity="0.13"/>
<path d="M575.664 198.346L576.823 199.512L575.386 200.95L579.85 205.414L581.272 203.992L582.431 205.158L579.85 207.74L573.06 200.95L575.664 198.346Z" fill="#E3B4C2" fill-opacity="0.13"/>
<path d="M582.073 201.514L580.437 203.15L579.85 203.737L577.063 200.95L577.659 200.354L579.85 198.162L582.637 200.95L582.073 201.514Z" fill="#E3B4C2" fill-opacity="0.13"/>
<path d="M579.85 238.066L578.459 239.456L577.3 238.289L579.85 235.74L586.64 242.53L584.068 245.102L582.908 243.935L584.314 242.53L579.85 238.066Z" fill="#E3B4C2" fill-opacity="0.13"/>
<path d="M575.664 239.926L576.823 241.092L575.386 242.53L579.85 246.994L581.272 245.571L582.431 246.738L579.85 249.32L573.06 242.53L575.664 239.926Z" fill="#E3B4C2" fill-opacity="0.13"/>
<path d="M582.073 243.094L580.437 244.73L579.85 245.317L577.063 242.53L577.659 241.934L579.85 239.742L582.637 242.53L582.073 243.094Z" fill="#E3B4C2" fill-opacity="0.13"/>
<path d="M579.85 279.646L578.459 281.036L577.3 279.869L579.85 277.32L586.64 284.11L584.068 286.682L582.908 285.515L584.314 284.11L579.85 279.646Z" fill="#E3B4C2" fill-opacity="0.13"/>
<path d="M575.664 281.505L576.823 282.672L575.386 284.11L579.85 288.574L581.272 287.151L582.431 288.318L579.85 290.9L573.06 284.11L575.664 281.505Z" fill="#E3B4C2" fill-opacity="0.13"/>
<path d="M582.073 284.674L580.437 286.31L579.85 286.897L577.063 284.11L577.659 283.513L579.85 281.322L582.637 284.11L582.073 284.674Z" fill="#E3B4C2" fill-opacity="0.13"/>
<path d="M579.85 321.226L578.459 322.616L577.3 321.449L579.85 318.9L586.64 325.69L584.068 328.262L582.908 327.095L584.314 325.69L579.85 321.226Z" fill="#E3B4C2" fill-opacity="0.13"/>
<path d="M575.664 323.085L576.823 324.252L575.386 325.69L579.85 330.154L581.272 328.731L582.431 329.898L579.85 332.48L573.06 325.69L575.664 323.085Z" fill="#E3B4C2" fill-opacity="0.13"/>
<path d="M582.073 326.254L580.437 327.89L579.85 328.477L577.063 325.69L577.659 325.093L579.85 322.902L582.637 325.69L582.073 326.254Z" fill="#E3B4C2" fill-opacity="0.13"/>
<path d="M579.85 362.806L578.459 364.196L577.3 363.029L579.85 360.48L586.64 367.27L584.068 369.842L582.908 368.675L584.314 367.27L579.85 362.806Z" fill="#E3B4C2" fill-opacity="0.13"/>
<path d="M575.664 364.665L576.823 365.832L575.386 367.27L579.85 371.734L581.272 370.311L582.431 371.478L579.85 374.06L573.06 367.27L575.664 364.665Z" fill="#E3B4C2" fill-opacity="0.13"/>
<path d="M582.073 367.834L580.437 369.47L579.85 370.057L577.063 367.27L577.659 366.673L579.85 364.482L582.637 367.27L582.073 367.834Z" fill="#E3B4C2" fill-opacity="0.13"/>
<path d="M579.85 404.386L578.459 405.776L577.3 404.609L579.85 402.06L586.64 408.85L584.068 411.422L582.908 410.255L584.314 408.85L579.85 404.386Z" fill="#E3B4C2" fill-opacity="0.13"/>
<path d="M575.664 406.245L576.823 407.412L575.386 408.85L579.85 413.314L581.272 411.891L582.431 413.058L579.85 415.64L573.06 408.85L575.664 406.245Z" fill="#E3B4C2" fill-opacity="0.13"/>
<path d="M582.073 409.414L580.437 411.05L579.85 411.637L577.063 408.85L577.659 408.253L579.85 406.062L582.637 408.85L582.073 409.414Z" fill="#E3B4C2" fill-opacity="0.13"/>
<path d="M579.85 445.966L578.459 447.356L577.3 446.189L579.85 443.64L586.64 450.43L584.068 453.002L582.908 451.835L584.314 450.43L579.85 445.966Z" fill="#E3B4C2" fill-opacity="0.13"/>
<path d="M575.664 447.825L576.823 448.992L575.386 450.43L579.85 454.894L581.272 453.471L582.431 454.638L579.85 457.22L573.06 450.43L575.664 447.825Z" fill="#E3B4C2" fill-opacity="0.13"/>
<path d="M582.073 450.994L580.437 452.63L579.85 453.217L577.063 450.43L577.659 449.833L579.85 447.642L582.637 450.43L582.073 450.994Z" fill="#E3B4C2" fill-opacity="0.13"/>
<path d="M579.85 487.546L578.459 488.936L577.3 487.769L579.85 485.22L586.64 492.01L584.068 494.582L582.908 493.415L584.314 492.01L579.85 487.546Z" fill="#E3B4C2" fill-opacity="0.13"/>
<path d="M575.664 489.405L576.823 490.572L575.386 492.01L579.85 496.474L581.272 495.051L582.431 496.218L579.85 498.8L573.06 492.01L575.664 489.405Z" fill="#E3B4C2" fill-opacity="0.13"/>
<path d="M582.073 492.574L580.437 494.21L579.85 494.797L577.063 492.01L577.659 491.413L579.85 489.222L582.637 492.01L582.073 492.574Z" fill="#E3B4C2" fill-opacity="0.13"/>
<path d="M579.85 529.126L578.459 530.516L577.3 529.349L579.85 526.8L586.64 533.59L584.068 536.162L582.908 534.995L584.314 533.59L579.85 529.126Z" fill="#E3B4C2" fill-opacity="0.13"/>
<path d="M575.664 530.985L576.823 532.152L575.386 533.59L579.85 538.053L581.272 536.631L582.431 537.798L579.85 540.38L573.06 533.59L575.664 530.985Z" fill="#E3B4C2" fill-opacity="0.13"/>
<path d="M582.073 534.154L580.437 535.79L579.85 536.377L577.063 533.59L577.659 532.993L579.85 530.802L582.637 533.59L582.073 534.154Z" fill="#E3B4C2" fill-opacity="0.13"/>
<path d="M657.43 134.116L656.039 135.506L654.88 134.339L657.43 131.79L664.22 138.58L661.648 141.152L660.488 139.985L661.894 138.58L657.43 134.116Z" fill="#E3B4C2" fill-opacity="0.13"/>
<path d="M653.244 135.976L654.403 137.142L652.966 138.58L657.43 143.044L658.852 141.622L660.011 142.788L657.43 145.37L650.64 138.58L653.244 135.976Z" fill="#E3B4C2" fill-opacity="0.13"/>
<path d="M659.653 139.144L658.017 140.78L657.43 141.367L654.643 138.58L655.239 137.984L657.43 135.792L660.217 138.58L659.653 139.144Z" fill="#E3B4C2" fill-opacity="0.13"/>
<path d="M657.43 175.696L656.039 177.086L654.88 175.919L657.43 173.37L664.22 180.16L661.648 182.732L660.488 181.565L661.894 180.16L657.43 175.696Z" fill="#E3B4C2" fill-opacity="0.13"/>
<path d="M653.244 177.556L654.403 178.722L652.966 180.16L657.43 184.624L658.852 183.202L660.011 184.368L657.43 186.95L650.64 180.16L653.244 177.556Z" fill="#E3B4C2" fill-opacity="0.13"/>
<path d="M659.653 180.724L658.017 182.36L657.43 182.947L654.643 180.16L655.239 179.564L657.43 177.372L660.217 180.16L659.653 180.724Z" fill="#E3B4C2" fill-opacity="0.13"/>
<path d="M657.43 217.276L656.039 218.666L654.88 217.499L657.43 214.95L664.22 221.74L661.648 224.312L660.488 223.145L661.894 221.74L657.43 217.276Z" fill="#E3B4C2" fill-opacity="0.13"/>
<path d="M653.244 219.136L654.403 220.302L652.966 221.74L657.43 226.204L658.852 224.781L660.011 225.948L657.43 228.53L650.64 221.74L653.244 219.136Z" fill="#E3B4C2" fill-opacity="0.13"/>
<path d="M659.653 222.304L658.017 223.94L657.43 224.527L654.643 221.74L655.239 221.144L657.43 218.952L660.217 221.74L659.653 222.304Z" fill="#E3B4C2" fill-opacity="0.13"/>
<path d="M657.43 258.856L656.039 260.246L654.88 259.079L657.43 256.53L664.22 263.32L661.648 265.892L660.488 264.725L661.894 263.32L657.43 258.856Z" fill="#E3B4C2" fill-opacity="0.13"/>
<path d="M653.244 260.715L654.403 261.882L652.966 263.32L657.43 267.784L658.852 266.361L660.011 267.528L657.43 270.11L650.64 263.32L653.244 260.715Z" fill="#E3B4C2" fill-opacity="0.13"/>
<path d="M659.653 263.884L658.017 265.52L657.43 266.107L654.643 263.32L655.239 262.724L657.43 260.532L660.217 263.32L659.653 263.884Z" fill="#E3B4C2" fill-opacity="0.13"/>
<path d="M657.43 300.436L656.039 301.826L654.88 300.659L657.43 298.11L664.22 304.9L661.648 307.472L660.488 306.305L661.894 304.9L657.43 300.436Z" fill="#E3B4C2" fill-opacity="0.13"/>
<path d="M653.244 302.295L654.403 303.462L652.966 304.9L657.43 309.364L658.852 307.941L660.011 309.108L657.43 311.69L650.64 304.9L653.244 302.295Z" fill="#E3B4C2" fill-opacity="0.13"/>
<path d="M659.653 305.464L658.017 307.1L657.43 307.687L654.643 304.9L655.239 304.303L657.43 302.112L660.217 304.9L659.653 305.464Z" fill="#E3B4C2" fill-opacity="0.13"/>
<path d="M657.43 342.016L656.039 343.406L654.88 342.239L657.43 339.69L664.22 346.48L661.648 349.052L660.488 347.885L661.894 346.48L657.43 342.016Z" fill="#E3B4C2" fill-opacity="0.13"/>
<path d="M653.244 343.875L654.403 345.042L652.966 346.48L657.43 350.944L658.852 349.521L660.011 350.688L657.43 353.27L650.64 346.48L653.244 343.875Z" fill="#E3B4C2" fill-opacity="0.13"/>
<path d="M659.653 347.044L658.017 348.68L657.43 349.267L654.643 346.48L655.239 345.883L657.43 343.692L660.217 346.48L659.653 347.044Z" fill="#E3B4C2" fill-opacity="0.13"/>
<path d="M657.43 383.596L656.039 384.986L654.88 383.819L657.43 381.27L664.22 388.06L661.648 390.632L660.488 389.465L661.894 388.06L657.43 383.596Z" fill="#E3B4C2" fill-opacity="0.13"/>
<path d="M653.244 385.455L654.403 386.622L652.966 388.06L657.43 392.524L658.852 391.101L660.011 392.268L657.43 394.85L650.64 388.06L653.244 385.455Z" fill="#E3B4C2" fill-opacity="0.13"/>
<path d="M659.653 388.624L658.017 390.26L657.43 390.847L654.643 388.06L655.239 387.463L657.43 385.272L660.217 388.06L659.653 388.624Z" fill="#E3B4C2" fill-opacity="0.13"/>
<path d="M657.43 425.176L656.039 426.566L654.88 425.399L657.43 422.85L664.22 429.64L661.648 432.212L660.488 431.045L661.894 429.64L657.43 425.176Z" fill="#E3B4C2" fill-opacity="0.13"/>
<path d="M653.244 427.035L654.403 428.202L652.966 429.64L657.43 434.104L658.852 432.681L660.011 433.848L657.43 436.43L650.64 429.64L653.244 427.035Z" fill="#E3B4C2" fill-opacity="0.13"/>
<path d="M659.653 430.204L658.017 431.84L657.43 432.427L654.643 429.64L655.239 429.043L657.43 426.852L660.217 429.64L659.653 430.204Z" fill="#E3B4C2" fill-opacity="0.13"/>
<path d="M657.43 466.756L656.039 468.146L654.88 466.979L657.43 464.43L664.22 471.22L661.648 473.792L660.488 472.625L661.894 471.22L657.43 466.756Z" fill="#E3B4C2" fill-opacity="0.13"/>
<path d="M653.244 468.615L654.403 469.782L652.966 471.22L657.43 475.684L658.852 474.261L660.011 475.428L657.43 478.01L650.64 471.22L653.244 468.615Z" fill="#E3B4C2" fill-opacity="0.13"/>
<path d="M659.653 471.784L658.017 473.42L657.43 474.007L654.643 471.22L655.239 470.623L657.43 468.432L660.217 471.22L659.653 471.784Z" fill="#E3B4C2" fill-opacity="0.13"/>
<path d="M657.43 508.336L656.039 509.726L654.88 508.559L657.43 506.01L664.22 512.8L661.648 515.372L660.488 514.205L661.894 512.8L657.43 508.336Z" fill="#E3B4C2" fill-opacity="0.13"/>
<path d="M653.244 510.195L654.403 511.362L652.966 512.8L657.43 517.264L658.852 515.841L660.011 517.008L657.43 519.59L650.64 512.8L653.244 510.195Z" fill="#E3B4C2" fill-opacity="0.13"/>
<path d="M659.653 513.364L658.017 515L657.43 515.587L654.643 512.8L655.239 512.203L657.43 510.012L660.217 512.8L659.653 513.364Z" fill="#E3B4C2" fill-opacity="0.13"/>
<path d="M657.43 549.916L656.039 551.306L654.88 550.139L657.43 547.59L664.22 554.38L661.648 556.952L660.488 555.785L661.894 554.38L657.43 549.916Z" fill="#E3B4C2" fill-opacity="0.13"/>
<path d="M653.244 551.775L654.403 552.942L652.966 554.38L657.43 558.843L658.852 557.421L660.011 558.588L657.43 561.17L650.64 554.38L653.244 551.775Z" fill="#E3B4C2" fill-opacity="0.13"/>
<path d="M659.653 554.944L658.017 556.58L657.43 557.167L654.643 554.38L655.239 553.783L657.43 551.592L660.217 554.38L659.653 554.944Z" fill="#E3B4C2" fill-opacity="0.13"/>
<path d="M735.01 134.116L733.619 135.506L732.46 134.339L735.01 131.79L741.8 138.58L739.228 141.152L738.068 139.985L739.474 138.58L735.01 134.116Z" fill="#E3B4C2" fill-opacity="0.13"/>
<path d="M730.824 135.976L731.983 137.142L730.546 138.58L735.01 143.044L736.432 141.622L737.591 142.788L735.01 145.37L728.22 138.58L730.824 135.976Z" fill="#E3B4C2" fill-opacity="0.13"/>
<path d="M737.233 139.144L735.597 140.78L735.01 141.367L732.223 138.58L732.819 137.984L735.01 135.792L737.797 138.58L737.233 139.144Z" fill="#E3B4C2" fill-opacity="0.13"/>
<path d="M735.01 175.696L733.619 177.086L732.46 175.919L735.01 173.37L741.8 180.16L739.228 182.732L738.068 181.565L739.474 180.16L735.01 175.696Z" fill="#E3B4C2" fill-opacity="0.13"/>
<path d="M730.824 177.556L731.983 178.722L730.546 180.16L735.01 184.624L736.432 183.202L737.591 184.368L735.01 186.95L728.22 180.16L730.824 177.556Z" fill="#E3B4C2" fill-opacity="0.13"/>
<path d="M737.233 180.724L735.597 182.36L735.01 182.947L732.223 180.16L732.819 179.564L735.01 177.372L737.797 180.16L737.233 180.724Z" fill="#E3B4C2" fill-opacity="0.13"/>
<path d="M735.01 217.276L733.619 218.666L732.46 217.499L735.01 214.95L741.8 221.74L739.228 224.312L738.068 223.145L739.474 221.74L735.01 217.276Z" fill="#E3B4C2" fill-opacity="0.13"/>
<path d="M730.824 219.136L731.983 220.302L730.546 221.74L735.01 226.204L736.432 224.781L737.591 225.948L735.01 228.53L728.22 221.74L730.824 219.136Z" fill="#E3B4C2" fill-opacity="0.13"/>
<path d="M737.233 222.304L735.597 223.94L735.01 224.527L732.223 221.74L732.819 221.144L735.01 218.952L737.797 221.74L737.233 222.304Z" fill="#E3B4C2" fill-opacity="0.13"/>
<path d="M735.01 258.856L733.619 260.246L732.46 259.079L735.01 256.53L741.8 263.32L739.228 265.892L738.068 264.725L739.474 263.32L735.01 258.856Z" fill="#E3B4C2" fill-opacity="0.13"/>
<path d="M730.824 260.715L731.983 261.882L730.546 263.32L735.01 267.784L736.432 266.361L737.591 267.528L735.01 270.11L728.22 263.32L730.824 260.715Z" fill="#E3B4C2" fill-opacity="0.13"/>
<path d="M737.233 263.884L735.597 265.52L735.01 266.107L732.223 263.32L732.819 262.724L735.01 260.532L737.797 263.32L737.233 263.884Z" fill="#E3B4C2" fill-opacity="0.13"/>
<path d="M735.01 300.436L733.619 301.826L732.46 300.659L735.01 298.11L741.8 304.9L739.228 307.472L738.068 306.305L739.474 304.9L735.01 300.436Z" fill="#E3B4C2" fill-opacity="0.13"/>
<path d="M730.824 302.295L731.983 303.462L730.546 304.9L735.01 309.364L736.432 307.941L737.591 309.108L735.01 311.69L728.22 304.9L730.824 302.295Z" fill="#E3B4C2" fill-opacity="0.13"/>
<path d="M737.233 305.464L735.597 307.1L735.01 307.687L732.223 304.9L732.819 304.303L735.01 302.112L737.797 304.9L737.233 305.464Z" fill="#E3B4C2" fill-opacity="0.13"/>
<path d="M735.01 342.016L733.619 343.406L732.46 342.239L735.01 339.69L741.8 346.48L739.228 349.052L738.068 347.885L739.474 346.48L735.01 342.016Z" fill="#E3B4C2" fill-opacity="0.13"/>
<path d="M730.824 343.875L731.983 345.042L730.546 346.48L735.01 350.944L736.432 349.521L737.591 350.688L735.01 353.27L728.22 346.48L730.824 343.875Z" fill="#E3B4C2" fill-opacity="0.13"/>
<path d="M737.233 347.044L735.597 348.68L735.01 349.267L732.223 346.48L732.819 345.883L735.01 343.692L737.797 346.48L737.233 347.044Z" fill="#E3B4C2" fill-opacity="0.13"/>
<path d="M735.01 383.596L733.619 384.986L732.46 383.819L735.01 381.27L741.8 388.06L739.228 390.632L738.068 389.465L739.474 388.06L735.01 383.596Z" fill="#E3B4C2" fill-opacity="0.13"/>
<path d="M730.824 385.455L731.983 386.622L730.546 388.06L735.01 392.524L736.432 391.101L737.591 392.268L735.01 394.85L728.22 388.06L730.824 385.455Z" fill="#E3B4C2" fill-opacity="0.13"/>
<path d="M737.233 388.624L735.597 390.26L735.01 390.847L732.223 388.06L732.819 387.463L735.01 385.272L737.797 388.06L737.233 388.624Z" fill="#E3B4C2" fill-opacity="0.13"/>
<path d="M735.01 425.176L733.619 426.566L732.46 425.399L735.01 422.85L741.8 429.64L739.228 432.212L738.068 431.045L739.474 429.64L735.01 425.176Z" fill="#E3B4C2" fill-opacity="0.13"/>
<path d="M730.824 427.035L731.983 428.202L730.546 429.64L735.01 434.104L736.432 432.681L737.591 433.848L735.01 436.43L728.22 429.64L730.824 427.035Z" fill="#E3B4C2" fill-opacity="0.13"/>
<path d="M737.233 430.204L735.597 431.84L735.01 432.427L732.223 429.64L732.819 429.043L735.01 426.852L737.797 429.64L737.233 430.204Z" fill="#E3B4C2" fill-opacity="0.13"/>
<path d="M735.01 466.756L733.619 468.146L732.46 466.979L735.01 464.43L741.8 471.22L739.228 473.792L738.068 472.625L739.474 471.22L735.01 466.756Z" fill="#E3B4C2" fill-opacity="0.13"/>
<path d="M730.824 468.615L731.983 469.782L730.546 471.22L735.01 475.684L736.432 474.261L737.591 475.428L735.01 478.01L728.22 471.22L730.824 468.615Z" fill="#E3B4C2" fill-opacity="0.13"/>
<path d="M737.233 471.784L735.597 473.42L735.01 474.007L732.223 471.22L732.819 470.623L735.01 468.432L737.797 471.22L737.233 471.784Z" fill="#E3B4C2" fill-opacity="0.13"/>
<path d="M735.01 508.336L733.619 509.726L732.46 508.559L735.01 506.01L741.8 512.8L739.228 515.372L738.068 514.205L739.474 512.8L735.01 508.336Z" fill="#E3B4C2" fill-opacity="0.13"/>
<path d="M730.824 510.195L731.983 511.362L730.546 512.8L735.01 517.264L736.432 515.841L737.591 517.008L735.01 519.59L728.22 512.8L730.824 510.195Z" fill="#E3B4C2" fill-opacity="0.13"/>
<path d="M737.233 513.364L735.597 515L735.01 515.587L732.223 512.8L732.819 512.203L735.01 510.012L737.797 512.8L737.233 513.364Z" fill="#E3B4C2" fill-opacity="0.13"/>
<path d="M735.01 549.916L733.619 551.306L732.46 550.139L735.01 547.59L741.8 554.38L739.228 556.952L738.068 555.785L739.474 554.38L735.01 549.916Z" fill="#E3B4C2" fill-opacity="0.13"/>
<path d="M730.824 551.775L731.983 552.942L730.546 554.38L735.01 558.843L736.432 557.421L737.591 558.588L735.01 561.17L728.22 554.38L730.824 551.775Z" fill="#E3B4C2" fill-opacity="0.13"/>
<path d="M737.233 554.944L735.597 556.58L735.01 557.167L732.223 554.38L732.819 553.783L735.01 551.592L737.797 554.38L737.233 554.944Z" fill="#E3B4C2" fill-opacity="0.13"/>
<path d="M812.59 134.116L811.199 135.506L810.04 134.339L812.59 131.79L819.38 138.58L816.807 141.152L815.648 139.985L817.053 138.58L812.59 134.116Z" fill="#E3B4C2" fill-opacity="0.13"/>
<path d="M808.404 135.976L809.563 137.142L808.126 138.58L812.59 143.044L814.012 141.622L815.171 142.788L812.59 145.37L805.8 138.58L808.404 135.976Z" fill="#E3B4C2" fill-opacity="0.13"/>
<path d="M814.813 139.144L813.177 140.78L812.59 141.367L809.802 138.58L810.399 137.984L812.59 135.792L815.377 138.58L814.813 139.144Z" fill="#E3B4C2" fill-opacity="0.13"/>
<path d="M812.59 175.696L811.199 177.086L810.04 175.919L812.59 173.37L819.38 180.16L816.807 182.732L815.648 181.565L817.053 180.16L812.59 175.696Z" fill="#E3B4C2" fill-opacity="0.13"/>
<path d="M808.404 177.556L809.563 178.722L808.126 180.16L812.59 184.624L814.012 183.202L815.171 184.368L812.59 186.95L805.8 180.16L808.404 177.556Z" fill="#E3B4C2" fill-opacity="0.13"/>
<path d="M814.813 180.724L813.177 182.36L812.59 182.947L809.802 180.16L810.399 179.564L812.59 177.372L815.377 180.16L814.813 180.724Z" fill="#E3B4C2" fill-opacity="0.13"/>
<path d="M812.59 217.276L811.199 218.666L810.04 217.499L812.59 214.95L819.38 221.74L816.807 224.312L815.648 223.145L817.053 221.74L812.59 217.276Z" fill="#E3B4C2" fill-opacity="0.13"/>
<path d="M808.404 219.136L809.563 220.302L808.126 221.74L812.59 226.204L814.012 224.781L815.171 225.948L812.59 228.53L805.8 221.74L808.404 219.136Z" fill="#E3B4C2" fill-opacity="0.13"/>
<path d="M814.813 222.304L813.177 223.94L812.59 224.527L809.802 221.74L810.399 221.144L812.59 218.952L815.377 221.74L814.813 222.304Z" fill="#E3B4C2" fill-opacity="0.13"/>
<path d="M812.59 258.856L811.199 260.246L810.04 259.079L812.59 256.53L819.38 263.32L816.807 265.892L815.648 264.725L817.053 263.32L812.59 258.856Z" fill="#E3B4C2" fill-opacity="0.13"/>
<path d="M808.404 260.715L809.563 261.882L808.126 263.32L812.59 267.784L814.012 266.361L815.171 267.528L812.59 270.11L805.8 263.32L808.404 260.715Z" fill="#E3B4C2" fill-opacity="0.13"/>
<path d="M814.813 263.884L813.177 265.52L812.59 266.107L809.802 263.32L810.399 262.724L812.59 260.532L815.377 263.32L814.813 263.884Z" fill="#E3B4C2" fill-opacity="0.13"/>
<path d="M812.59 300.436L811.199 301.826L810.04 300.659L812.59 298.11L819.38 304.9L816.807 307.472L815.648 306.305L817.053 304.9L812.59 300.436Z" fill="#E3B4C2" fill-opacity="0.13"/>
<path d="M808.404 302.295L809.563 303.462L808.126 304.9L812.59 309.364L814.012 307.941L815.171 309.108L812.59 311.69L805.8 304.9L808.404 302.295Z" fill="#E3B4C2" fill-opacity="0.13"/>
<path d="M814.813 305.464L813.177 307.1L812.59 307.687L809.802 304.9L810.399 304.303L812.59 302.112L815.377 304.9L814.813 305.464Z" fill="#E3B4C2" fill-opacity="0.13"/>
<path d="M812.59 342.016L811.199 343.406L810.04 342.239L812.59 339.69L819.38 346.48L816.807 349.052L815.648 347.885L817.053 346.48L812.59 342.016Z" fill="#E3B4C2" fill-opacity="0.13"/>
<path d="M808.404 343.875L809.563 345.042L808.126 346.48L812.59 350.944L814.012 349.521L815.171 350.688L812.59 353.27L805.8 346.48L808.404 343.875Z" fill="#E3B4C2" fill-opacity="0.13"/>
<path d="M814.813 347.044L813.177 348.68L812.59 349.267L809.802 346.48L810.399 345.883L812.59 343.692L815.377 346.48L814.813 347.044Z" fill="#E3B4C2" fill-opacity="0.13"/>
<path d="M812.59 383.596L811.199 384.986L810.04 383.819L812.59 381.27L819.38 388.06L816.807 390.632L815.648 389.465L817.053 388.06L812.59 383.596Z" fill="#E3B4C2" fill-opacity="0.13"/>
<path d="M808.404 385.455L809.563 386.622L808.126 388.06L812.59 392.524L814.012 391.101L815.171 392.268L812.59 394.85L805.8 388.06L808.404 385.455Z" fill="#E3B4C2" fill-opacity="0.13"/>
<path d="M814.813 388.624L813.177 390.26L812.59 390.847L809.802 388.06L810.399 387.463L812.59 385.272L815.377 388.06L814.813 388.624Z" fill="#E3B4C2" fill-opacity="0.13"/>
<path d="M812.59 425.176L811.199 426.566L810.04 425.399L812.59 422.85L819.38 429.64L816.807 432.212L815.648 431.045L817.053 429.64L812.59 425.176Z" fill="#E3B4C2" fill-opacity="0.13"/>
<path d="M808.404 427.035L809.563 428.202L808.126 429.64L812.59 434.104L814.012 432.681L815.171 433.848L812.59 436.43L805.8 429.64L808.404 427.035Z" fill="#E3B4C2" fill-opacity="0.13"/>
<path d="M814.813 430.204L813.177 431.84L812.59 432.427L809.802 429.64L810.399 429.043L812.59 426.852L815.377 429.64L814.813 430.204Z" fill="#E3B4C2" fill-opacity="0.13"/>
<path d="M812.59 466.756L811.199 468.146L810.04 466.979L812.59 464.43L819.38 471.22L816.807 473.792L815.648 472.625L817.053 471.22L812.59 466.756Z" fill="#E3B4C2" fill-opacity="0.13"/>
<path d="M808.404 468.615L809.563 469.782L808.126 471.22L812.59 475.684L814.012 474.261L815.171 475.428L812.59 478.01L805.8 471.22L808.404 468.615Z" fill="#E3B4C2" fill-opacity="0.13"/>
<path d="M814.813 471.784L813.177 473.42L812.59 474.007L809.802 471.22L810.399 470.623L812.59 468.432L815.377 471.22L814.813 471.784Z" fill="#E3B4C2" fill-opacity="0.13"/>
<path d="M812.59 508.336L811.199 509.726L810.04 508.559L812.59 506.01L819.38 512.8L816.807 515.372L815.648 514.205L817.053 512.8L812.59 508.336Z" fill="#E3B4C2" fill-opacity="0.13"/>
<path d="M808.404 510.195L809.563 511.362L808.126 512.8L812.59 517.264L814.012 515.841L815.171 517.008L812.59 519.59L805.8 512.8L808.404 510.195Z" fill="#E3B4C2" fill-opacity="0.13"/>
<path d="M814.813 513.364L813.177 515L812.59 515.587L809.802 512.8L810.399 512.203L812.59 510.012L815.377 512.8L814.813 513.364Z" fill="#E3B4C2" fill-opacity="0.13"/>
<path d="M812.59 549.916L811.199 551.306L810.04 550.139L812.59 547.59L819.38 554.38L816.807 556.952L815.648 555.785L817.053 554.38L812.59 549.916Z" fill="#E3B4C2" fill-opacity="0.13"/>
<path d="M808.404 551.775L809.563 552.942L808.126 554.38L812.59 558.843L814.012 557.421L815.171 558.588L812.59 561.17L805.8 554.38L808.404 551.775Z" fill="#E3B4C2" fill-opacity="0.13"/>
<path d="M814.813 554.944L813.177 556.58L812.59 557.167L809.802 554.38L810.399 553.783L812.59 551.592L815.377 554.38L814.813 554.944Z" fill="#E3B4C2" fill-opacity="0.13"/>
<path d="M890.169 175.696L888.779 177.086L887.62 175.919L890.169 173.37L896.959 180.16L894.387 182.732L893.228 181.565L894.633 180.16L890.169 175.696Z" fill="#E3B4C2" fill-opacity="0.13"/>
<path d="M885.984 177.556L887.143 178.722L885.706 180.16L890.169 184.624L891.592 183.202L892.751 184.368L890.169 186.95L883.38 180.16L885.984 177.556Z" fill="#E3B4C2" fill-opacity="0.13"/>
<path d="M892.393 180.724L890.757 182.36L890.17 182.947L887.382 180.16L887.979 179.564L890.17 177.372L892.957 180.16L892.393 180.724Z" fill="#E3B4C2" fill-opacity="0.13"/>
<path d="M890.169 217.276L888.779 218.666L887.62 217.499L890.169 214.95L896.959 221.74L894.387 224.312L893.228 223.145L894.633 221.74L890.169 217.276Z" fill="#E3B4C2" fill-opacity="0.13"/>
<path d="M885.984 219.136L887.143 220.302L885.706 221.74L890.169 226.204L891.592 224.781L892.751 225.948L890.169 228.53L883.38 221.74L885.984 219.136Z" fill="#E3B4C2" fill-opacity="0.13"/>
<path d="M892.393 222.304L890.757 223.94L890.17 224.527L887.382 221.74L887.979 221.144L890.17 218.952L892.957 221.74L892.393 222.304Z" fill="#E3B4C2" fill-opacity="0.13"/>
<path d="M890.169 258.856L888.779 260.246L887.62 259.079L890.169 256.53L896.959 263.32L894.387 265.892L893.228 264.725L894.633 263.32L890.169 258.856Z" fill="#E3B4C2" fill-opacity="0.13"/>
<path d="M885.984 260.715L887.143 261.882L885.706 263.32L890.169 267.784L891.592 266.361L892.751 267.528L890.169 270.11L883.38 263.32L885.984 260.715Z" fill="#E3B4C2" fill-opacity="0.13"/>
<path d="M892.393 263.884L890.757 265.52L890.17 266.107L887.382 263.32L887.979 262.724L890.17 260.532L892.957 263.32L892.393 263.884Z" fill="#E3B4C2" fill-opacity="0.13"/>
<path d="M890.169 300.436L888.779 301.826L887.62 300.659L890.169 298.11L896.959 304.9L894.387 307.472L893.228 306.305L894.633 304.9L890.169 300.436Z" fill="#E3B4C2" fill-opacity="0.13"/>
<path d="M885.984 302.295L887.143 303.462L885.706 304.9L890.169 309.364L891.592 307.941L892.751 309.108L890.169 311.69L883.38 304.9L885.984 302.295Z" fill="#E3B4C2" fill-opacity="0.13"/>
<path d="M892.393 305.464L890.757 307.1L890.17 307.687L887.382 304.9L887.979 304.303L890.17 302.112L892.957 304.9L892.393 305.464Z" fill="#E3B4C2" fill-opacity="0.13"/>
<path d="M890.169 342.016L888.779 343.406L887.62 342.239L890.169 339.69L896.959 346.48L894.387 349.052L893.228 347.885L894.633 346.48L890.169 342.016Z" fill="#E3B4C2" fill-opacity="0.13"/>
<path d="M885.984 343.875L887.143 345.042L885.706 346.48L890.169 350.944L891.592 349.521L892.751 350.688L890.169 353.27L883.38 346.48L885.984 343.875Z" fill="#E3B4C2" fill-opacity="0.13"/>
<path d="M892.393 347.044L890.757 348.68L890.17 349.267L887.382 346.48L887.979 345.883L890.17 343.692L892.957 346.48L892.393 347.044Z" fill="#E3B4C2" fill-opacity="0.13"/>
<path d="M890.169 383.596L888.779 384.986L887.62 383.819L890.169 381.27L896.959 388.06L894.387 390.632L893.228 389.465L894.633 388.06L890.169 383.596Z" fill="#E3B4C2" fill-opacity="0.13"/>
<path d="M885.984 385.455L887.143 386.622L885.706 388.06L890.169 392.524L891.592 391.101L892.751 392.268L890.169 394.85L883.38 388.06L885.984 385.455Z" fill="#E3B4C2" fill-opacity="0.13"/>
<path d="M892.393 388.624L890.757 390.26L890.17 390.847L887.382 388.06L887.979 387.463L890.17 385.272L892.957 388.06L892.393 388.624Z" fill="#E3B4C2" fill-opacity="0.13"/>
<path d="M890.169 425.176L888.779 426.566L887.62 425.399L890.169 422.85L896.959 429.64L894.387 432.212L893.228 431.045L894.633 429.64L890.169 425.176Z" fill="#E3B4C2" fill-opacity="0.13"/>
<path d="M885.984 427.035L887.143 428.202L885.706 429.64L890.169 434.104L891.592 432.681L892.751 433.848L890.169 436.43L883.38 429.64L885.984 427.035Z" fill="#E3B4C2" fill-opacity="0.13"/>
<path d="M892.393 430.204L890.757 431.84L890.17 432.427L887.382 429.64L887.979 429.043L890.17 426.852L892.957 429.64L892.393 430.204Z" fill="#E3B4C2" fill-opacity="0.13"/>
<path d="M890.169 466.756L888.779 468.146L887.62 466.979L890.169 464.43L896.959 471.22L894.387 473.792L893.228 472.625L894.633 471.22L890.169 466.756Z" fill="#E3B4C2" fill-opacity="0.13"/>
<path d="M885.984 468.615L887.143 469.782L885.706 471.22L890.169 475.684L891.592 474.261L892.751 475.428L890.169 478.01L883.38 471.22L885.984 468.615Z" fill="#E3B4C2" fill-opacity="0.13"/>
<path d="M892.393 471.784L890.757 473.42L890.17 474.007L887.382 471.22L887.979 470.623L890.17 468.432L892.957 471.22L892.393 471.784Z" fill="#E3B4C2" fill-opacity="0.13"/>
<path d="M890.169 508.336L888.779 509.726L887.62 508.559L890.169 506.01L896.959 512.8L894.387 515.372L893.228 514.205L894.633 512.8L890.169 508.336Z" fill="#E3B4C2" fill-opacity="0.13"/>
<path d="M885.984 510.195L887.143 511.362L885.706 512.8L890.169 517.264L891.592 515.841L892.751 517.008L890.169 519.59L883.38 512.8L885.984 510.195Z" fill="#E3B4C2" fill-opacity="0.13"/>
<path d="M892.393 513.364L890.757 515L890.17 515.587L887.382 512.8L887.979 512.203L890.17 510.012L892.957 512.8L892.393 513.364Z" fill="#E3B4C2" fill-opacity="0.13"/>
<path d="M890.169 549.916L888.779 551.306L887.62 550.139L890.169 547.59L896.959 554.38L894.387 556.952L893.228 555.785L894.633 554.38L890.169 549.916Z" fill="#E3B4C2" fill-opacity="0.13"/>
<path d="M885.984 551.775L887.143 552.942L885.706 554.38L890.169 558.843L891.592 557.421L892.751 558.588L890.169 561.17L883.38 554.38L885.984 551.775Z" fill="#E3B4C2" fill-opacity="0.13"/>
<path d="M892.393 554.944L890.757 556.58L890.17 557.167L887.382 554.38L887.979 553.783L890.17 551.592L892.957 554.38L892.393 554.944Z" fill="#E3B4C2" fill-opacity="0.13"/>
<path d="M967.749 217.276L966.359 218.666L965.2 217.499L967.749 214.95L974.539 221.74L971.967 224.312L970.808 223.145L972.213 221.74L967.749 217.276Z" fill="#E3B4C2" fill-opacity="0.13"/>
<path d="M963.564 219.136L964.723 220.302L963.286 221.74L967.749 226.204L969.172 224.781L970.331 225.948L967.749 228.53L960.959 221.74L963.564 219.136Z" fill="#E3B4C2" fill-opacity="0.13"/>
<path d="M969.973 222.304L968.337 223.94L967.75 224.527L964.962 221.74L965.559 221.144L967.75 218.952L970.537 221.74L969.973 222.304Z" fill="#E3B4C2" fill-opacity="0.13"/>
<path d="M967.749 258.856L966.359 260.246L965.2 259.079L967.749 256.53L974.539 263.32L971.967 265.892L970.808 264.725L972.213 263.32L967.749 258.856Z" fill="#E3B4C2" fill-opacity="0.13"/>
<path d="M963.564 260.715L964.723 261.882L963.286 263.32L967.749 267.784L969.172 266.361L970.331 267.528L967.749 270.11L960.959 263.32L963.564 260.715Z" fill="#E3B4C2" fill-opacity="0.13"/>
<path d="M969.973 263.884L968.337 265.52L967.75 266.107L964.962 263.32L965.559 262.724L967.75 260.532L970.537 263.32L969.973 263.884Z" fill="#E3B4C2" fill-opacity="0.13"/>
<path d="M967.749 300.436L966.359 301.826L965.2 300.659L967.749 298.11L974.539 304.9L971.967 307.472L970.808 306.305L972.213 304.9L967.749 300.436Z" fill="#E3B4C2" fill-opacity="0.13"/>
<path d="M963.564 302.295L964.723 303.462L963.286 304.9L967.749 309.364L969.172 307.941L970.331 309.108L967.749 311.69L960.959 304.9L963.564 302.295Z" fill="#E3B4C2" fill-opacity="0.13"/>
<path d="M969.973 305.464L968.337 307.1L967.75 307.687L964.962 304.9L965.559 304.303L967.75 302.112L970.537 304.9L969.973 305.464Z" fill="#E3B4C2" fill-opacity="0.13"/>
<path d="M967.749 342.016L966.359 343.406L965.2 342.239L967.749 339.69L974.539 346.48L971.967 349.052L970.808 347.885L972.213 346.48L967.749 342.016Z" fill="#E3B4C2" fill-opacity="0.13"/>
<path d="M963.564 343.875L964.723 345.042L963.286 346.48L967.749 350.944L969.172 349.521L970.331 350.688L967.749 353.27L960.959 346.48L963.564 343.875Z" fill="#E3B4C2" fill-opacity="0.13"/>
<path d="M969.973 347.044L968.337 348.68L967.75 349.267L964.962 346.48L965.559 345.883L967.75 343.692L970.537 346.48L969.973 347.044Z" fill="#E3B4C2" fill-opacity="0.13"/>
<path d="M967.749 383.596L966.359 384.986L965.2 383.819L967.749 381.27L974.539 388.06L971.967 390.632L970.808 389.465L972.213 388.06L967.749 383.596Z" fill="#E3B4C2" fill-opacity="0.13"/>
<path d="M963.564 385.455L964.723 386.622L963.286 388.06L967.749 392.524L969.172 391.101L970.331 392.268L967.749 394.85L960.959 388.06L963.564 385.455Z" fill="#E3B4C2" fill-opacity="0.13"/>
<path d="M969.973 388.624L968.337 390.26L967.75 390.847L964.962 388.06L965.559 387.463L967.75 385.272L970.537 388.06L969.973 388.624Z" fill="#E3B4C2" fill-opacity="0.13"/>
<path d="M967.749 425.176L966.359 426.566L965.2 425.399L967.749 422.85L974.539 429.64L971.967 432.212L970.808 431.045L972.213 429.64L967.749 425.176Z" fill="#E3B4C2" fill-opacity="0.13"/>
<path d="M963.564 427.035L964.723 428.202L963.286 429.64L967.749 434.104L969.172 432.681L970.331 433.848L967.749 436.43L960.959 429.64L963.564 427.035Z" fill="#E3B4C2" fill-opacity="0.13"/>
<path d="M969.973 430.204L968.337 431.84L967.75 432.427L964.962 429.64L965.559 429.043L967.75 426.852L970.537 429.64L969.973 430.204Z" fill="#E3B4C2" fill-opacity="0.13"/>
<path d="M967.749 466.756L966.359 468.146L965.2 466.979L967.749 464.43L974.539 471.22L971.967 473.792L970.808 472.625L972.213 471.22L967.749 466.756Z" fill="#E3B4C2" fill-opacity="0.13"/>
<path d="M963.564 468.615L964.723 469.782L963.286 471.22L967.749 475.684L969.172 474.261L970.331 475.428L967.749 478.01L960.959 471.22L963.564 468.615Z" fill="#E3B4C2" fill-opacity="0.13"/>
<path d="M969.973 471.784L968.337 473.42L967.75 474.007L964.962 471.22L965.559 470.623L967.75 468.432L970.537 471.22L969.973 471.784Z" fill="#E3B4C2" fill-opacity="0.13"/>
<path d="M967.749 508.336L966.359 509.726L965.2 508.559L967.749 506.01L974.539 512.8L971.967 515.372L970.808 514.205L972.213 512.8L967.749 508.336Z" fill="#E3B4C2" fill-opacity="0.13"/>
<path d="M963.564 510.195L964.723 511.362L963.286 512.8L967.749 517.264L969.172 515.841L970.331 517.008L967.749 519.59L960.959 512.8L963.564 510.195Z" fill="#E3B4C2" fill-opacity="0.13"/>
<path d="M969.973 513.364L968.337 515L967.75 515.587L964.962 512.8L965.559 512.203L967.75 510.012L970.537 512.8L969.973 513.364Z" fill="#E3B4C2" fill-opacity="0.13"/>
<path d="M967.749 549.916L966.359 551.306L965.2 550.139L967.749 547.59L974.539 554.38L971.967 556.952L970.808 555.785L972.213 554.38L967.749 549.916Z" fill="#E3B4C2" fill-opacity="0.13"/>
<path d="M963.564 551.775L964.723 552.942L963.286 554.38L967.749 558.843L969.172 557.421L970.331 558.588L967.749 561.17L960.959 554.38L963.564 551.775Z" fill="#E3B4C2" fill-opacity="0.13"/>
<path d="M969.973 554.944L968.337 556.58L967.75 557.167L964.962 554.38L965.559 553.783L967.75 551.592L970.537 554.38L969.973 554.944Z" fill="#E3B4C2" fill-opacity="0.13"/>
<path d="M1045.33 258.856L1043.94 260.246L1042.78 259.079L1045.33 256.53L1052.12 263.32L1049.55 265.892L1048.39 264.725L1049.79 263.32L1045.33 258.856Z" fill="#E3B4C2" fill-opacity="0.13"/>
<path d="M1041.14 260.715L1042.3 261.882L1040.87 263.32L1045.33 267.784L1046.75 266.361L1047.91 267.528L1045.33 270.11L1038.54 263.32L1041.14 260.715Z" fill="#E3B4C2" fill-opacity="0.13"/>
<path d="M1047.55 263.884L1045.92 265.52L1045.33 266.107L1042.54 263.32L1043.14 262.724L1045.33 260.532L1048.12 263.32L1047.55 263.884Z" fill="#E3B4C2" fill-opacity="0.13"/>
<path d="M1045.33 300.436L1043.94 301.826L1042.78 300.659L1045.33 298.11L1052.12 304.9L1049.55 307.472L1048.39 306.305L1049.79 304.9L1045.33 300.436Z" fill="#E3B4C2" fill-opacity="0.13"/>
<path d="M1041.14 302.295L1042.3 303.462L1040.87 304.9L1045.33 309.364L1046.75 307.941L1047.91 309.108L1045.33 311.69L1038.54 304.9L1041.14 302.295Z" fill="#E3B4C2" fill-opacity="0.13"/>
<path d="M1047.55 305.464L1045.92 307.1L1045.33 307.687L1042.54 304.9L1043.14 304.303L1045.33 302.112L1048.12 304.9L1047.55 305.464Z" fill="#E3B4C2" fill-opacity="0.13"/>
<path d="M1045.33 342.016L1043.94 343.406L1042.78 342.239L1045.33 339.69L1052.12 346.48L1049.55 349.052L1048.39 347.885L1049.79 346.48L1045.33 342.016Z" fill="#E3B4C2" fill-opacity="0.13"/>
<path d="M1041.14 343.875L1042.3 345.042L1040.87 346.48L1045.33 350.944L1046.75 349.521L1047.91 350.688L1045.33 353.27L1038.54 346.48L1041.14 343.875Z" fill="#E3B4C2" fill-opacity="0.13"/>
<path d="M1047.55 347.044L1045.92 348.68L1045.33 349.267L1042.54 346.48L1043.14 345.883L1045.33 343.692L1048.12 346.48L1047.55 347.044Z" fill="#E3B4C2" fill-opacity="0.13"/>
<path d="M1045.33 383.596L1043.94 384.986L1042.78 383.819L1045.33 381.27L1052.12 388.06L1049.55 390.632L1048.39 389.465L1049.79 388.06L1045.33 383.596Z" fill="#E3B4C2" fill-opacity="0.13"/>
<path d="M1041.14 385.455L1042.3 386.622L1040.87 388.06L1045.33 392.524L1046.75 391.101L1047.91 392.268L1045.33 394.85L1038.54 388.06L1041.14 385.455Z" fill="#E3B4C2" fill-opacity="0.13"/>
<path d="M1047.55 388.624L1045.92 390.26L1045.33 390.847L1042.54 388.06L1043.14 387.463L1045.33 385.272L1048.12 388.06L1047.55 388.624Z" fill="#E3B4C2" fill-opacity="0.13"/>
<path d="M1045.33 425.176L1043.94 426.566L1042.78 425.399L1045.33 422.85L1052.12 429.64L1049.55 432.212L1048.39 431.045L1049.79 429.64L1045.33 425.176Z" fill="#E3B4C2" fill-opacity="0.13"/>
<path d="M1041.14 427.035L1042.3 428.202L1040.87 429.64L1045.33 434.104L1046.75 432.681L1047.91 433.848L1045.33 436.43L1038.54 429.64L1041.14 427.035Z" fill="#E3B4C2" fill-opacity="0.13"/>
<path d="M1047.55 430.204L1045.92 431.84L1045.33 432.427L1042.54 429.64L1043.14 429.043L1045.33 426.852L1048.12 429.64L1047.55 430.204Z" fill="#E3B4C2" fill-opacity="0.13"/>
<path d="M1045.33 466.756L1043.94 468.146L1042.78 466.979L1045.33 464.43L1052.12 471.22L1049.55 473.792L1048.39 472.625L1049.79 471.22L1045.33 466.756Z" fill="#E3B4C2" fill-opacity="0.13"/>
<path d="M1041.14 468.615L1042.3 469.782L1040.87 471.22L1045.33 475.684L1046.75 474.261L1047.91 475.428L1045.33 478.01L1038.54 471.22L1041.14 468.615Z" fill="#E3B4C2" fill-opacity="0.13"/>
<path d="M1047.55 471.784L1045.92 473.42L1045.33 474.007L1042.54 471.22L1043.14 470.623L1045.33 468.432L1048.12 471.22L1047.55 471.784Z" fill="#E3B4C2" fill-opacity="0.13"/>
<path d="M1045.33 508.336L1043.94 509.726L1042.78 508.559L1045.33 506.01L1052.12 512.8L1049.55 515.372L1048.39 514.205L1049.79 512.8L1045.33 508.336Z" fill="#E3B4C2" fill-opacity="0.13"/>
<path d="M1041.14 510.195L1042.3 511.362L1040.87 512.8L1045.33 517.264L1046.75 515.841L1047.91 517.008L1045.33 519.59L1038.54 512.8L1041.14 510.195Z" fill="#E3B4C2" fill-opacity="0.13"/>
<path d="M1047.55 513.364L1045.92 515L1045.33 515.587L1042.54 512.8L1043.14 512.203L1045.33 510.012L1048.12 512.8L1047.55 513.364Z" fill="#E3B4C2" fill-opacity="0.13"/>
<path d="M1045.33 549.916L1043.94 551.306L1042.78 550.139L1045.33 547.59L1052.12 554.38L1049.55 556.952L1048.39 555.785L1049.79 554.38L1045.33 549.916Z" fill="#E3B4C2" fill-opacity="0.13"/>
<path d="M1041.14 551.775L1042.3 552.942L1040.87 554.38L1045.33 558.843L1046.75 557.421L1047.91 558.588L1045.33 561.17L1038.54 554.38L1041.14 551.775Z" fill="#E3B4C2" fill-opacity="0.13"/>
<path d="M1047.55 554.944L1045.92 556.58L1045.33 557.167L1042.54 554.38L1043.14 553.783L1045.33 551.592L1048.12 554.38L1047.55 554.944Z" fill="#E3B4C2" fill-opacity="0.13"/>
<path d="M1122.91 258.856L1121.52 260.246L1120.36 259.079L1122.91 256.53L1129.7 263.32L1127.13 265.892L1125.97 264.725L1127.37 263.32L1122.91 258.856Z" fill="#E3B4C2" fill-opacity="0.13"/>
<path d="M1118.72 260.715L1119.88 261.882L1118.45 263.32L1122.91 267.784L1124.33 266.361L1125.49 267.528L1122.91 270.11L1116.12 263.32L1118.72 260.715Z" fill="#E3B4C2" fill-opacity="0.13"/>
<path d="M1125.13 263.884L1123.5 265.52L1122.91 266.107L1120.12 263.32L1120.72 262.724L1122.91 260.532L1125.7 263.32L1125.13 263.884Z" fill="#E3B4C2" fill-opacity="0.13"/>
<path d="M1122.91 300.436L1121.52 301.826L1120.36 300.659L1122.91 298.11L1129.7 304.9L1127.13 307.472L1125.97 306.305L1127.37 304.9L1122.91 300.436Z" fill="#E3B4C2" fill-opacity="0.13"/>
<path d="M1118.72 302.295L1119.88 303.462L1118.45 304.9L1122.91 309.364L1124.33 307.941L1125.49 309.108L1122.91 311.69L1116.12 304.9L1118.72 302.295Z" fill="#E3B4C2" fill-opacity="0.13"/>
<path d="M1125.13 305.464L1123.5 307.1L1122.91 307.687L1120.12 304.9L1120.72 304.303L1122.91 302.112L1125.7 304.9L1125.13 305.464Z" fill="#E3B4C2" fill-opacity="0.13"/>
<path d="M1122.91 342.016L1121.52 343.406L1120.36 342.239L1122.91 339.69L1129.7 346.48L1127.13 349.052L1125.97 347.885L1127.37 346.48L1122.91 342.016Z" fill="#E3B4C2" fill-opacity="0.13"/>
<path d="M1118.72 343.875L1119.88 345.042L1118.45 346.48L1122.91 350.944L1124.33 349.521L1125.49 350.688L1122.91 353.27L1116.12 346.48L1118.72 343.875Z" fill="#E3B4C2" fill-opacity="0.13"/>
<path d="M1125.13 347.044L1123.5 348.68L1122.91 349.267L1120.12 346.48L1120.72 345.883L1122.91 343.692L1125.7 346.48L1125.13 347.044Z" fill="#E3B4C2" fill-opacity="0.13"/>
<path d="M1122.91 383.596L1121.52 384.986L1120.36 383.819L1122.91 381.27L1129.7 388.06L1127.13 390.632L1125.97 389.465L1127.37 388.06L1122.91 383.596Z" fill="#E3B4C2" fill-opacity="0.13"/>
<path d="M1118.72 385.455L1119.88 386.622L1118.45 388.06L1122.91 392.524L1124.33 391.101L1125.49 392.268L1122.91 394.85L1116.12 388.06L1118.72 385.455Z" fill="#E3B4C2" fill-opacity="0.13"/>
<path d="M1125.13 388.624L1123.5 390.26L1122.91 390.847L1120.12 388.06L1120.72 387.463L1122.91 385.272L1125.7 388.06L1125.13 388.624Z" fill="#E3B4C2" fill-opacity="0.13"/>
<path d="M1122.91 425.176L1121.52 426.566L1120.36 425.399L1122.91 422.85L1129.7 429.64L1127.13 432.212L1125.97 431.045L1127.37 429.64L1122.91 425.176Z" fill="#E3B4C2" fill-opacity="0.13"/>
<path d="M1118.72 427.035L1119.88 428.202L1118.45 429.64L1122.91 434.104L1124.33 432.681L1125.49 433.848L1122.91 436.43L1116.12 429.64L1118.72 427.035Z" fill="#E3B4C2" fill-opacity="0.13"/>
<path d="M1125.13 430.204L1123.5 431.84L1122.91 432.427L1120.12 429.64L1120.72 429.043L1122.91 426.852L1125.7 429.64L1125.13 430.204Z" fill="#E3B4C2" fill-opacity="0.13"/>
<path d="M1122.91 466.756L1121.52 468.146L1120.36 466.979L1122.91 464.43L1129.7 471.22L1127.13 473.792L1125.97 472.625L1127.37 471.22L1122.91 466.756Z" fill="#E3B4C2" fill-opacity="0.13"/>
<path d="M1118.72 468.615L1119.88 469.782L1118.45 471.22L1122.91 475.684L1124.33 474.261L1125.49 475.428L1122.91 478.01L1116.12 471.22L1118.72 468.615Z" fill="#E3B4C2" fill-opacity="0.13"/>
<path d="M1125.13 471.784L1123.5 473.42L1122.91 474.007L1120.12 471.22L1120.72 470.623L1122.91 468.432L1125.7 471.22L1125.13 471.784Z" fill="#E3B4C2" fill-opacity="0.13"/>
<path d="M1122.91 508.336L1121.52 509.726L1120.36 508.559L1122.91 506.01L1129.7 512.8L1127.13 515.372L1125.97 514.205L1127.37 512.8L1122.91 508.336Z" fill="#E3B4C2" fill-opacity="0.13"/>
<path d="M1118.72 510.195L1119.88 511.362L1118.45 512.8L1122.91 517.264L1124.33 515.841L1125.49 517.008L1122.91 519.59L1116.12 512.8L1118.72 510.195Z" fill="#E3B4C2" fill-opacity="0.13"/>
<path d="M1125.13 513.364L1123.5 515L1122.91 515.587L1120.12 512.8L1120.72 512.203L1122.91 510.012L1125.7 512.8L1125.13 513.364Z" fill="#E3B4C2" fill-opacity="0.13"/>
<path d="M1122.91 549.916L1121.52 551.306L1120.36 550.139L1122.91 547.59L1129.7 554.38L1127.13 556.952L1125.97 555.785L1127.37 554.38L1122.91 549.916Z" fill="#E3B4C2" fill-opacity="0.13"/>
<path d="M1118.72 551.775L1119.88 552.942L1118.45 554.38L1122.91 558.843L1124.33 557.421L1125.49 558.588L1122.91 561.17L1116.12 554.38L1118.72 551.775Z" fill="#E3B4C2" fill-opacity="0.13"/>
<path d="M1125.13 554.944L1123.5 556.58L1122.91 557.167L1120.12 554.38L1120.72 553.783L1122.91 551.592L1125.7 554.38L1125.13 554.944Z" fill="#E3B4C2" fill-opacity="0.13"/>
<path d="M1200.49 258.856L1199.1 260.246L1197.94 259.079L1200.49 256.53L1207.28 263.32L1204.71 265.892L1203.55 264.725L1204.95 263.32L1200.49 258.856Z" fill="#E3B4C2" fill-opacity="0.13"/>
<path d="M1196.3 260.715L1197.46 261.882L1196.03 263.32L1200.49 267.784L1201.91 266.361L1203.07 267.528L1200.49 270.11L1193.7 263.32L1196.3 260.715Z" fill="#E3B4C2" fill-opacity="0.13"/>
<path d="M1202.71 263.884L1201.08 265.52L1200.49 266.107L1197.7 263.32L1198.3 262.724L1200.49 260.532L1203.28 263.32L1202.71 263.884Z" fill="#E3B4C2" fill-opacity="0.13"/>
<path d="M1200.49 300.436L1199.1 301.826L1197.94 300.659L1200.49 298.11L1207.28 304.9L1204.71 307.472L1203.55 306.305L1204.95 304.9L1200.49 300.436Z" fill="#E3B4C2" fill-opacity="0.13"/>
<path d="M1196.3 302.295L1197.46 303.462L1196.03 304.9L1200.49 309.364L1201.91 307.941L1203.07 309.108L1200.49 311.69L1193.7 304.9L1196.3 302.295Z" fill="#E3B4C2" fill-opacity="0.13"/>
<path d="M1202.71 305.464L1201.08 307.1L1200.49 307.687L1197.7 304.9L1198.3 304.303L1200.49 302.112L1203.28 304.9L1202.71 305.464Z" fill="#E3B4C2" fill-opacity="0.13"/>
<path d="M1200.49 342.016L1199.1 343.406L1197.94 342.239L1200.49 339.69L1207.28 346.48L1204.71 349.052L1203.55 347.885L1204.95 346.48L1200.49 342.016Z" fill="#E3B4C2" fill-opacity="0.13"/>
<path d="M1196.3 343.875L1197.46 345.042L1196.03 346.48L1200.49 350.944L1201.91 349.521L1203.07 350.688L1200.49 353.27L1193.7 346.48L1196.3 343.875Z" fill="#E3B4C2" fill-opacity="0.13"/>
<path d="M1202.71 347.044L1201.08 348.68L1200.49 349.267L1197.7 346.48L1198.3 345.883L1200.49 343.692L1203.28 346.48L1202.71 347.044Z" fill="#E3B4C2" fill-opacity="0.13"/>
<path d="M1200.49 383.596L1199.1 384.986L1197.94 383.819L1200.49 381.27L1207.28 388.06L1204.71 390.632L1203.55 389.465L1204.95 388.06L1200.49 383.596Z" fill="#E3B4C2" fill-opacity="0.13"/>
<path d="M1196.3 385.455L1197.46 386.622L1196.03 388.06L1200.49 392.524L1201.91 391.101L1203.07 392.268L1200.49 394.85L1193.7 388.06L1196.3 385.455Z" fill="#E3B4C2" fill-opacity="0.13"/>
<path d="M1202.71 388.624L1201.08 390.26L1200.49 390.847L1197.7 388.06L1198.3 387.463L1200.49 385.272L1203.28 388.06L1202.71 388.624Z" fill="#E3B4C2" fill-opacity="0.13"/>
<path d="M1200.49 425.176L1199.1 426.566L1197.94 425.399L1200.49 422.85L1207.28 429.64L1204.71 432.212L1203.55 431.045L1204.95 429.64L1200.49 425.176Z" fill="#E3B4C2" fill-opacity="0.13"/>
<path d="M1196.3 427.035L1197.46 428.202L1196.03 429.64L1200.49 434.104L1201.91 432.681L1203.07 433.848L1200.49 436.43L1193.7 429.64L1196.3 427.035Z" fill="#E3B4C2" fill-opacity="0.13"/>
<path d="M1202.71 430.204L1201.08 431.84L1200.49 432.427L1197.7 429.64L1198.3 429.043L1200.49 426.852L1203.28 429.64L1202.71 430.204Z" fill="#E3B4C2" fill-opacity="0.13"/>
<path d="M1200.49 466.756L1199.1 468.146L1197.94 466.979L1200.49 464.43L1207.28 471.22L1204.71 473.792L1203.55 472.625L1204.95 471.22L1200.49 466.756Z" fill="#E3B4C2" fill-opacity="0.13"/>
<path d="M1196.3 468.615L1197.46 469.782L1196.03 471.22L1200.49 475.684L1201.91 474.261L1203.07 475.428L1200.49 478.01L1193.7 471.22L1196.3 468.615Z" fill="#E3B4C2" fill-opacity="0.13"/>
<path d="M1202.71 471.784L1201.08 473.42L1200.49 474.007L1197.7 471.22L1198.3 470.623L1200.49 468.432L1203.28 471.22L1202.71 471.784Z" fill="#E3B4C2" fill-opacity="0.13"/>
<path d="M1200.49 508.336L1199.1 509.726L1197.94 508.559L1200.49 506.01L1207.28 512.8L1204.71 515.372L1203.55 514.205L1204.95 512.8L1200.49 508.336Z" fill="#E3B4C2" fill-opacity="0.13"/>
<path d="M1196.3 510.195L1197.46 511.362L1196.03 512.8L1200.49 517.264L1201.91 515.841L1203.07 517.008L1200.49 519.59L1193.7 512.8L1196.3 510.195Z" fill="#E3B4C2" fill-opacity="0.13"/>
<path d="M1202.71 513.364L1201.08 515L1200.49 515.587L1197.7 512.8L1198.3 512.203L1200.49 510.012L1203.28 512.8L1202.71 513.364Z" fill="#E3B4C2" fill-opacity="0.13"/>
<path d="M1200.49 549.916L1199.1 551.306L1197.94 550.139L1200.49 547.59L1207.28 554.38L1204.71 556.952L1203.55 555.785L1204.95 554.38L1200.49 549.916Z" fill="#E3B4C2" fill-opacity="0.13"/>
<path d="M1196.3 551.775L1197.46 552.942L1196.03 554.38L1200.49 558.843L1201.91 557.421L1203.07 558.588L1200.49 561.17L1193.7 554.38L1196.3 551.775Z" fill="#E3B4C2" fill-opacity="0.13"/>
<path d="M1202.71 554.944L1201.08 556.58L1200.49 557.167L1197.7 554.38L1198.3 553.783L1200.49 551.592L1203.28 554.38L1202.71 554.944Z" fill="#E3B4C2" fill-opacity="0.13"/>
<path d="M1278.07 217.276L1276.68 218.666L1275.52 217.499L1278.07 214.95L1284.86 221.74L1282.29 224.312L1281.13 223.145L1282.53 221.74L1278.07 217.276Z" fill="#E3B4C2" fill-opacity="0.13"/>
<path d="M1273.88 219.136L1275.04 220.302L1273.61 221.74L1278.07 226.204L1279.49 224.781L1280.65 225.948L1278.07 228.53L1271.28 221.74L1273.88 219.136Z" fill="#E3B4C2" fill-opacity="0.13"/>
<path d="M1280.29 222.304L1278.66 223.94L1278.07 224.527L1275.28 221.74L1275.88 221.144L1278.07 218.952L1280.86 221.74L1280.29 222.304Z" fill="#E3B4C2" fill-opacity="0.13"/>
<path d="M1278.07 258.856L1276.68 260.246L1275.52 259.079L1278.07 256.53L1284.86 263.32L1282.29 265.892L1281.13 264.725L1282.53 263.32L1278.07 258.856Z" fill="#E3B4C2" fill-opacity="0.13"/>
<path d="M1273.88 260.715L1275.04 261.882L1273.61 263.32L1278.07 267.784L1279.49 266.361L1280.65 267.528L1278.07 270.11L1271.28 263.32L1273.88 260.715Z" fill="#E3B4C2" fill-opacity="0.13"/>
<path d="M1280.29 263.884L1278.66 265.52L1278.07 266.107L1275.28 263.32L1275.88 262.724L1278.07 260.532L1280.86 263.32L1280.29 263.884Z" fill="#E3B4C2" fill-opacity="0.13"/>
<path d="M1278.07 300.436L1276.68 301.826L1275.52 300.659L1278.07 298.11L1284.86 304.9L1282.29 307.472L1281.13 306.305L1282.53 304.9L1278.07 300.436Z" fill="#E3B4C2" fill-opacity="0.13"/>
<path d="M1273.88 302.295L1275.04 303.462L1273.61 304.9L1278.07 309.364L1279.49 307.941L1280.65 309.108L1278.07 311.69L1271.28 304.9L1273.88 302.295Z" fill="#E3B4C2" fill-opacity="0.13"/>
<path d="M1280.29 305.464L1278.66 307.1L1278.07 307.687L1275.28 304.9L1275.88 304.303L1278.07 302.112L1280.86 304.9L1280.29 305.464Z" fill="#E3B4C2" fill-opacity="0.13"/>
<path d="M1278.07 342.016L1276.68 343.406L1275.52 342.239L1278.07 339.69L1284.86 346.48L1282.29 349.052L1281.13 347.885L1282.53 346.48L1278.07 342.016Z" fill="#E3B4C2" fill-opacity="0.13"/>
<path d="M1273.88 343.875L1275.04 345.042L1273.61 346.48L1278.07 350.944L1279.49 349.521L1280.65 350.688L1278.07 353.27L1271.28 346.48L1273.88 343.875Z" fill="#E3B4C2" fill-opacity="0.13"/>
<path d="M1280.29 347.044L1278.66 348.68L1278.07 349.267L1275.28 346.48L1275.88 345.883L1278.07 343.692L1280.86 346.48L1280.29 347.044Z" fill="#E3B4C2" fill-opacity="0.13"/>
<path d="M1278.07 383.596L1276.68 384.986L1275.52 383.819L1278.07 381.27L1284.86 388.06L1282.29 390.632L1281.13 389.465L1282.53 388.06L1278.07 383.596Z" fill="#E3B4C2" fill-opacity="0.13"/>
<path d="M1273.88 385.455L1275.04 386.622L1273.61 388.06L1278.07 392.524L1279.49 391.101L1280.65 392.268L1278.07 394.85L1271.28 388.06L1273.88 385.455Z" fill="#E3B4C2" fill-opacity="0.13"/>
<path d="M1280.29 388.624L1278.66 390.26L1278.07 390.847L1275.28 388.06L1275.88 387.463L1278.07 385.272L1280.86 388.06L1280.29 388.624Z" fill="#E3B4C2" fill-opacity="0.13"/>
<path d="M1278.07 425.176L1276.68 426.566L1275.52 425.399L1278.07 422.85L1284.86 429.64L1282.29 432.212L1281.13 431.045L1282.53 429.64L1278.07 425.176Z" fill="#E3B4C2" fill-opacity="0.13"/>
<path d="M1273.88 427.035L1275.04 428.202L1273.61 429.64L1278.07 434.104L1279.49 432.681L1280.65 433.848L1278.07 436.43L1271.28 429.64L1273.88 427.035Z" fill="#E3B4C2" fill-opacity="0.13"/>
<path d="M1280.29 430.204L1278.66 431.84L1278.07 432.427L1275.28 429.64L1275.88 429.043L1278.07 426.852L1280.86 429.64L1280.29 430.204Z" fill="#E3B4C2" fill-opacity="0.13"/>
<path d="M1278.07 466.756L1276.68 468.146L1275.52 466.979L1278.07 464.43L1284.86 471.22L1282.29 473.792L1281.13 472.625L1282.53 471.22L1278.07 466.756Z" fill="#E3B4C2" fill-opacity="0.13"/>
<path d="M1273.88 468.615L1275.04 469.782L1273.61 471.22L1278.07 475.684L1279.49 474.261L1280.65 475.428L1278.07 478.01L1271.28 471.22L1273.88 468.615Z" fill="#E3B4C2" fill-opacity="0.13"/>
<path d="M1280.29 471.784L1278.66 473.42L1278.07 474.007L1275.28 471.22L1275.88 470.623L1278.07 468.432L1280.86 471.22L1280.29 471.784Z" fill="#E3B4C2" fill-opacity="0.13"/>
<path d="M1278.07 508.336L1276.68 509.726L1275.52 508.559L1278.07 506.01L1284.86 512.8L1282.29 515.372L1281.13 514.205L1282.53 512.8L1278.07 508.336Z" fill="#E3B4C2" fill-opacity="0.13"/>
<path d="M1273.88 510.195L1275.04 511.362L1273.61 512.8L1278.07 517.264L1279.49 515.841L1280.65 517.008L1278.07 519.59L1271.28 512.8L1273.88 510.195Z" fill="#E3B4C2" fill-opacity="0.13"/>
<path d="M1280.29 513.364L1278.66 515L1278.07 515.587L1275.28 512.8L1275.88 512.203L1278.07 510.012L1280.86 512.8L1280.29 513.364Z" fill="#E3B4C2" fill-opacity="0.13"/>
<path d="M1278.07 549.916L1276.68 551.306L1275.52 550.139L1278.07 547.59L1284.86 554.38L1282.29 556.952L1281.13 555.785L1282.53 554.38L1278.07 549.916Z" fill="#E3B4C2" fill-opacity="0.13"/>
<path d="M1273.88 551.775L1275.04 552.942L1273.61 554.38L1278.07 558.843L1279.49 557.421L1280.65 558.588L1278.07 561.17L1271.28 554.38L1273.88 551.775Z" fill="#E3B4C2" fill-opacity="0.13"/>
<path d="M1280.29 554.944L1278.66 556.58L1278.07 557.167L1275.28 554.38L1275.88 553.783L1278.07 551.592L1280.86 554.38L1280.29 554.944Z" fill="#E3B4C2" fill-opacity="0.13"/>
<path d="M1355.65 196.486L1354.26 197.876L1353.1 196.709L1355.65 194.16L1362.44 200.95L1359.87 203.522L1358.71 202.355L1360.11 200.95L1355.65 196.486Z" fill="#E3B4C2" fill-opacity="0.13"/>
<path d="M1351.46 198.346L1352.62 199.512L1351.19 200.95L1355.65 205.414L1357.07 203.992L1358.23 205.158L1355.65 207.74L1348.86 200.95L1351.46 198.346Z" fill="#E3B4C2" fill-opacity="0.13"/>
<path d="M1357.87 201.514L1356.24 203.15L1355.65 203.737L1352.86 200.95L1353.46 200.354L1355.65 198.162L1358.44 200.95L1357.87 201.514Z" fill="#E3B4C2" fill-opacity="0.13"/>
<path d="M1355.65 238.066L1354.26 239.456L1353.1 238.289L1355.65 235.74L1362.44 242.53L1359.87 245.102L1358.71 243.935L1360.11 242.53L1355.65 238.066Z" fill="#E3B4C2" fill-opacity="0.13"/>
<path d="M1351.46 239.926L1352.62 241.092L1351.19 242.53L1355.65 246.994L1357.07 245.571L1358.23 246.738L1355.65 249.32L1348.86 242.53L1351.46 239.926Z" fill="#E3B4C2" fill-opacity="0.13"/>
<path d="M1357.87 243.094L1356.24 244.73L1355.65 245.317L1352.86 242.53L1353.46 241.934L1355.65 239.742L1358.44 242.53L1357.87 243.094Z" fill="#E3B4C2" fill-opacity="0.13"/>
<path d="M1355.65 279.646L1354.26 281.036L1353.1 279.869L1355.65 277.32L1362.44 284.11L1359.87 286.682L1358.71 285.515L1360.11 284.11L1355.65 279.646Z" fill="#E3B4C2" fill-opacity="0.13"/>
<path d="M1351.46 281.505L1352.62 282.672L1351.19 284.11L1355.65 288.574L1357.07 287.151L1358.23 288.318L1355.65 290.9L1348.86 284.11L1351.46 281.505Z" fill="#E3B4C2" fill-opacity="0.13"/>
<path d="M1357.87 284.674L1356.24 286.31L1355.65 286.897L1352.86 284.11L1353.46 283.513L1355.65 281.322L1358.44 284.11L1357.87 284.674Z" fill="#E3B4C2" fill-opacity="0.13"/>
<path d="M1355.65 321.226L1354.26 322.616L1353.1 321.449L1355.65 318.9L1362.44 325.69L1359.87 328.262L1358.71 327.095L1360.11 325.69L1355.65 321.226Z" fill="#E3B4C2" fill-opacity="0.13"/>
<path d="M1351.46 323.085L1352.62 324.252L1351.19 325.69L1355.65 330.154L1357.07 328.731L1358.23 329.898L1355.65 332.48L1348.86 325.69L1351.46 323.085Z" fill="#E3B4C2" fill-opacity="0.13"/>
<path d="M1357.87 326.254L1356.24 327.89L1355.65 328.477L1352.86 325.69L1353.46 325.093L1355.65 322.902L1358.44 325.69L1357.87 326.254Z" fill="#E3B4C2" fill-opacity="0.13"/>
<path d="M1355.65 362.806L1354.26 364.196L1353.1 363.029L1355.65 360.48L1362.44 367.27L1359.87 369.842L1358.71 368.675L1360.11 367.27L1355.65 362.806Z" fill="#E3B4C2" fill-opacity="0.13"/>
<path d="M1351.46 364.665L1352.62 365.832L1351.19 367.27L1355.65 371.734L1357.07 370.311L1358.23 371.478L1355.65 374.06L1348.86 367.27L1351.46 364.665Z" fill="#E3B4C2" fill-opacity="0.13"/>
<path d="M1357.87 367.834L1356.24 369.47L1355.65 370.057L1352.86 367.27L1353.46 366.673L1355.65 364.482L1358.44 367.27L1357.87 367.834Z" fill="#E3B4C2" fill-opacity="0.13"/>
<path d="M1355.65 404.386L1354.26 405.776L1353.1 404.609L1355.65 402.06L1362.44 408.85L1359.87 411.422L1358.71 410.255L1360.11 408.85L1355.65 404.386Z" fill="#E3B4C2" fill-opacity="0.13"/>
<path d="M1351.46 406.245L1352.62 407.412L1351.19 408.85L1355.65 413.314L1357.07 411.891L1358.23 413.058L1355.65 415.64L1348.86 408.85L1351.46 406.245Z" fill="#E3B4C2" fill-opacity="0.13"/>
<path d="M1357.87 409.414L1356.24 411.05L1355.65 411.637L1352.86 408.85L1353.46 408.253L1355.65 406.062L1358.44 408.85L1357.87 409.414Z" fill="#E3B4C2" fill-opacity="0.13"/>
<path d="M1355.65 445.966L1354.26 447.356L1353.1 446.189L1355.65 443.64L1362.44 450.43L1359.87 453.002L1358.71 451.835L1360.11 450.43L1355.65 445.966Z" fill="#E3B4C2" fill-opacity="0.13"/>
<path d="M1351.46 447.825L1352.62 448.992L1351.19 450.43L1355.65 454.894L1357.07 453.471L1358.23 454.638L1355.65 457.22L1348.86 450.43L1351.46 447.825Z" fill="#E3B4C2" fill-opacity="0.13"/>
<path d="M1357.87 450.994L1356.24 452.63L1355.65 453.217L1352.86 450.43L1353.46 449.833L1355.65 447.642L1358.44 450.43L1357.87 450.994Z" fill="#E3B4C2" fill-opacity="0.13"/>
<path d="M1355.65 487.546L1354.26 488.936L1353.1 487.769L1355.65 485.22L1362.44 492.01L1359.87 494.582L1358.71 493.415L1360.11 492.01L1355.65 487.546Z" fill="#E3B4C2" fill-opacity="0.13"/>
<path d="M1351.46 489.405L1352.62 490.572L1351.19 492.01L1355.65 496.474L1357.07 495.051L1358.23 496.218L1355.65 498.8L1348.86 492.01L1351.46 489.405Z" fill="#E3B4C2" fill-opacity="0.13"/>
<path d="M1357.87 492.574L1356.24 494.21L1355.65 494.797L1352.86 492.01L1353.46 491.413L1355.65 489.222L1358.44 492.01L1357.87 492.574Z" fill="#E3B4C2" fill-opacity="0.13"/>
<path d="M1355.65 529.126L1354.26 530.516L1353.1 529.349L1355.65 526.8L1362.44 533.59L1359.87 536.162L1358.71 534.995L1360.11 533.59L1355.65 529.126Z" fill="#E3B4C2" fill-opacity="0.13"/>
<path d="M1351.46 530.985L1352.62 532.152L1351.19 533.59L1355.65 538.053L1357.07 536.631L1358.23 537.798L1355.65 540.38L1348.86 533.59L1351.46 530.985Z" fill="#E3B4C2" fill-opacity="0.13"/>
<path d="M1357.87 534.154L1356.24 535.79L1355.65 536.377L1352.86 533.59L1353.46 532.993L1355.65 530.802L1358.44 533.59L1357.87 534.154Z" fill="#E3B4C2" fill-opacity="0.13"/>
<path d="M1433.23 113.326L1431.84 114.716L1430.68 113.549L1433.23 111L1440.02 117.79L1437.45 120.362L1436.29 119.195L1437.69 117.79L1433.23 113.326Z" fill="#E3B4C2" fill-opacity="0.13"/>
<path d="M1429.04 115.186L1430.2 116.352L1428.77 117.79L1433.23 122.254L1434.65 120.832L1435.81 121.998L1433.23 124.58L1426.44 117.79L1429.04 115.186Z" fill="#E3B4C2" fill-opacity="0.13"/>
<path d="M1435.45 118.354L1433.82 119.99L1433.23 120.577L1430.44 117.79L1431.04 117.194L1433.23 115.002L1436.02 117.79L1435.45 118.354Z" fill="#E3B4C2" fill-opacity="0.13"/>
<path d="M1433.23 154.906L1431.84 156.296L1430.68 155.129L1433.23 152.58L1440.02 159.37L1437.45 161.942L1436.29 160.775L1437.69 159.37L1433.23 154.906Z" fill="#E3B4C2" fill-opacity="0.13"/>
<path d="M1429.04 156.766L1430.2 157.932L1428.77 159.37L1433.23 163.834L1434.65 162.412L1435.81 163.578L1433.23 166.16L1426.44 159.37L1429.04 156.766Z" fill="#E3B4C2" fill-opacity="0.13"/>
<path d="M1435.45 159.934L1433.82 161.57L1433.23 162.157L1430.44 159.37L1431.04 158.774L1433.23 156.582L1436.02 159.37L1435.45 159.934Z" fill="#E3B4C2" fill-opacity="0.13"/>
<path d="M1433.23 196.486L1431.84 197.876L1430.68 196.709L1433.23 194.16L1440.02 200.95L1437.45 203.522L1436.29 202.355L1437.69 200.95L1433.23 196.486Z" fill="#E3B4C2" fill-opacity="0.13"/>
<path d="M1429.04 198.346L1430.2 199.512L1428.77 200.95L1433.23 205.414L1434.65 203.992L1435.81 205.158L1433.23 207.74L1426.44 200.95L1429.04 198.346Z" fill="#E3B4C2" fill-opacity="0.13"/>
<path d="M1435.45 201.514L1433.82 203.15L1433.23 203.737L1430.44 200.95L1431.04 200.354L1433.23 198.162L1436.02 200.95L1435.45 201.514Z" fill="#E3B4C2" fill-opacity="0.13"/>
<path d="M1433.23 238.066L1431.84 239.456L1430.68 238.289L1433.23 235.74L1440.02 242.53L1437.45 245.102L1436.29 243.935L1437.69 242.53L1433.23 238.066Z" fill="#E3B4C2" fill-opacity="0.13"/>
<path d="M1429.04 239.926L1430.2 241.092L1428.77 242.53L1433.23 246.994L1434.65 245.571L1435.81 246.738L1433.23 249.32L1426.44 242.53L1429.04 239.926Z" fill="#E3B4C2" fill-opacity="0.13"/>
<path d="M1435.45 243.094L1433.82 244.73L1433.23 245.317L1430.44 242.53L1431.04 241.934L1433.23 239.742L1436.02 242.53L1435.45 243.094Z" fill="#E3B4C2" fill-opacity="0.13"/>
<path d="M1433.23 279.646L1431.84 281.036L1430.68 279.869L1433.23 277.32L1440.02 284.11L1437.45 286.682L1436.29 285.515L1437.69 284.11L1433.23 279.646Z" fill="#E3B4C2" fill-opacity="0.13"/>
<path d="M1429.04 281.505L1430.2 282.672L1428.77 284.11L1433.23 288.574L1434.65 287.151L1435.81 288.318L1433.23 290.9L1426.44 284.11L1429.04 281.505Z" fill="#E3B4C2" fill-opacity="0.13"/>
<path d="M1435.45 284.674L1433.82 286.31L1433.23 286.897L1430.44 284.11L1431.04 283.513L1433.23 281.322L1436.02 284.11L1435.45 284.674Z" fill="#E3B4C2" fill-opacity="0.13"/>
<path d="M1433.23 321.226L1431.84 322.616L1430.68 321.449L1433.23 318.9L1440.02 325.69L1437.45 328.262L1436.29 327.095L1437.69 325.69L1433.23 321.226Z" fill="#E3B4C2" fill-opacity="0.13"/>
<path d="M1429.04 323.085L1430.2 324.252L1428.77 325.69L1433.23 330.154L1434.65 328.731L1435.81 329.898L1433.23 332.48L1426.44 325.69L1429.04 323.085Z" fill="#E3B4C2" fill-opacity="0.13"/>
<path d="M1435.45 326.254L1433.82 327.89L1433.23 328.477L1430.44 325.69L1431.04 325.093L1433.23 322.902L1436.02 325.69L1435.45 326.254Z" fill="#E3B4C2" fill-opacity="0.13"/>
<path d="M1433.23 362.806L1431.84 364.196L1430.68 363.029L1433.23 360.48L1440.02 367.27L1437.45 369.842L1436.29 368.675L1437.69 367.27L1433.23 362.806Z" fill="#E3B4C2" fill-opacity="0.13"/>
<path d="M1429.04 364.665L1430.2 365.832L1428.77 367.27L1433.23 371.734L1434.65 370.311L1435.81 371.478L1433.23 374.06L1426.44 367.27L1429.04 364.665Z" fill="#E3B4C2" fill-opacity="0.13"/>
<path d="M1435.45 367.834L1433.82 369.47L1433.23 370.057L1430.44 367.27L1431.04 366.673L1433.23 364.482L1436.02 367.27L1435.45 367.834Z" fill="#E3B4C2" fill-opacity="0.13"/>
<path d="M1433.23 404.386L1431.84 405.776L1430.68 404.609L1433.23 402.06L1440.02 408.85L1437.45 411.422L1436.29 410.255L1437.69 408.85L1433.23 404.386Z" fill="#E3B4C2" fill-opacity="0.13"/>
<path d="M1429.04 406.245L1430.2 407.412L1428.77 408.85L1433.23 413.314L1434.65 411.891L1435.81 413.058L1433.23 415.64L1426.44 408.85L1429.04 406.245Z" fill="#E3B4C2" fill-opacity="0.13"/>
<path d="M1435.45 409.414L1433.82 411.05L1433.23 411.637L1430.44 408.85L1431.04 408.253L1433.23 406.062L1436.02 408.85L1435.45 409.414Z" fill="#E3B4C2" fill-opacity="0.13"/>
<path d="M1433.23 445.966L1431.84 447.356L1430.68 446.189L1433.23 443.64L1440.02 450.43L1437.45 453.002L1436.29 451.835L1437.69 450.43L1433.23 445.966Z" fill="#E3B4C2" fill-opacity="0.13"/>
<path d="M1429.04 447.825L1430.2 448.992L1428.77 450.43L1433.23 454.894L1434.65 453.471L1435.81 454.638L1433.23 457.22L1426.44 450.43L1429.04 447.825Z" fill="#E3B4C2" fill-opacity="0.13"/>
<path d="M1435.45 450.994L1433.82 452.63L1433.23 453.217L1430.44 450.43L1431.04 449.833L1433.23 447.642L1436.02 450.43L1435.45 450.994Z" fill="#E3B4C2" fill-opacity="0.13"/>
<path d="M1433.23 487.546L1431.84 488.936L1430.68 487.769L1433.23 485.22L1440.02 492.01L1437.45 494.582L1436.29 493.415L1437.69 492.01L1433.23 487.546Z" fill="#E3B4C2" fill-opacity="0.13"/>
<path d="M1429.04 489.405L1430.2 490.572L1428.77 492.01L1433.23 496.474L1434.65 495.051L1435.81 496.218L1433.23 498.8L1426.44 492.01L1429.04 489.405Z" fill="#E3B4C2" fill-opacity="0.13"/>
<path d="M1435.45 492.574L1433.82 494.21L1433.23 494.797L1430.44 492.01L1431.04 491.413L1433.23 489.222L1436.02 492.01L1435.45 492.574Z" fill="#E3B4C2" fill-opacity="0.13"/>
<path d="M1433.23 529.126L1431.84 530.516L1430.68 529.349L1433.23 526.8L1440.02 533.59L1437.45 536.162L1436.29 534.995L1437.69 533.59L1433.23 529.126Z" fill="#E3B4C2" fill-opacity="0.13"/>
<path d="M1429.04 530.985L1430.2 532.152L1428.77 533.59L1433.23 538.053L1434.65 536.631L1435.81 537.798L1433.23 540.38L1426.44 533.59L1429.04 530.985Z" fill="#E3B4C2" fill-opacity="0.13"/>
<path d="M1435.45 534.154L1433.82 535.79L1433.23 536.377L1430.44 533.59L1431.04 532.993L1433.23 530.802L1436.02 533.59L1435.45 534.154Z" fill="#E3B4C2" fill-opacity="0.13"/>
</g>
<defs>
<linearGradient id="paint0_linear_171_15193" x1="2132" y1="-132.183" x2="-384.069" y2="539.12" gradientUnits="userSpaceOnUse">
<stop stop-color="#D2446E"/>
<stop offset="0.591806" stop-color="#C65F5D"/>
<stop offset="1" stop-color="#72328A"/>
</linearGradient>
<clipPath id="clip0_171_15193">
<path d="M0 50C0 22.3858 22.3858 0 50 0H1440V557H0V50Z" fill="white"/>
</clipPath>
</defs>
</svg>
