<svg width="20" height="20" viewBox="0 0 20 20" fill="none" xmlns="http://www.w3.org/2000/svg">
<path d="M18.3376 5.83333H19.1709V14.1667H18.3376V16.6667C18.3376 17.1269 17.9645 17.5 17.5042 17.5H2.50423C2.044 17.5 1.6709 17.1269 1.6709 16.6667V3.33333C1.6709 2.8731 2.044 2.5 2.50423 2.5H17.5042C17.9645 2.5 18.3376 2.8731 18.3376 3.33333V5.83333ZM16.6709 14.1667H11.6709C9.36975 14.1667 7.50423 12.3012 7.50423 10C7.50423 7.69882 9.36975 5.83333 11.6709 5.83333H16.6709V4.16667H3.33757V15.8333H16.6709V14.1667ZM17.5042 12.5V7.5H11.6709C10.2902 7.5 9.17092 8.61925 9.17092 10C9.17092 11.3807 10.2902 12.5 11.6709 12.5H17.5042ZM11.6709 9.16667H14.1709V10.8333H11.6709V9.16667Z" fill="#626262" fill-opacity="0.4"/>
</svg>
