<svg width="18" height="18" viewBox="0 0 18 18" fill="none" xmlns="http://www.w3.org/2000/svg">
<path opacity="0.4" d="M4.7625 10.75C4.14449 10.75 3.57524 10.964 3.125 11.3217V5.25C3.125 3.74643 3.32506 3.00705 3.72855 2.60355C4.13205 2.20006 4.87143 2 6.375 2H11.625C13.1286 2 13.868 2.20006 14.2714 2.60355C14.6749 3.00705 14.875 3.74643 14.875 5.25V10.75H4.7625Z"/>
<path d="M14.875 11.75V13.875C14.875 15.0464 13.9214 16 12.75 16H5.25C4.07864 16 3.125 15.0464 3.125 13.875V13.3875C3.125 12.4861 3.86114 11.75 4.7625 11.75H14.875Z"/>
<path d="M12 5.8125H6C5.6925 5.8125 5.4375 5.5575 5.4375 5.25C5.4375 4.9425 5.6925 4.6875 6 4.6875H12C12.3075 4.6875 12.5625 4.9425 12.5625 5.25C12.5625 5.5575 12.3075 5.8125 12 5.8125Z" />
<path d="M9.75 8.4375H6C5.6925 8.4375 5.4375 8.1825 5.4375 7.875C5.4375 7.5675 5.6925 7.3125 6 7.3125H9.75C10.0575 7.3125 10.3125 7.5675 10.3125 7.875C10.3125 8.1825 10.0575 8.4375 9.75 8.4375Z"/>
</svg>
