<svg width="16" height="16" viewBox="0 0 16 16" fill="none" xmlns="http://www.w3.org/2000/svg">
<path d="M8.66683 14.6667H3.3335C2.00016 14.6667 1.3335 14 1.3335 12.6667V7.33333C1.3335 5.99999 2.00016 5.33333 3.3335 5.33333H6.66683V12.6667C6.66683 14 7.3335 14.6667 8.66683 14.6667Z" stroke="#BBBEC4" stroke-width="1.5" stroke-miterlimit="10" stroke-linecap="round" stroke-linejoin="round"/>
<path d="M6.74015 2.66667C6.68682 2.86667 6.66683 3.08667 6.66683 3.33334V5.33334H3.3335V4.00001C3.3335 3.26667 3.9335 2.66667 4.66683 2.66667H6.74015Z" stroke="#BBBEC4" stroke-width="1.5" stroke-miterlimit="10" stroke-linecap="round" stroke-linejoin="round"/>
<path d="M9.3335 5.33333V8.66666" stroke="#BBBEC4" stroke-width="1.5" stroke-miterlimit="10" stroke-linecap="round" stroke-linejoin="round"/>
<path d="M12 5.33333V8.66666" stroke="#BBBEC4" stroke-width="1.5" stroke-miterlimit="10" stroke-linecap="round" stroke-linejoin="round"/>
<path d="M11.3335 11.3333H10.0002C9.6335 11.3333 9.3335 11.6333 9.3335 12V14.6667H12.0002V12C12.0002 11.6333 11.7002 11.3333 11.3335 11.3333Z" stroke="#BBBEC4" stroke-width="1.5" stroke-miterlimit="10" stroke-linecap="round" stroke-linejoin="round"/>
<path d="M4 8.66667V11.3333" stroke="#BBBEC4" stroke-width="1.5" stroke-miterlimit="10" stroke-linecap="round" stroke-linejoin="round"/>
<path d="M6.6665 12.6667V3.33333C6.6665 1.99999 7.33317 1.33333 8.6665 1.33333H12.6665C13.9998 1.33333 14.6665 1.99999 14.6665 3.33333V12.6667C14.6665 14 13.9998 14.6667 12.6665 14.6667H8.6665C7.33317 14.6667 6.6665 14 6.6665 12.6667Z" stroke="#BBBEC4" stroke-width="1.5" stroke-miterlimit="10" stroke-linecap="round" stroke-linejoin="round"/>
</svg>
