<svg width="16" height="16" viewBox="0 0 16 16" fill="none" xmlns="http://www.w3.org/2000/svg">
<path d="M4.50662 14.6667H11.4933C13.3333 14.6667 14.0666 13.54 14.1533 12.1667L14.4999 6.66C14.5933 5.22 13.4466 4 11.9999 4C11.5933 4 11.2199 3.76667 11.0333 3.40667L10.5533 2.44C10.2466 1.83333 9.44662 1.33333 8.76662 1.33333H7.23995C6.55328 1.33333 5.75328 1.83333 5.44662 2.44L4.96662 3.40667C4.77995 3.76667 4.40662 4 3.99995 4C2.55328 4 1.40662 5.22 1.49995 6.66L1.84662 12.1667C1.92662 13.54 2.66662 14.6667 4.50662 14.6667Z" stroke="#292D32" stroke-width="1.5" stroke-linecap="round" stroke-linejoin="round"/>
<path d="M7 5.33333H9" stroke="#292D32" stroke-width="1.5" stroke-linecap="round" stroke-linejoin="round"/>
<path d="M8.00016 12C9.1935 12 10.1668 11.0267 10.1668 9.83333C10.1668 8.64 9.1935 7.66667 8.00016 7.66667C6.80683 7.66667 5.8335 8.64 5.8335 9.83333C5.8335 11.0267 6.80683 12 8.00016 12Z" stroke="#292D32" stroke-width="1.5" stroke-linecap="round" stroke-linejoin="round"/>
</svg>
