<svg width="20" height="20" viewBox="0 0 20 20" fill="none" xmlns="http://www.w3.org/2000/svg">
<path d="M16.7359 12.6665L17.7377 13.2676C17.9349 13.386 17.9989 13.6419 17.8806 13.8393C17.8453 13.8978 17.7963 13.9469 17.7377 13.9822L10.4285 18.3676C10.1646 18.5259 9.83492 18.5259 9.571 18.3676L2.26193 13.9822C2.0646 13.8638 2.00061 13.6078 2.11901 13.4105C2.1542 13.3518 2.20328 13.3028 2.26193 13.2676L3.26367 12.6665L9.99975 16.7082L16.7359 12.6665ZM16.7359 8.74984L17.7377 9.35092C17.9349 9.46934 17.9989 9.72525 17.8806 9.92259C17.8453 9.98117 17.7963 10.0303 17.7377 10.0655L9.99975 14.7082L2.26193 10.0655C2.0646 9.94709 2.00061 9.69117 2.11901 9.49384C2.1542 9.43517 2.20328 9.38609 2.26193 9.35092L3.26367 8.74984L9.99975 12.7915L16.7359 8.74984ZM10.4285 1.09044L17.7377 5.4759C17.9349 5.59429 17.9989 5.85024 17.8806 6.04756C17.8453 6.10621 17.7963 6.15529 17.7377 6.19048L9.99975 10.8332L2.26193 6.19048C2.0646 6.07209 2.00061 5.81614 2.11901 5.61882C2.1542 5.56017 2.20328 5.51109 2.26193 5.4759L9.571 1.09044C9.83492 0.932094 10.1646 0.932094 10.4285 1.09044ZM9.99975 2.77684L4.90586 5.83319L9.99975 8.8895L15.0937 5.83319L9.99975 2.77684Z" fill="#626262" fill-opacity="0.4"/>
</svg>
