<svg width="18" height="18" viewBox="0 0 18 18" fill="none" xmlns="http://www.w3.org/2000/svg">
<path d="M16.5 16.5H1.5C1.1925 16.5 0.9375 16.245 0.9375 15.9375C0.9375 15.63 1.1925 15.375 1.5 15.375H16.5C16.8075 15.375 17.0625 15.63 17.0625 15.9375C17.0625 16.245 16.8075 16.5 16.5 16.5Z"/>
<path d="M7.3125 3V16.5H10.6875V3C10.6875 2.175 10.35 1.5 9.3375 1.5H8.6625C7.65 1.5 7.3125 2.175 7.3125 3Z"/>
<path opacity="0.4" d="M2.25 7.5V16.5H5.25V7.5C5.25 6.675 4.95 6 4.05 6H3.45C2.55 6 2.25 6.675 2.25 7.5Z"/>
<path opacity="0.4" d="M12.75 11.25V16.5H15.75V11.25C15.75 10.425 15.45 9.75 14.55 9.75H13.95C13.05 9.75 12.75 10.425 12.75 11.25Z"/>
</svg>
