<svg width="20" height="20" viewBox="0 0 20 20" fill="none" xmlns="http://www.w3.org/2000/svg">
<path d="M13.3332 16.6665V3.33317H3.33317V15.8332C3.33317 16.2934 3.70627 16.6665 4.1665 16.6665H13.3332ZM15.8332 18.3332H4.1665C2.7858 18.3332 1.6665 17.2139 1.6665 15.8332V2.49984C1.6665 2.0396 2.0396 1.6665 2.49984 1.6665H14.1665C14.6268 1.6665 14.9998 2.0396 14.9998 2.49984V8.33317H18.3332V15.8332C18.3332 17.2139 17.2139 18.3332 15.8332 18.3332ZM14.9998 9.99984V15.8332C14.9998 16.2934 15.3729 16.6665 15.8332 16.6665C16.2934 16.6665 16.6665 16.2934 16.6665 15.8332V9.99984H14.9998ZM4.99984 4.99984H9.99984V9.99984H4.99984V4.99984ZM6.6665 6.6665V8.33317H8.33317V6.6665H6.6665ZM4.99984 10.8332H11.6665V12.4998H4.99984V10.8332ZM4.99984 13.3332H11.6665V14.9998H4.99984V13.3332Z" fill="#626262" fill-opacity="0.4"/>
</svg>
