<svg width="20" height="20" viewBox="0 0 20 20" fill="none" xmlns="http://www.w3.org/2000/svg">
<path d="M13.3332 16.6667V3.33341H3.33317V15.8334C3.33317 16.2937 3.70627 16.6667 4.1665 16.6667H13.3332ZM15.8332 18.3334H4.1665C2.7858 18.3334 1.6665 17.2142 1.6665 15.8334V2.50008C1.6665 2.03985 2.0396 1.66675 2.49984 1.66675H14.1665C14.6268 1.66675 14.9998 2.03985 14.9998 2.50008V8.33341H18.3332V15.8334C18.3332 17.2142 17.2139 18.3334 15.8332 18.3334ZM14.9998 10.0001V15.8334C14.9998 16.2937 15.3729 16.6667 15.8332 16.6667C16.2934 16.6667 16.6665 16.2937 16.6665 15.8334V10.0001H14.9998ZM4.99984 5.00008H9.99984V10.0001H4.99984V5.00008ZM6.6665 6.66675V8.33341H8.33317V6.66675H6.6665ZM4.99984 10.8334H11.6665V12.5001H4.99984V10.8334ZM4.99984 13.3334H11.6665V15.0001H4.99984V13.3334Z" fill="#34A3A4"/>
</svg>
