<svg width="12" height="12" viewBox="0 0 12 12" fill="none" xmlns="http://www.w3.org/2000/svg">
<path d="M5.99993 1.85156C5.18442 1.85156 4.38723 2.09542 3.70924 2.55227C3.03126 3.00912 2.50293 3.65844 2.19113 4.41806C1.87932 5.17769 1.79804 6.01348 1.95757 6.81968C2.11711 7.62588 2.51029 8.36626 3.08736 8.94714C3.66443 9.52802 4.39946 9.92329 5.19945 10.0829C5.99943 10.2426 6.82842 10.1594 7.58151 9.84401C8.3346 9.52858 8.97796 8.99505 9.43016 8.31093C9.88237 7.62681 10.1231 6.82284 10.1219 6.00076C10.1203 4.89977 9.68536 3.84442 8.9125 3.06647C8.13965 2.28851 7.09211 1.85156 5.99993 1.85156ZM5.99993 9.71447C5.27367 9.71447 4.56373 9.49737 3.95987 9.09063C3.35602 8.68389 2.88537 8.10578 2.60744 7.4294C2.32952 6.75302 2.2568 6.00875 2.39848 5.2907C2.54017 4.57266 2.88989 3.9131 3.40343 3.39542C3.91697 2.87774 4.57126 2.52519 5.28356 2.38237C5.99585 2.23954 6.73417 2.31284 7.40514 2.59301C8.07611 2.87317 8.6496 3.34762 9.05308 3.95635C9.45657 4.56507 9.67193 5.28074 9.67193 6.01285C9.66088 6.98778 9.26933 7.91909 8.58206 8.60511C7.89479 9.29113 6.96712 9.67665 5.99993 9.67817V9.71447Z" fill="#667085"/>
<path d="M6.21578 6.04928V3.76299C6.20704 3.70919 6.17961 3.66028 6.13839 3.62498C6.09718 3.58969 6.04486 3.57031 5.99078 3.57031C5.9367 3.57031 5.88438 3.58969 5.84317 3.62498C5.80195 3.66028 5.77452 3.70919 5.76578 3.76299V6.12791C5.76297 6.14594 5.76297 6.16431 5.76578 6.18234C5.76297 6.19428 5.76297 6.2067 5.76578 6.21863V6.24888L5.79578 6.29121L7.13378 7.50089C7.15358 7.52046 7.17703 7.53588 7.20278 7.54626C7.22852 7.55664 7.25605 7.56178 7.28378 7.56138C7.32948 7.5624 7.37439 7.54918 7.41236 7.52351C7.45033 7.49785 7.47951 7.46099 7.49593 7.41798C7.51234 7.37496 7.51517 7.32789 7.50405 7.28319C7.49293 7.23849 7.46839 7.19834 7.43378 7.16823L6.21578 6.04928Z" fill="#667085"/>
</svg>
