<svg width="18" height="18" viewBox="0 0 18 18" fill="none" xmlns="http://www.w3.org/2000/svg">
<path opacity="0.4" d="M9 16.5C13.1421 16.5 16.5 13.1421 16.5 9C16.5 4.85786 13.1421 1.5 9 1.5C4.85786 1.5 1.5 4.85786 1.5 9C1.5 13.1421 4.85786 16.5 9 16.5Z"/>
<path d="M11.7822 11.9476C11.6847 11.9476 11.5872 11.9251 11.4972 11.8651L9.17224 10.4776C8.59474 10.1326 8.16724 9.37507 8.16724 8.70757V5.63257C8.16724 5.32507 8.42224 5.07007 8.72974 5.07007C9.03724 5.07007 9.29224 5.32507 9.29224 5.63257V8.70757C9.29224 8.97757 9.51724 9.37507 9.74974 9.51007L12.0747 10.8976C12.3447 11.0551 12.4272 11.4001 12.2697 11.6701C12.1572 11.8501 11.9697 11.9476 11.7822 11.9476Z"/>
</svg>
