<svg width="20" height="18" viewBox="0 0 20 18" fill="none" xmlns="http://www.w3.org/2000/svg">
<path d="M10.8332 9.83317V14.4873L12.3566 12.964L13.5357 14.1432L9.99991 17.6782L6.46408 14.1432L7.64324 12.964L9.16658 14.4873V9.83317H10.8332ZM9.99991 0.666504C11.4307 0.666572 12.8116 1.19243 13.8801 2.1441C14.9485 3.09577 15.63 4.40689 15.7949 5.82817C16.8318 6.11093 17.7363 6.74909 18.3505 7.63111C18.9646 8.51313 19.2492 9.58291 19.1546 10.6535C19.06 11.7241 18.5922 12.7274 17.8329 13.488C17.0736 14.2487 16.0712 14.7183 15.0007 14.8148V13.1365C15.3842 13.0817 15.7529 12.9511 16.0854 12.7523C16.4178 12.5535 16.7074 12.2904 16.937 11.9785C17.1667 11.6666 17.332 11.312 17.4231 10.9355C17.5143 10.5591 17.5296 10.1682 17.468 9.78573C17.4065 9.40328 17.2694 9.03693 17.0647 8.70805C16.86 8.37917 16.5919 8.09435 16.2759 7.87023C15.96 7.64611 15.6025 7.48716 15.2245 7.40268C14.8465 7.3182 14.4554 7.30986 14.0741 7.37817C14.2046 6.77058 14.1975 6.14148 14.0534 5.53696C13.9093 4.93245 13.6318 4.36782 13.2412 3.88445C12.8507 3.40107 12.3569 3.01118 11.7961 2.74333C11.2354 2.47549 10.6218 2.33648 10.0003 2.33648C9.37887 2.33648 8.76529 2.47549 8.20452 2.74333C7.64375 3.01118 7.14999 3.40107 6.75941 3.88445C6.36884 4.36782 6.09133 4.93245 5.94723 5.53696C5.80313 6.14148 5.79607 6.77058 5.92658 7.37817C5.16629 7.2354 4.38043 7.40049 3.74186 7.83714C3.1033 8.27379 2.66435 8.94622 2.52158 9.7065C2.3788 10.4668 2.5439 11.2527 2.98055 11.8912C3.41719 12.5298 4.08962 12.9687 4.84991 13.1115L4.99991 13.1365V14.8148C3.92945 14.7184 2.92692 14.2489 2.16752 13.4883C1.40813 12.7277 0.940184 11.7245 0.845474 10.6539C0.750763 9.58325 1.03531 8.51341 1.64939 7.63132C2.26346 6.74922 3.168 6.11099 4.20491 5.82817C4.36967 4.40682 5.05108 3.0956 6.11956 2.14389C7.18804 1.19219 8.56904 0.66639 9.99991 0.666504Z" fill="#34A3A4"/>
</svg>
