<svg width="18" height="18" viewBox="0 0 18 18" fill="none" xmlns="http://www.w3.org/2000/svg">
<path opacity="0.4" d="M9.67531 2H12.8253C14.0885 2 14.8427 2.2557 15.2936 2.70668C15.7446 3.15766 16.0003 3.91181 16.0003 5.175V8.325C16.0003 9.56933 15.7503 10.318 15.3113 10.7691C14.9387 11.1522 14.3548 11.3975 13.4378 11.4704V9.675C13.4378 8.03226 13.0571 6.7247 12.1664 5.83395C11.2756 4.94319 9.96805 4.5625 8.32531 4.5625H6.52994C6.60284 3.64551 6.84816 3.06166 7.23118 2.68899C7.68232 2.25004 8.43099 2 9.67531 2Z" fill="#FCFCFD" stroke="#FCFCFD"/>
<path d="M5.175 6.5H8.325C9.58819 6.5 10.3423 6.7557 10.7933 7.20668C11.2443 7.65766 11.5 8.41181 11.5 9.675V12.825C11.5 14.0882 11.2443 14.8423 10.7933 15.2933C10.3423 15.7443 9.58819 16 8.325 16H5.175C3.91181 16 3.15766 15.7443 2.70668 15.2933C2.2557 14.8423 2 14.0882 2 12.825V9.675C2 8.41181 2.2557 7.65766 2.70668 7.20668C3.15766 6.7557 3.91181 6.5 5.175 6.5ZM6.78855 13.3736L9.57105 10.5911C9.98526 10.1768 9.95975 9.51514 9.56355 9.11895C9.15829 8.71368 8.50421 8.71368 8.09895 9.11895L6.045 11.1729L5.38605 10.5139C4.98079 10.1087 4.32671 10.1087 3.92145 10.5139C3.51618 10.9192 3.51618 11.5733 3.92145 11.9786L5.31645 13.3736C5.51886 13.576 5.78264 13.6775 6.0525 13.6775C6.32236 13.6775 6.58614 13.576 6.78855 13.3736Z" fill="#FCFCFD" stroke="#FCFCFD"/>
</svg>
