<svg width="20" height="20" viewBox="0 0 20 20" fill="none" xmlns="http://www.w3.org/2000/svg">
<g clip-path="url(#clip0_700_2783)">
<path d="M18.3332 9.08341V3.41675C18.3332 2.16675 17.7998 1.66675 16.4748 1.66675H13.1082C11.7832 1.66675 11.2498 2.16675 11.2498 3.41675V9.08341C11.2498 10.3334 11.7832 10.8334 13.1082 10.8334H16.4748C17.7998 10.8334 18.3332 10.3334 18.3332 9.08341ZM18.3332 16.5834V15.0834C18.3332 13.8334 17.7998 13.3334 16.4748 13.3334H13.1082C11.7832 13.3334 11.2498 13.8334 11.2498 15.0834V16.5834C11.2498 17.8334 11.7832 18.3334 13.1082 18.3334H16.4748C17.7998 18.3334 18.3332 17.8334 18.3332 16.5834ZM8.74984 10.9167V16.5834C8.74984 17.8334 8.2165 18.3334 6.8915 18.3334H3.52484C2.19984 18.3334 1.6665 17.8334 1.6665 16.5834V10.9167C1.6665 9.66675 2.19984 9.16675 3.52484 9.16675H6.8915C8.2165 9.16675 8.74984 9.66675 8.74984 10.9167ZM8.74984 3.41675V4.91675C8.74984 6.16675 8.2165 6.66675 6.8915 6.66675H3.52484C2.19984 6.66675 1.6665 6.16675 1.6665 4.91675V3.41675C1.6665 2.16675 2.19984 1.66675 3.52484 1.66675H6.8915C8.2165 1.66675 8.74984 2.16675 8.74984 3.41675Z" stroke="white" stroke-width="1.5" stroke-linecap="round" stroke-linejoin="round"/>
</g>
<defs>
<clipPath id="clip0_700_2783">
<rect width="20" height="20" fill="white"/>
</clipPath>
</defs>
</svg>
