<svg width="16" height="16" viewBox="0 0 16 16" fill="none" xmlns="http://www.w3.org/2000/svg">
<path d="M8.66671 14.6667H3.33337C2.00004 14.6667 1.33337 14 1.33337 12.6667V7.33334C1.33337 6 2.00004 5.33334 3.33337 5.33334H6.66671V12.6667C6.66671 14 7.33337 14.6667 8.66671 14.6667Z" stroke="#BBBEC4" stroke-width="1.5" stroke-miterlimit="10" stroke-linecap="round" stroke-linejoin="round"/>
<path d="M6.74003 2.66666C6.6867 2.86666 6.66671 3.08666 6.66671 3.33333V5.33333H3.33337V4C3.33337 3.26666 3.93337 2.66666 4.66671 2.66666H6.74003Z" stroke="#BBBEC4" stroke-width="1.5" stroke-miterlimit="10" stroke-linecap="round" stroke-linejoin="round"/>
<path d="M9.33337 5.33334V8.66667" stroke="#BBBEC4" stroke-width="1.5" stroke-miterlimit="10" stroke-linecap="round" stroke-linejoin="round"/>
<path d="M12 5.33334V8.66667" stroke="#BBBEC4" stroke-width="1.5" stroke-miterlimit="10" stroke-linecap="round" stroke-linejoin="round"/>
<path d="M11.3334 11.3333H10C9.63337 11.3333 9.33337 11.6333 9.33337 12V14.6667H12V12C12 11.6333 11.7 11.3333 11.3334 11.3333Z" stroke="#BBBEC4" stroke-width="1.5" stroke-miterlimit="10" stroke-linecap="round" stroke-linejoin="round"/>
<path d="M4 8.66666V11.3333" stroke="#BBBEC4" stroke-width="1.5" stroke-miterlimit="10" stroke-linecap="round" stroke-linejoin="round"/>
<path d="M6.66663 12.6667V3.33334C6.66663 2 7.33329 1.33334 8.66663 1.33334H12.6666C14 1.33334 14.6666 2 14.6666 3.33334V12.6667C14.6666 14 14 14.6667 12.6666 14.6667H8.66663C7.33329 14.6667 6.66663 14 6.66663 12.6667Z" stroke="#BBBEC4" stroke-width="1.5" stroke-miterlimit="10" stroke-linecap="round" stroke-linejoin="round"/>
</svg>
