<svg width="160" height="39" viewBox="0 0 160 39" fill="none" xmlns="http://www.w3.org/2000/svg">
<path d="M39.5585 31.1916C42.0807 31.1916 43.9962 30.0422 45.1136 28.1905H45.1455V31H47.6357V15.4522H45.0498V18.1978L44.9859 18.2297C43.8685 16.3461 41.8572 15.2606 39.5585 15.2606C35.1528 15.2606 31.9921 18.7405 31.9921 23.3378C31.9921 28.0628 35.2805 31.1916 39.5585 31.1916ZM39.9416 28.8291C36.7491 28.8291 34.61 26.4665 34.61 23.3378C34.61 19.8898 37.0045 17.6231 39.9416 17.6231C43.0065 17.6231 45.1455 20.1453 45.1455 23.3378C45.1455 26.6262 42.815 28.8291 39.9416 28.8291ZM52.2814 15.4522V31H54.8674V23.4975C54.8674 20.3687 56.6233 18.102 59.5924 18.102C59.8478 18.102 60.2309 18.1339 60.614 18.1659V15.2925C60.3906 15.2606 60.199 15.2606 59.9755 15.2606C57.8365 15.2606 56.0487 16.4099 54.9313 18.2936H54.8674V15.4522H52.2814ZM67.9103 31.1916C69.762 31.1916 70.8156 30.7446 71.6776 30.2338L71.0071 27.9671C70.2409 28.3821 69.2831 28.7652 68.3573 28.7652C66.8887 28.7652 66.4737 27.8713 66.4737 25.9877V17.687H71.6137V15.4522H66.4737V9.86517L63.8877 10.1525V15.4522H61.8764V17.687H63.8877V26.3708C63.8877 29.4995 65.1647 31.1916 67.9103 31.1916ZM88.1477 22.9547C88.1477 18.517 85.2425 15.2606 80.9964 15.2606C76.5587 15.2606 73.3342 18.549 73.3342 23.242C73.3342 27.999 76.5906 31.1916 81.1879 31.1916C84.3167 31.1916 86.2641 30.0103 87.605 28.2863L85.7852 26.7539C84.8275 27.9351 83.3589 28.8291 81.2837 28.8291C78.3465 28.8291 76.3033 26.9135 75.9521 24.0083H88.0839C88.0839 23.8167 88.1477 23.3698 88.1477 22.9547ZM80.9645 17.6231C83.5185 17.6231 85.1786 19.3471 85.5618 21.9012H76.016C76.4948 19.2513 78.4742 17.6231 80.9645 17.6231ZM91.9392 15.4522V31H94.5251V23.4975C94.5251 20.3687 96.2811 18.102 99.2502 18.102C99.5056 18.102 99.8887 18.1339 100.272 18.1659V15.2925C100.048 15.2606 99.8567 15.2606 99.6333 15.2606C97.4942 15.2606 95.7064 16.4099 94.589 18.2936H94.5251V15.4522H91.9392ZM104.695 12.6108C105.748 12.6108 106.578 11.7807 106.578 10.7591C106.578 9.73747 105.748 8.9074 104.695 8.9074C103.641 8.9074 102.811 9.73747 102.811 10.7591C102.811 11.7807 103.641 12.6108 104.695 12.6108ZM103.386 15.4522V31H105.972V15.4522H103.386ZM124.844 22.9547C124.844 18.517 121.938 15.2606 117.692 15.2606C113.255 15.2606 110.03 18.549 110.03 23.242C110.03 27.999 113.287 31.1916 117.884 31.1916C121.013 31.1916 122.96 30.0103 124.301 28.2863L122.481 26.7539C121.523 27.9351 120.055 28.8291 117.98 28.8291C115.042 28.8291 112.999 26.9135 112.648 24.0083H124.78C124.78 23.8167 124.844 23.3698 124.844 22.9547ZM117.66 17.6231C120.214 17.6231 121.875 19.3471 122.258 21.9012H112.712C113.191 19.2513 115.17 17.6231 117.66 17.6231ZM133.328 31.1916C137.063 31.1916 138.915 29.1802 138.915 26.7539C138.947 23.7209 136.776 23.1463 133.488 21.8692C131.796 21.2627 130.551 20.6561 130.551 19.4429C130.551 18.2616 131.732 17.5593 132.945 17.5593C134.286 17.5593 135.723 17.9743 137.063 19.2194L138.404 17.1762C136.68 15.7714 134.924 15.2606 133.041 15.2606C130.104 15.2606 127.933 17.0485 127.933 19.4429C127.933 22.2843 130.072 23.3059 132.594 24.1998C134.861 25.0299 136.297 25.413 136.297 26.7858C136.297 27.9671 135.212 28.8929 133.328 28.8929C131.157 28.8929 129.784 28.1905 128.571 27.0093L127.262 28.9887C128.763 30.2976 130.742 31.1916 133.328 31.1916ZM148.19 23.3698V29.6272H150.585V23.3698H156.874V20.9753H150.585V14.686H148.19V20.9753H141.901V23.3698H148.19Z" fill="#34A3A4"/>
<path d="M20.4664 20.2747C19.9733 17.2668 18.3607 14.7127 17.3188 11.9305C16.7956 10.5323 15.9802 10.2786 14.6008 10.6772C15.1957 11.9887 15.7839 13.2759 16.3652 14.5655C17.3082 16.6576 18.3494 18.7051 18.6302 21.0411C19.0462 24.514 16.9594 27.0055 13.4789 27.0863C12.557 27.1067 11.6344 27.0999 10.7118 27.0863C9.24562 27.0674 8.00516 27.5959 7.01763 28.6605C5.56049 30.2309 4.67111 32.1334 3.81494 34.15C5.15506 34.4241 5.76358 34.1455 6.55482 32.8582C6.80699 32.449 7.25696 31.7778 7.58161 31.0704C8.29886 29.5068 9.70541 28.8568 11.4691 28.9738C12.3898 29.0322 13.314 29.0006 14.2286 28.8794C18.8748 28.2671 21.2319 24.9391 20.4664 20.2747Z" fill="#34A3A4"/>
<path d="M7.71832 26.0225C9.57485 25.306 11.5182 25.4472 13.4487 25.4261C15.9085 25.3989 17.1988 24.0338 17.0833 21.6028C17.0254 20.4522 16.7487 19.3232 16.2679 18.2762C15.2464 16.0181 14.1486 13.7893 13.2479 11.4851C12.7881 10.3209 11.8157 10.1804 11.1739 10.6115C10.7156 10.9196 11.2759 11.732 11.4571 12.086C12.7566 14.6679 13.9106 17.3206 14.9134 20.0316C15.8843 22.6228 15.0984 23.6103 12.4431 23.6005C10.6809 23.5944 10.6824 23.5952 11.4321 21.9395C11.6586 21.4382 11.8791 20.9255 12.1116 20.4386C12.7285 19.1445 12.4302 18.055 11.6398 16.9127C10.9316 18.4431 10.1751 19.8632 9.60127 21.3574C9.03352 22.8379 8.40763 24.1071 6.74437 24.5284C6.71567 24.1213 6.79374 23.7137 6.97087 23.346C8.00295 20.9912 8.97387 18.5994 10.1849 16.3374C10.9195 14.9656 10.6379 13.9698 9.73189 12.7806C7.89423 16.7965 6.10791 20.6975 4.32386 24.5986L0 34.1213C1.91391 34.3546 1.91542 34.3546 2.61304 32.865C3.84519 30.2346 5.14378 27.6571 7.71832 26.0225Z" fill="#34A3A4"/>
<path d="M26.4711 33.0613C25.0011 29.7696 23.4851 26.4982 21.809 22.844C21.5289 24.1796 20.9423 25.2373 21.2178 25.9719C22.2288 28.6605 23.4904 31.2569 24.7369 33.8518C25.1144 34.6415 26.0521 34.3456 26.5964 34.1697C27.2502 33.959 26.6183 33.395 26.4711 33.0613Z" fill="#34A3A4"/>
<path d="M19.3348 30.3751C19.7123 31.2101 20.1834 32.0157 20.45 32.8839C20.8599 34.2233 21.6814 34.5328 23.0668 34.0881L20.1102 27.5884C18.6289 28.8085 18.6289 28.8085 19.3348 30.3751Z" fill="#34A3A4"/>
<path d="M20.599 12.2966V10.9988H21.656V12.2966H22.953V13.2638H21.6544V14.5707H20.5975V13.2638H19.314V12.2966H20.599Z" fill="#34A3A4"/>
</svg>
