<svg width="12" height="12" viewBox="0 0 12 12" fill="none" xmlns="http://www.w3.org/2000/svg">
<path d="M4.72503 5.47574L5.21253 6.00074L1.57503 9.41324C1.27503 9.71324 1.23753 10.2007 1.53753 10.5007C1.83753 10.8007 2.32503 10.7632 2.62503 10.4632L6.03753 6.86324L9.33753 10.4632C9.67503 10.8007 10.2 10.8007 10.5 10.4632C10.8375 10.1257 10.8375 9.63824 10.5 9.30074L6.86253 5.96324L7.05003 5.77574L7.23753 5.96324C7.35003 6.07574 7.53753 6.15074 7.72503 6.15074C7.91253 6.15074 8.10003 6.07574 8.21253 5.96324L10.6875 3.48824C10.7625 3.41324 10.7625 3.26324 10.6875 3.18824L10.3875 2.88824C10.3125 2.81324 10.1625 2.81324 10.0875 2.88824L8.32503 4.65074C8.28753 4.68824 8.21253 4.72574 8.13753 4.68824C8.06253 4.65074 8.06253 4.53824 8.10003 4.50074L9.86253 2.73824C9.90003 2.70074 9.93753 2.66324 9.93753 2.58824C9.93753 2.55074 9.90003 2.47574 9.86253 2.43824L9.56253 2.13824C9.48753 2.06324 9.33753 2.06324 9.26253 2.13824L7.50003 3.90074C7.46253 3.93824 7.38753 3.97574 7.31253 3.93824C7.23753 3.90074 7.23753 3.78824 7.27503 3.75074L9.03753 1.98824C9.11253 1.91324 9.11253 1.76324 9.03753 1.68824L8.73753 1.38824C8.66253 1.31324 8.51253 1.31324 8.43753 1.38824L5.96253 3.86324C5.70003 4.12574 5.70003 4.57574 5.96253 4.83824L6.15003 5.02574L6.00003 5.21324L5.47503 4.72574C5.77503 4.01324 5.55003 3.03824 4.83753 2.32574C4.01253 1.50074 2.40003 0.900739 1.65003 1.65074C0.900035 2.40074 1.53753 4.05074 2.28753 4.83824C2.92503 5.47574 3.93753 5.81324 4.72503 5.47574ZM2.40003 10.2757C2.21253 10.4632 1.91253 10.4632 1.72503 10.2757C1.53753 10.0882 1.53753 9.78824 1.72503 9.60074L5.36253 6.18824L5.40003 6.22574L5.77503 6.63824C5.81253 6.63824 2.40003 10.2757 2.40003 10.2757ZM6.41253 5.21324C6.45003 5.17574 6.48753 5.10074 6.48753 5.02574C6.48753 4.95074 6.45003 4.87574 6.41253 4.83824L6.22503 4.65074C6.07503 4.50074 6.07503 4.23824 6.22503 4.08824L8.66253 1.65074L8.85003 1.83824L7.12503 3.52574C6.93753 3.71324 6.97503 4.05074 7.20003 4.16324C7.35003 4.27574 7.57503 4.23824 7.72503 4.08824L9.45003 2.36324L9.63753 2.55074L7.87503 4.31324C7.68753 4.50074 7.72503 4.83824 7.95003 4.95074C8.10003 5.06324 8.32503 5.02574 8.47503 4.87574L10.2 3.15074L10.3875 3.33824L7.95003 5.77574C7.80003 5.92574 7.53753 5.92574 7.38753 5.77574L7.20003 5.58824C7.16253 5.55074 7.08753 5.51324 7.01253 5.51324C6.93753 5.51324 6.86253 5.55074 6.82503 5.58824L6.60448 5.77574L6.52503 5.70074L6.22503 5.40074L6.41253 5.21324ZM10.2375 9.48824C10.4625 9.71324 10.4625 10.0507 10.2375 10.2757C10.0125 10.5007 9.67503 10.5007 9.48753 10.2757C9.15003 9.90074 5.32503 5.73824 4.95003 5.36324C5.10003 5.25074 5.21253 5.13824 5.32503 4.98824C7.08753 6.60074 8.47503 7.83824 10.2375 9.48824ZM1.83753 1.83824C2.43753 1.23824 3.90003 1.80074 4.61253 2.47574C5.77503 3.63824 5.43753 5.28824 4.05003 5.28824C3.52503 5.28824 2.96253 5.02574 2.51253 4.57574C1.83753 3.93824 1.20003 2.47574 1.83753 1.83824Z" fill="#219653"/>
</svg>
