<svg width="22" height="22" viewBox="0 0 22 22" fill="none" xmlns="http://www.w3.org/2000/svg">
<path d="M18.3333 1.8335C18.8396 1.8335 19.25 2.24391 19.25 2.75016V6.19408L17.4167 8.02741V3.66683H4.58333V18.3335H17.4167V15.8053L19.25 13.972V19.2502C19.25 19.7564 18.8396 20.1668 18.3333 20.1668H3.66667C3.16041 20.1668 2.75 19.7564 2.75 19.2502V2.75016C2.75 2.24391 3.16041 1.8335 3.66667 1.8335H18.3333ZM19.9634 8.0738L21.2597 9.37015L14.1297 16.5002L12.8314 16.4982L12.8333 15.2038L19.9634 8.0738ZM11.9167 11.0002V12.8335H7.33333V11.0002H11.9167ZM14.6667 7.3335V9.16683H7.33333V7.3335H14.6667Z" fill="#34A3A4"/>
</svg>
