<svg width="18" height="18" viewBox="0 0 18 18" fill="none" xmlns="http://www.w3.org/2000/svg">
<path opacity="0.4" d="M16.245 7.83001L15.51 10.965C14.88 13.6725 13.635 14.7675 11.295 14.5425C10.92 14.5125 10.515 14.445 10.08 14.34L8.82001 14.04C5.69251 13.2975 4.72501 11.7525 5.46001 8.61751L6.19501 5.47501C6.34501 4.83751 6.52501 4.28251 6.75001 3.82501C7.62751 2.01001 9.12001 1.52251 11.625 2.11501L12.8775 2.40751C16.02 3.14251 16.98 4.69501 16.245 7.83001Z"/>
<path d="M11.2953 14.5424C10.8303 14.8575 10.2453 15.12 9.53276 15.3525L8.34776 15.7425C5.37026 16.7025 3.80276 15.9 2.83526 12.9225L1.87526 9.95995C0.915256 6.98245 1.71026 5.40745 4.68776 4.44745L5.87276 4.05745C6.18026 3.95995 6.47276 3.87745 6.75026 3.82495C6.52526 4.28245 6.34526 4.83745 6.19526 5.47495L5.46026 8.61745C4.72526 11.7525 5.69276 13.2975 8.82026 14.04L10.0803 14.34C10.5153 14.445 10.9203 14.5125 11.2953 14.5424Z"/>
<path d="M13.1178 7.88258C13.0728 7.88258 13.0278 7.87508 12.9753 7.86758L9.33777 6.94508C9.03777 6.87008 8.85777 6.56258 8.93277 6.26258C9.00777 5.96258 9.31527 5.78258 9.61527 5.85758L13.2528 6.78008C13.5528 6.85508 13.7328 7.16258 13.6578 7.46258C13.5978 7.71008 13.3653 7.88258 13.1178 7.88258Z"/>
<path d="M10.92 10.4175C10.875 10.4175 10.83 10.41 10.7775 10.4025L8.595 9.84754C8.295 9.77254 8.115 9.46504 8.19 9.16504C8.265 8.86504 8.5725 8.68504 8.8725 8.76004L11.055 9.31504C11.355 9.39004 11.535 9.69754 11.46 9.99754C11.4 10.2525 11.175 10.4175 10.92 10.4175Z"/>
</svg>
