<svg width="42" height="43" viewBox="0 0 42 43" fill="none" xmlns="http://www.w3.org/2000/svg">
<rect y="0.5" width="42" height="42" rx="4" fill="#F2D98E"/>
<path opacity="0.4" d="M30.0802 18.08V24.92C30.0802 26.04 29.4802 27.08 28.5102 27.65L22.5702 31.08C21.6002 31.64 20.4002 31.64 19.4202 31.08L13.4802 27.65C12.5102 27.09 11.9102 26.05 11.9102 24.92V18.08C11.9102 16.96 12.5102 15.92 13.4802 15.35L19.4202 11.92C20.3902 11.36 21.5902 11.36 22.5702 11.92L28.5102 15.35C29.4802 15.92 30.0802 16.95 30.0802 18.08Z" fill="#FCFCFD"/>
<path d="M21 23.25C20.59 23.25 20.25 22.91 20.25 22.5V17.25C20.25 16.84 20.59 16.5 21 16.5C21.41 16.5 21.75 16.84 21.75 17.25V22.5C21.75 22.91 21.41 23.25 21 23.25Z" fill="#FCFCFD"/>
<path d="M21 26.75C20.87 26.75 20.74 26.72 20.62 26.67C20.49 26.62 20.39 26.55 20.29 26.46C20.2 26.36 20.13 26.25 20.07 26.13C20.02 26.01 20 25.88 20 25.75C20 25.49 20.1 25.23 20.29 25.04C20.39 24.95 20.49 24.88 20.62 24.83C20.99 24.67 21.43 24.76 21.71 25.04C21.8 25.14 21.87 25.24 21.92 25.37C21.97 25.49 22 25.62 22 25.75C22 25.88 21.97 26.01 21.92 26.13C21.87 26.25 21.8 26.36 21.71 26.46C21.52 26.65 21.27 26.75 21 26.75Z" fill="#FCFCFD"/>
</svg>
