<svg width="22" height="22" viewBox="0 0 22 22" fill="none" xmlns="http://www.w3.org/2000/svg">
<path d="M4.58781 8.2526C5.09408 8.2526 5.50448 8.66301 5.50448 9.16924C7.00302 9.16924 8.38156 9.68294 9.47366 10.5439L11.4628 10.5442C12.6844 10.5442 13.7819 11.0753 14.5372 11.9191L17.4212 11.9192C19.2474 11.9192 20.8242 12.9874 21.5609 14.533C19.3932 17.3937 15.8829 19.2526 11.9212 19.2526C9.36302 19.2526 7.20011 18.6996 5.44867 17.7328C5.32177 18.0844 4.98417 18.3359 4.58781 18.3359H1.83781C1.33155 18.3359 0.921143 17.9255 0.921143 17.4192V9.16924C0.921143 8.66301 1.33155 8.2526 1.83781 8.2526H4.58781ZM5.5054 11.0026L5.50448 15.6061L5.54606 15.6359C7.19039 16.7912 9.33442 17.4192 11.9212 17.4192C14.6748 17.4192 17.2365 16.3599 19.1033 14.5506L19.2252 14.4282L19.1159 14.3361C18.6906 14.0034 18.1688 13.7969 17.6091 13.759L17.4212 13.7526L15.4856 13.7527C15.5525 14.0475 15.5878 14.3543 15.5878 14.6692V15.5859H7.33781V13.7526L13.562 13.7517L13.5305 13.6798C13.1817 12.9523 12.4603 12.4374 11.6135 12.3824L11.4628 12.3776L8.77752 12.3775C7.94588 11.5292 6.78711 11.0029 5.5054 11.0026ZM3.67114 10.0859H2.75448V16.5026H3.67114V10.0859ZM16.5045 4.58594C18.0232 4.58594 19.2545 5.81716 19.2545 7.33594C19.2545 8.85472 18.0232 10.0859 16.5045 10.0859C14.9857 10.0859 13.7545 8.85472 13.7545 7.33594C13.7545 5.81716 14.9857 4.58594 16.5045 4.58594ZM16.5045 6.41927C15.9982 6.41927 15.5878 6.82967 15.5878 7.33594C15.5878 7.84219 15.9982 8.2526 16.5045 8.2526C17.0108 8.2526 17.4212 7.84219 17.4212 7.33594C17.4212 6.82967 17.0108 6.41927 16.5045 6.41927ZM10.0878 1.83594C11.6066 1.83594 12.8378 3.06716 12.8378 4.58594C12.8378 6.10472 11.6066 7.33594 10.0878 7.33594C8.56903 7.33594 7.33781 6.10472 7.33781 4.58594C7.33781 3.06716 8.56903 1.83594 10.0878 1.83594ZM10.0878 3.66927C9.58155 3.66927 9.17116 4.07967 9.17116 4.58594C9.17116 5.09219 9.58155 5.5026 10.0878 5.5026C10.5941 5.5026 11.0045 5.09219 11.0045 4.58594C11.0045 4.07967 10.5941 3.66927 10.0878 3.66927Z" fill="#34A3A4"/>
</svg>
