<svg width="20" height="20" viewBox="0 0 20 20" fill="none" xmlns="http://www.w3.org/2000/svg">
<path d="M10.0003 12.4998C13.4 12.4998 16.2053 15.0446 16.6154 18.3332H3.38525C3.79532 15.0446 6.60065 12.4998 10.0003 12.4998ZM8.48942 14.3994C7.29473 14.7782 6.28848 15.5943 5.66818 16.6665H10.0003L8.48942 14.3994ZM11.5116 14.3996L10.0003 16.6665H14.3325C13.7123 15.5944 12.7062 14.7783 11.5116 14.3996ZM15.0003 1.6665V6.6665C15.0003 9.42792 12.7618 11.6665 10.0003 11.6665C7.23892 11.6665 5.00035 9.42792 5.00035 6.6665V1.6665H15.0003ZM6.66701 6.6665C6.66701 8.50742 8.1594 9.99984 10.0003 9.99984C11.8413 9.99984 13.3337 8.50742 13.3337 6.6665H6.66701ZM13.3337 3.33317H6.66701L6.66692 4.99984H13.3336L13.3337 3.33317Z" fill="#626262" fill-opacity="0.4"/>
</svg>
