<svg width="20" height="20" viewBox="0 0 20 20" fill="none" xmlns="http://www.w3.org/2000/svg">
<path d="M10.0003 12.5001C13.4 12.5001 16.2053 15.0448 16.6154 18.3334H3.38525C3.79532 15.0448 6.60065 12.5001 10.0003 12.5001ZM8.48942 14.3997C7.29473 14.7784 6.28848 15.5945 5.66818 16.6667H10.0003L8.48942 14.3997ZM11.5116 14.3998L10.0003 16.6667H14.3325C13.7123 15.5947 12.7062 14.7786 11.5116 14.3998ZM15.0003 1.66675V6.66675C15.0003 9.42816 12.7618 11.6667 10.0003 11.6667C7.23892 11.6667 5.00035 9.42816 5.00035 6.66675V1.66675H15.0003ZM6.66701 6.66675C6.66701 8.50766 8.1594 10.0001 10.0003 10.0001C11.8413 10.0001 13.3337 8.50766 13.3337 6.66675H6.66701ZM13.3337 3.33341H6.66701L6.66692 5.00008H13.3336L13.3337 3.33341Z" fill="#34A3A4"/>
</svg>
