<svg width="42" height="42" viewBox="0 0 42 42" fill="none" xmlns="http://www.w3.org/2000/svg">
<path opacity="0.4" d="M37.9473 21C37.9473 30.3888 30.3361 38 20.9473 38C11.5584 38 3.94727 30.3888 3.94727 21C3.94727 11.6112 11.5584 4 20.9473 4C30.3361 4 37.9473 11.6112 37.9473 21Z" fill="#FCFCFD" stroke="white"/>
<path d="M25.9488 18.3358L25.949 18.3359C27.071 18.9814 27.7241 20.1249 27.6935 21.4081L27.6934 21.4081V21.42C27.6934 22.7104 27.0369 23.8413 25.93 24.4875C25.9297 24.4877 25.9293 24.4879 25.9289 24.4881L20.8563 27.4092L20.8563 27.4092L20.8539 27.4106C20.3027 27.7322 19.7075 27.885 19.0934 27.885C18.4956 27.885 17.8831 27.7316 17.3328 27.4106C16.2263 26.7652 15.5684 25.6171 15.5684 24.3425V18.48C15.5684 17.1892 16.2253 16.058 17.3328 15.4119C18.4371 14.7677 19.7671 14.7677 20.8714 15.4119L20.8714 15.4119L20.8738 15.4133L25.9488 18.3358Z" fill="#FCFCFD" stroke="white"/>
</svg>
