<svg width="19" height="18" viewBox="0 0 19 18" fill="none" xmlns="http://www.w3.org/2000/svg">
    <path d="M5.9375 5.25H13.0625V3.75C13.0625 2.25 12.5 1.5 10.8125 1.5H8.1875C6.5 1.5 5.9375 2.25 5.9375 3.75V5.25Z" fill="#FCFCFD" stroke="#6C3787"  />
    <path d="M12.5 11.25V14.25C12.5 15.75 11.75 16.5 10.25 16.5H8.75C7.25 16.5 6.5 15.75 6.5 14.25V11.25H12.5Z" fill="#FCFCFD" stroke="#6C3787"  />
    <path d="M16.25 7.5V11.25C16.25 12.75 15.5 13.5 14 13.5H12.5V11.25H6.5V13.5H5C3.5 13.5 2.75 12.75 2.75 11.25V7.5C2.75 6 3.5 5.25 5 5.25H14C15.5 5.25 16.25 6 16.25 7.5Z" stroke="#292D32"  />

</svg>
