<svg width="18" height="18" viewBox="0 0 18 18" fill="none" xmlns="http://www.w3.org/2000/svg">
<path opacity="0.4" d="M4.3125 12.0825V5.92495C5.28 5.67745 6 4.79995 6 3.75745C6 2.51245 4.995 1.50745 3.75 1.50745C2.505 1.50745 1.5 2.51245 1.5 3.75745C1.5 4.80745 2.22 5.67745 3.1875 5.92495V12.0825C2.22 12.33 1.5 13.2075 1.5 14.25C1.5 15.495 2.505 16.5 3.75 16.5C4.995 16.5 6 15.495 6 14.25C6 13.2 5.28 12.33 4.3125 12.0825Z" fill="#667085"/>
<path d="M14.8125 12.0825V4.87501C14.8125 3.73501 13.89 2.81251 12.75 2.81251H10.5525L11.61 1.93501C11.85 1.73251 11.88 1.38001 11.685 1.14001C11.4825 0.900012 11.13 0.870008 10.89 1.06501L8.64001 2.94001C8.51251 3.04501 8.4375 3.20251 8.4375 3.37501C8.4375 3.54751 8.51251 3.69751 8.64001 3.81001L10.89 5.68501C10.995 5.77501 11.1225 5.81251 11.25 5.81251C11.4075 5.81251 11.5725 5.74501 11.685 5.61001C11.8875 5.37001 11.85 5.01751 11.61 4.81501L10.5525 3.93751H12.75C13.2675 3.93751 13.6875 4.35751 13.6875 4.87501V12.0825C12.72 12.33 12 13.2075 12 14.25C12 15.495 13.005 16.5 14.25 16.5C15.495 16.5 16.5 15.495 16.5 14.25C16.5 13.2 15.78 12.33 14.8125 12.0825Z" fill="#667085"/>
</svg>
