<svg width="24" height="24" viewBox="0 0 24 24" fill="none" xmlns="http://www.w3.org/2000/svg">
<g clip-path="url(#clip0_789_48561)">
<path d="M11 20C6.0293 20 2 15.9707 2 11C2 6.0293 6.0293 2 11 2C15.9707 2 20 6.0293 20 11C20 15.9707 15.9707 20 11 20ZM8.939 17.9003C8.05107 16.0169 7.53668 13.9792 7.4243 11.9H3.8558C4.03093 13.285 4.60453 14.5893 5.50691 15.6545C6.40929 16.7197 7.60161 17.4999 8.939 17.9003ZM9.227 11.9C9.3629 14.0951 9.9902 16.157 11 17.9768C12.0371 16.1089 12.6429 14.0325 12.773 11.9H9.227ZM18.1442 11.9H14.5757C14.4633 13.9792 13.9489 16.0169 13.061 17.9003C14.3984 17.4999 15.5907 16.7197 16.4931 15.6545C17.3955 14.5893 17.9691 13.285 18.1442 11.9ZM3.8558 10.1H7.4243C7.53668 8.02081 8.05107 5.98312 8.939 4.0997C7.60161 4.50009 6.40929 5.28028 5.50691 6.34547C4.60453 7.41065 4.03093 8.71499 3.8558 10.1ZM9.2279 10.1H12.7721C12.6423 7.96754 12.0368 5.89118 11 4.0232C9.96291 5.8911 9.3571 7.96747 9.227 10.1H9.2279ZM13.061 4.0997C13.9489 5.98312 14.4633 8.02081 14.5757 10.1H18.1442C17.9691 8.71499 17.3955 7.41065 16.4931 6.34547C15.5907 5.28028 14.3984 4.50009 13.061 4.0997Z" fill="#7D7E81"/>
</g>
<defs>
<clipPath id="clip0_789_48561">
<rect width="24" height="24" fill="white"/>
</clipPath>
</defs>
</svg>
