<svg width="20" height="20" viewBox="0 0 20 20" fill="none" xmlns="http://www.w3.org/2000/svg">
<path d="M18.3373 5.83333H19.1707V14.1667H18.3373V16.6667C18.3373 17.1269 17.9643 17.5 17.504 17.5H2.50399C2.04375 17.5 1.67065 17.1269 1.67065 16.6667V3.33333C1.67065 2.8731 2.04375 2.5 2.50399 2.5H17.504C17.9643 2.5 18.3373 2.8731 18.3373 3.33333V5.83333ZM16.6707 14.1667H11.6707C9.3695 14.1667 7.50399 12.3012 7.50399 10C7.50399 7.69882 9.3695 5.83333 11.6707 5.83333H16.6707V4.16667H3.33732V15.8333H16.6707V14.1667ZM17.504 12.5V7.5H11.6707C10.2899 7.5 9.17067 8.61925 9.17067 10C9.17067 11.3807 10.2899 12.5 11.6707 12.5H17.504ZM11.6707 9.16667H14.1707V10.8333H11.6707V9.16667Z" fill="#34A3A4"/>
</svg>
