<svg width="20" height="20" viewBox="0 0 20 20" fill="none" xmlns="http://www.w3.org/2000/svg">
<path d="M1.6665 9.99983C1.6665 9.27942 1.75792 8.58033 1.9298 7.91359C2.83835 7.96069 3.74024 7.50846 4.22634 6.66652C4.71206 5.82521 4.65322 4.81892 4.15918 4.05584C5.15279 3.07941 6.3901 2.35018 7.77153 1.96777C8.185 2.77821 9.02759 3.33318 9.99984 3.33318C10.9721 3.33318 11.8147 2.77821 12.2282 1.96777C13.6096 2.35018 14.8469 3.07941 15.8405 4.05584C15.3464 4.81892 15.2876 5.82521 15.7733 6.66652C16.2594 7.50846 17.1613 7.96069 18.0699 7.91359C18.2418 8.58033 18.3332 9.27942 18.3332 9.99983C18.3332 10.7202 18.2418 11.4193 18.0699 12.0861C17.1613 12.039 16.2594 12.4912 15.7733 13.3332C15.2876 14.1745 15.3464 15.1807 15.8405 15.9438C14.8469 16.9202 13.6096 17.6495 12.2282 18.0319C11.8147 17.2215 10.9721 16.6665 9.99984 16.6665C9.02759 16.6665 8.185 17.2215 7.77153 18.0319C6.3901 17.6495 5.15279 16.9202 4.15918 15.9438C4.65322 15.1807 4.71206 14.1745 4.22634 13.3332C3.74024 12.4912 2.83835 12.039 1.9298 12.0861C1.75792 11.4193 1.6665 10.7202 1.6665 9.99983ZM5.66971 12.4998C6.1948 13.4093 6.34532 14.4549 6.13999 15.4363C6.47981 15.6782 6.84155 15.8877 7.22058 16.0617C7.96797 15.3927 8.94917 14.9998 9.99984 14.9998C11.0505 14.9998 12.0317 15.3927 12.7791 16.0617C13.1581 15.8877 13.5198 15.6782 13.8597 15.4363C13.6543 14.4549 13.8048 13.4093 14.33 12.4998C14.855 11.5904 15.6853 10.9373 16.6378 10.6244C16.6568 10.4179 16.6665 10.2097 16.6665 9.99983C16.6665 9.79008 16.6568 9.58175 16.6378 9.37533C15.6853 9.06242 14.855 8.40933 14.33 7.49985C13.8048 6.59037 13.6543 5.54482 13.8597 4.56337C13.5198 4.32157 13.1581 4.11206 12.7791 3.93793C12.0317 4.60703 11.0505 4.99985 9.99984 4.99985C8.94917 4.99985 7.96797 4.60703 7.22058 3.93793C6.84155 4.11206 6.47981 4.32157 6.13999 4.56337C6.34532 5.54482 6.1948 6.59037 5.66971 7.49985C5.14464 8.40933 4.31445 9.06242 3.36193 9.37533C3.34281 9.58175 3.33317 9.79008 3.33317 9.99983C3.33317 10.2097 3.34281 10.4179 3.36193 10.6244C4.31445 10.9373 5.14464 11.5904 5.66971 12.4998ZM9.99984 12.4998C8.61909 12.4998 7.49984 11.3806 7.49984 9.99983C7.49984 8.61916 8.61909 7.49985 9.99984 7.49985C11.3806 7.49985 12.4998 8.61916 12.4998 9.99983C12.4998 11.3806 11.3806 12.4998 9.99984 12.4998ZM9.99984 10.8332C10.4601 10.8332 10.8332 10.4601 10.8332 9.99983C10.8332 9.53958 10.4601 9.1665 9.99984 9.1665C9.53959 9.1665 9.1665 9.53958 9.1665 9.99983C9.1665 10.4601 9.53959 10.8332 9.99984 10.8332Z" fill="#626262" fill-opacity="0.4"/>
</svg>
