<svg width="32" height="32" viewBox="0 0 32 32" fill="none" xmlns="http://www.w3.org/2000/svg">
<path d="M29.3333 13.9998V20.6665C29.3333 25.3332 26.6666 27.3332 22.6666 27.3332H9.33329C5.33329 27.3332 2.66663 25.3332 2.66663 20.6665V11.3332C2.66663 6.6665 5.33329 4.6665 9.33329 4.6665H18.6666" stroke="#344054" stroke-width="1.5" stroke-miterlimit="10" stroke-linecap="round" stroke-linejoin="round"/>
<path d="M9.33337 12L13.5067 15.3333C14.88 16.4267 17.1334 16.4267 18.5067 15.3333L20.08 14.08" stroke="#344054" stroke-width="1.5" stroke-miterlimit="10" stroke-linecap="round" stroke-linejoin="round"/>
<path d="M26 10.6667C27.8409 10.6667 29.3333 9.17428 29.3333 7.33333C29.3333 5.49238 27.8409 4 26 4C24.159 4 22.6666 5.49238 22.6666 7.33333C22.6666 9.17428 24.159 10.6667 26 10.6667Z" stroke="#EB5757" stroke-width="1.5" stroke-miterlimit="10" stroke-linecap="round" stroke-linejoin="round"/>
</svg>
