<svg width="18" height="18" viewBox="0 0 18 18" fill="none" xmlns="http://www.w3.org/2000/svg">
<path opacity="0.4" d="M4.79242 12.1126L4.79243 12.1126L4.79312 12.1095C4.85742 11.8231 4.82658 11.5124 4.7504 11.2458C4.67435 10.9796 4.53649 10.6991 4.32881 10.4914L2.50631 8.66895C2.00131 8.16394 1.91535 7.74372 1.9988 7.47299C2.08963 7.20149 2.4009 6.91292 3.10575 6.79307C3.10599 6.79302 3.10623 6.79298 3.10647 6.79294L5.44496 6.4032L5.44497 6.40323L5.45028 6.40228C5.71471 6.35527 5.97222 6.22433 6.17959 6.07234C6.38678 5.92048 6.591 5.71309 6.71528 5.47044L6.71531 5.47045L6.71773 5.46559L8.00657 2.88041C8.00676 2.88003 8.00695 2.87965 8.00714 2.87927C8.34563 2.20967 8.72206 2 9.00026 2C9.27846 2 9.65488 2.20966 9.99337 2.87926C9.99357 2.87964 9.99376 2.88003 9.99395 2.88041L11.2828 5.46559L11.283 5.46611C11.3411 5.58224 11.4179 5.69004 11.5054 5.78774L4.67575 12.6174L4.79242 12.1126Z"/>
<path d="M13.7251 14.3691L13.7254 14.3704C13.9311 15.2572 13.745 15.6807 13.5369 15.8323C13.446 15.8975 13.3269 15.9399 13.155 15.9399C12.8919 15.9399 12.5305 15.8395 12.0821 15.5746C12.082 15.5746 12.0819 15.5745 12.0818 15.5745L9.88528 14.27L9.88308 14.2687C9.61495 14.1113 9.2929 14.048 8.99998 14.048C8.70705 14.048 8.385 14.1113 8.11687 14.2687L8.11467 14.27L5.91981 15.5735C5.91941 15.5737 5.919 15.5739 5.91859 15.5742C5.12907 16.0362 4.66942 15.9845 4.4668 15.8351C4.44887 15.8218 4.43164 15.8075 4.41512 15.7919L13.261 6.94598C13.4938 6.71323 13.8184 6.61117 14.1265 6.66498L14.1295 6.66549L14.8863 6.79287C14.8864 6.79289 14.8865 6.79291 14.8866 6.79293C15.5917 6.91274 15.9031 7.20137 15.9939 7.47292C16.0774 7.74365 15.9914 8.16387 15.4864 8.66887L15.4857 8.6696L13.6714 10.4914C13.6713 10.4915 13.6712 10.4916 13.6711 10.4917C13.4624 10.7005 13.3216 10.9788 13.2444 11.2479C13.1676 11.5153 13.1386 11.8262 13.2083 12.1148L13.7251 14.3691Z"/>
</svg>
