<svg width="18" height="18" viewBox="0 0 18 18" fill="none" xmlns="http://www.w3.org/2000/svg">
<path opacity="0.4" d="M8.9375 2.8125V2.3125H8.4375H7.5C7.48694 2.3125 7.47128 2.3073 7.45699 2.29301C7.4427 2.27872 7.4375 2.26306 7.4375 2.25C7.4375 2.23694 7.4427 2.22128 7.45699 2.20699C7.47128 2.1927 7.48694 2.1875 7.5 2.1875H10.5C10.5131 2.1875 10.5287 2.1927 10.543 2.20699C10.5573 2.22128 10.5625 2.23694 10.5625 2.25C10.5625 2.26306 10.5573 2.27872 10.543 2.29301C10.5287 2.3073 10.5131 2.3125 10.5 2.3125H9.5625H9.0625V2.8125V6.375C9.0625 6.38806 9.0573 6.40372 9.04301 6.41801C9.02872 6.4323 9.01306 6.4375 9 6.4375C8.98694 6.4375 8.97128 6.4323 8.95699 6.41801C8.9427 6.40372 8.9375 6.38806 8.9375 6.375V2.8125Z"/>
<path opacity="0.4" d="M10.5 15.1875H9.5625V11.625C9.5625 11.3175 9.3075 11.0625 9 11.0625C8.6925 11.0625 8.4375 11.3175 8.4375 11.625V15.1875H7.5C7.1925 15.1875 6.9375 15.4425 6.9375 15.75C6.9375 16.0575 7.1925 16.3125 7.5 16.3125H10.5C10.8075 16.3125 11.0625 16.0575 11.0625 15.75C11.0625 15.4425 10.8075 15.1875 10.5 15.1875Z"/>
<path opacity="0.4" d="M2.12254 7.40995C2.21254 7.46245 2.31004 7.48495 2.40004 7.48495C2.59504 7.48495 2.78254 7.38745 2.88754 7.19995L3.36004 6.38995L6.45004 8.17495C6.53254 8.22745 6.63004 8.24995 6.72754 8.24995C6.92254 8.24995 7.11004 8.15245 7.21504 7.96495C7.37254 7.69495 7.27504 7.34995 7.01254 7.19995L3.93004 5.41495L4.39504 4.60495C4.55254 4.33495 4.45504 3.98995 4.19254 3.83995C3.92254 3.68245 3.57754 3.77245 3.42754 4.04245L1.92754 6.63745C1.76254 6.91495 1.85254 7.25245 2.12254 7.40995Z"/>
<path opacity="0.4" d="M15.8776 10.5899C15.6076 10.4324 15.2626 10.5224 15.1126 10.7924L14.6401 11.6024L11.5501 9.82488C11.2801 9.66738 10.9351 9.76488 10.7851 10.0274C10.6276 10.2974 10.7251 10.6424 10.9876 10.7924L14.0701 12.5774L13.6051 13.3874C13.4476 13.6574 13.5451 14.0024 13.8076 14.1524C13.8976 14.2049 13.9951 14.2274 14.0851 14.2274C14.2801 14.2274 14.4676 14.1299 14.5726 13.9424L16.0726 11.3474C16.2376 11.0849 16.1476 10.7474 15.8776 10.5899Z"/>
<path opacity="0.4" d="M14.0776 5.41502L10.9951 7.20002C10.7251 7.35752 10.6351 7.70252 10.7926 7.96502C10.8976 8.14502 11.0851 8.25002 11.2801 8.25002C11.3776 8.25002 11.4751 8.22752 11.5576 8.17502L14.6401 6.39002L15.1126 7.20002C15.2176 7.38002 15.4051 7.48502 15.6001 7.48502C15.6976 7.48502 15.7951 7.46252 15.8776 7.41002C16.1476 7.25252 16.2376 6.90752 16.0801 6.64502L14.5801 4.05002C14.4226 3.78002 14.0776 3.69002 13.8151 3.84752C13.5451 4.00502 13.4551 4.35002 13.6126 4.61252L14.0776 5.41502Z"/>
<path opacity="0.4" d="M3.92253 12.5849L7.00503 10.7999C7.27503 10.6424 7.36503 10.2974 7.20753 10.0349C7.05003 9.76488 6.70503 9.67488 6.44253 9.83238L3.36003 11.6174L2.88753 10.8074C2.73003 10.5374 2.38503 10.4474 2.12253 10.6049C1.85253 10.7624 1.76253 11.1074 1.92003 11.3699L3.42003 13.9649C3.52503 14.1449 3.71253 14.2499 3.90753 14.2499C4.00503 14.2499 4.10253 14.2274 4.18503 14.1749C4.45503 14.0174 4.54503 13.6724 4.38753 13.4099L3.92253 12.5849Z"/>
<path d="M11.625 9C11.625 9.48 11.4975 9.9225 11.2725 10.3125C10.815 11.1 9.9675 11.625 9 11.625C8.0325 11.625 7.185 11.1 6.7275 10.3125C6.5025 9.9225 6.375 9.48 6.375 9C6.375 8.52 6.5025 8.0775 6.7275 7.6875C7.185 6.9 8.0325 6.375 9 6.375C9.9675 6.375 10.815 6.9 11.2725 7.6875C11.4975 8.0775 11.625 8.52 11.625 9Z"/>
</svg>
