<svg width="19" height="18" viewBox="0 0 19 18" fill="none" xmlns="http://www.w3.org/2000/svg">
<path opacity="0.4" d="M12.3223 12.3475H12.3202L12.1845 12.4536C11.4447 13.032 10.5174 13.375 9.5 13.375C8.49674 13.375 7.57606 13.0389 6.83572 12.4669L6.70067 12.3625H6.69831C5.73526 11.5586 5.125 10.3537 5.125 9C5.125 6.58364 7.08364 4.625 9.5 4.625C11.9164 4.625 13.875 6.58364 13.875 9C13.875 10.3395 13.2715 11.5437 12.3223 12.3475Z"/>
<path d="M9.50021 14.375C10.3165 14.375 11.0878 14.1944 11.7785 13.8702L11.6306 14.5866C11.4668 15.2141 11.2212 15.5447 10.9655 15.7282C10.7036 15.9163 10.3618 16 9.91271 16H9.09521C8.64584 16 8.30247 15.9162 8.03977 15.7274C7.78377 15.5435 7.53825 15.2121 7.37799 14.582L7.23603 13.8751C7.92475 14.1966 8.69148 14.375 9.50021 14.375Z"/>
<path d="M6.52271 5.1375H6.53021C7.35521 4.5 8.38271 4.125 9.50021 4.125C10.6327 4.125 11.6677 4.5075 12.4927 5.1525H12.5002L12.1177 3.3C11.7502 1.875 10.9252 1.5 9.91271 1.5H9.09521C8.08271 1.5 7.25021 1.875 6.89021 3.3075L6.52271 5.1375Z"/>
<path d="M10.55 10.95C10.4075 10.95 10.265 10.8975 10.1525 10.785L9.1025 9.735C8.9975 9.63 8.9375 9.4875 8.9375 9.3375V7.245C8.9375 6.9375 9.1925 6.6825 9.5 6.6825C9.8075 6.6825 10.0625 6.9375 10.0625 7.245V9.105L10.9475 9.99C11.165 10.2075 11.165 10.5675 10.9475 10.785C10.835 10.8975 10.6925 10.95 10.55 10.95Z"/>
</svg>
